<?xml version="1.0" encoding="utf-8"?>
<!-- Generator: Adobe Illustrator 21.0.0, SVG Export Plug-In . SVG Version: 6.00 Build 0)  -->
<svg version="1.1" id="Capa_1" xmlns="http://www.w3.org/2000/svg" xmlns:xlink="http://www.w3.org/1999/xlink" x="0px" y="0px"
	 viewBox="0 0 82 82" style="enable-background:new 0 0 82 82;" xml:space="preserve">
<style type="text/css">
	.st0{fill:#333333;}
	.st1{fill:#FCD733;}
	.st2{fill:#FFFFFF;}
	.st3{fill-rule:evenodd;clip-rule:evenodd;fill:#FCD733;}
	.st4{fill-rule:evenodd;clip-rule:evenodd;fill:#F2F3F3;}
	.st5{fill-rule:evenodd;clip-rule:evenodd;fill:#666666;}
	.st6{fill-rule:evenodd;clip-rule:evenodd;fill:#FFFFFF;}
	.st7{fill:#666666;}
	.st8{fill-rule:evenodd;clip-rule:evenodd;}
	.st9{fill-rule:evenodd;clip-rule:evenodd;fill:#FDE785;}
	.st10{fill-rule:evenodd;clip-rule:evenodd;fill:#CCCCCC;}
	.st11{fill:none;stroke:#FFFFFF;stroke-width:2;stroke-miterlimit:10;}
	.st12{fill-rule:evenodd;clip-rule:evenodd;fill:#FBB03B;}
</style>
<rect x="-196" y="-1364" class="st0" width="1290" height="110"/>
<rect x="-196" y="-243" class="st0" width="1290" height="39"/>
<g>
	<path class="st1" d="M-149.7-1341.9c0,1.7-0.3,3.2-0.9,4.5c-0.6,1.2-1.4,2.2-2.5,3c-1.1,0.8-2.3,1.3-3.7,1.7
		c-1.4,0.4-2.9,0.5-4.5,0.5v6h-8.1v-25.3h8.1c1.6,0,3.1,0.2,4.5,0.5c1.4,0.4,2.6,0.9,3.7,1.7c1.1,0.8,1.9,1.8,2.5,3
		C-150-1345.2-149.7-1343.7-149.7-1341.9z M-153.4-1341.9c0-1.1-0.2-2.1-0.6-3c-0.4-0.8-0.9-1.5-1.7-2.1c-0.7-0.5-1.6-0.9-2.5-1.2
		c-1-0.3-2-0.4-3.2-0.4h-4.3v19.3h1v-6h3.3c1.1,0,2.2-0.1,3.2-0.4c1-0.3,1.8-0.7,2.5-1.2c0.7-0.5,1.3-1.2,1.7-2.1
		C-153.6-1339.8-153.4-1340.8-153.4-1341.9z M-154.5-1341.9c0,1.1-0.2,2-0.6,2.7c-0.4,0.7-0.9,1.3-1.5,1.7c-0.6,0.4-1.4,0.7-2.2,0.9
		c-0.8,0.2-1.7,0.3-2.6,0.3h-3.3v-11.4h3.3c0.9,0,1.8,0.1,2.6,0.3s1.6,0.5,2.2,0.9c0.6,0.4,1.1,1,1.5,1.7
		C-154.7-1343.9-154.5-1343-154.5-1341.9z M-161.4-1339.1h0.3c1.1,0,1.8-0.2,2.3-0.7c0.5-0.5,0.7-1.2,0.7-2.1s-0.2-1.6-0.7-2.1
		c-0.5-0.5-1.2-0.7-2.3-0.7h-0.3V-1339.1z"/>
	<path class="st1" d="M-147.8-1351.6h8.7c1.6,0,3.1,0.2,4.5,0.6c1.4,0.4,2.6,1.1,3.6,1.9c1,0.8,1.8,1.9,2.4,3.1
		c0.6,1.2,0.9,2.6,0.9,4.2c0,1.3-0.2,2.3-0.5,3.2c-0.4,0.9-0.7,1.6-1.2,2.2c-0.5,0.7-1.1,1.2-1.7,1.7l4.8,8.4h-9.5l-3.8-6.4v6.4
		h-8.1V-1351.6z M-139.9-1335c1,0,2-0.1,2.9-0.3l3.6,6.1h1.2l-3.8-6.4c1.4-0.5,2.5-1.2,3.3-2.2c0.8-1,1.2-2.3,1.2-3.9
		c0-1.1-0.2-2.1-0.6-2.9c-0.4-0.8-1-1.5-1.8-2.1c-0.7-0.6-1.6-1-2.6-1.3c-1-0.3-2.1-0.4-3.3-0.4h-4.1v19.3h1v-5.8H-139.9z
		 M-143-1336v-11.7h3.1c2.3,0,4.1,0.5,5.4,1.5c1.3,1,2,2.5,2,4.3c0,1.9-0.7,3.3-2,4.3c-1.3,1-3.1,1.5-5.4,1.5H-143z M-139.7-1339.1
		h0.4c1,0,1.8-0.2,2.5-0.6c0.7-0.4,1-1.2,1-2.2s-0.3-1.7-1-2.2c-0.7-0.4-1.5-0.6-2.5-0.6h-0.4V-1339.1z"/>
	<path class="st1" d="M-126.3-1338.9c0-1.8,0.3-3.5,1-5.2c0.7-1.6,1.6-3,2.8-4.2c1.2-1.2,2.6-2.2,4.2-2.9c1.6-0.7,3.3-1,5.2-1
		c1.8,0,3.5,0.3,5.2,1c1.6,0.7,3,1.6,4.2,2.9c1.2,1.2,2.2,2.6,2.9,4.2c0.7,1.6,1,3.3,1,5.2c0,1.8-0.3,3.5-1,5.2
		c-0.7,1.6-1.6,3-2.9,4.2c-1.2,1.2-2.6,2.2-4.2,2.9c-1.6,0.7-3.3,1-5.2,1c-1.8,0-3.5-0.3-5.2-1c-1.6-0.7-3-1.6-4.2-2.9
		c-1.2-1.2-2.2-2.6-2.8-4.2C-125.9-1335.3-126.3-1337.1-126.3-1338.9z M-122.7-1338.9c0,1.3,0.3,2.6,0.8,3.8
		c0.5,1.2,1.2,2.2,2.1,3.1c0.9,0.9,1.9,1.6,3.1,2.1c1.2,0.5,2.4,0.8,3.8,0.8c1.3,0,2.6-0.3,3.8-0.8c1.2-0.5,2.2-1.2,3.1-2.1
		c0.9-0.9,1.6-1.9,2.1-3.1c0.5-1.2,0.8-2.4,0.8-3.8s-0.3-2.6-0.8-3.8c-0.5-1.2-1.2-2.2-2.1-3.1c-0.9-0.9-1.9-1.6-3.1-2.1
		c-1.2-0.5-2.4-0.8-3.8-0.8c-1.3,0-2.6,0.3-3.8,0.8c-1.2,0.5-2.2,1.2-3.1,2.1c-0.9,0.9-1.6,1.9-2.1,3.1
		C-122.4-1341.5-122.7-1340.2-122.7-1338.9z M-113-1330.1c-1.2,0-2.4-0.2-3.4-0.7c-1.1-0.5-2-1.1-2.8-1.9c-0.8-0.8-1.4-1.7-1.9-2.8
		c-0.5-1.1-0.7-2.2-0.7-3.4c0-1.2,0.2-2.3,0.7-3.4c0.5-1.1,1.1-2,1.9-2.8c0.8-0.8,1.7-1.4,2.8-1.9c1.1-0.5,2.2-0.7,3.4-0.7
		s2.3,0.2,3.4,0.7c1.1,0.5,2,1.1,2.8,1.9c0.8,0.8,1.4,1.7,1.9,2.8c0.5,1.1,0.7,2.2,0.7,3.4c0,1.2-0.2,2.4-0.7,3.4
		c-0.5,1.1-1.1,2-1.9,2.8c-0.8,0.8-1.7,1.4-2.8,1.9C-110.6-1330.4-111.7-1330.1-113-1330.1z M-118.3-1338.9c0,0.7,0.1,1.4,0.4,2.1
		c0.3,0.6,0.7,1.2,1.1,1.7c0.5,0.5,1,0.9,1.7,1.1c0.6,0.3,1.3,0.4,2.1,0.4c0.7,0,1.4-0.1,2.1-0.4c0.6-0.3,1.2-0.7,1.7-1.1
		c0.5-0.5,0.9-1,1.1-1.7c0.3-0.6,0.4-1.3,0.4-2.1s-0.1-1.4-0.4-2.1c-0.3-0.6-0.7-1.2-1.1-1.7c-0.5-0.5-1-0.9-1.7-1.1
		c-0.6-0.3-1.3-0.4-2.1-0.4c-0.7,0-1.4,0.1-2.1,0.4c-0.6,0.3-1.2,0.7-1.7,1.1c-0.5,0.5-0.9,1-1.1,1.7
		C-118.1-1340.3-118.3-1339.6-118.3-1338.9z"/>
	<path class="st1" d="M-81.4-1342.9c-0.5-0.4-1-0.7-1.7-0.9c-0.7-0.2-1.4-0.3-2-0.3c-0.7,0-1.4,0.1-2,0.4c-0.6,0.3-1.1,0.6-1.6,1.1
		c-0.4,0.5-0.8,1-1,1.7c-0.3,0.7-0.4,1.4-0.4,2.1c0,0.8,0.1,1.5,0.4,2.1c0.3,0.7,0.7,1.2,1.1,1.7c0.5,0.5,1,0.8,1.7,1.1
		s1.3,0.4,2.1,0.4c0.9,0,1.6-0.2,2.4-0.6c0.7-0.4,1.3-0.9,1.8-1.5h-2.3v-5.3h9.8v8.4c-0.6,1-1.3,2-2.1,2.8c-0.8,0.8-1.7,1.6-2.7,2.2
		c-1,0.6-2.1,1.1-3.2,1.4c-1.2,0.3-2.4,0.5-3.6,0.5c-1.8,0-3.5-0.3-5.2-1c-1.6-0.7-3-1.6-4.2-2.8c-1.2-1.2-2.2-2.6-2.8-4.2
		c-0.7-1.6-1-3.4-1-5.2c0-1.8,0.3-3.5,1-5.2c0.7-1.6,1.6-3,2.7-4.2c1.2-1.2,2.5-2.2,4.1-2.9c1.6-0.7,3.3-1,5.1-1
		c1.4,0,2.6,0.1,3.7,0.4c1,0.3,1.9,0.6,2.6,1c0.8,0.4,1.5,0.8,2.1,1.3L-81.4-1342.9z M-81-1347.9c-0.3-0.2-0.7-0.3-1.1-0.4
		c-0.4-0.1-0.8-0.2-1.3-0.3c-0.5-0.1-1-0.1-1.6-0.1c-1.3,0-2.6,0.2-3.8,0.7c-1.2,0.5-2.2,1.1-3,2c-0.9,0.8-1.5,1.9-2,3.1
		c-0.5,1.2-0.7,2.5-0.7,4c0,1.4,0.3,2.8,0.8,4c0.5,1.2,1.2,2.2,2.1,3.1c0.9,0.8,1.9,1.5,3.1,2c1.2,0.5,2.4,0.7,3.8,0.7
		c1.7,0,3.3-0.4,4.8-1.2c1.4-0.8,2.6-1.9,3.5-3.3v-5h-4v0.9h3v3.8c-0.8,1.2-1.8,2.1-3.1,2.8c-1.3,0.7-2.6,1-4.2,1
		c-1.2,0-2.4-0.2-3.4-0.6c-1.1-0.4-2-1-2.8-1.8c-0.8-0.8-1.4-1.7-1.9-2.8c-0.5-1.1-0.7-2.3-0.7-3.6s0.2-2.5,0.7-3.6
		c0.4-1.1,1.1-2,1.8-2.8c0.8-0.8,1.7-1.4,2.7-1.8c1-0.4,2.2-0.6,3.4-0.6c0.5,0,0.9,0,1.3,0.1c0.4,0.1,0.8,0.2,1.1,0.2
		c0.4,0.1,0.7,0.2,1,0.3L-81-1347.9z"/>
	<path class="st1" d="M-71.1-1351.6h8.7c1.6,0,3.1,0.2,4.5,0.6c1.4,0.4,2.6,1.1,3.6,1.9c1,0.8,1.8,1.9,2.4,3.1
		c0.6,1.2,0.9,2.6,0.9,4.2c0,1.3-0.2,2.3-0.5,3.2c-0.4,0.9-0.7,1.6-1.2,2.2c-0.5,0.7-1.1,1.2-1.7,1.7l4.8,8.4h-9.5l-3.8-6.4v6.4
		h-8.1V-1351.6z M-63.2-1335c1,0,2-0.1,2.9-0.3l3.6,6.1h1.2l-3.8-6.4c1.4-0.5,2.5-1.2,3.3-2.2c0.8-1,1.2-2.3,1.2-3.9
		c0-1.1-0.2-2.1-0.6-2.9c-0.4-0.8-1-1.5-1.8-2.1c-0.7-0.6-1.6-1-2.6-1.3c-1-0.3-2.1-0.4-3.3-0.4h-4.1v19.3h1v-5.8H-63.2z
		 M-66.3-1336v-11.7h3.1c2.3,0,4.1,0.5,5.4,1.5c1.3,1,2,2.5,2,4.3c0,1.9-0.7,3.3-2,4.3c-1.3,1-3.1,1.5-5.4,1.5H-66.3z M-63-1339.1
		h0.4c1,0,1.8-0.2,2.5-0.6c0.7-0.4,1-1.2,1-2.2s-0.3-1.7-1-2.2c-0.7-0.4-1.5-0.6-2.5-0.6H-63V-1339.1z"/>
	<path class="st1" d="M-41.4-1351.6h6.1l9.6,25.3h-8l-0.8-2.3h-7.7l-0.8,2.3h-8L-41.4-1351.6z M-45.4-1329.3l0.7-1.9h12.5l0.7,1.9
		h1.1l-7.3-19.3h-1.4l-7.3,19.3H-45.4z M-38.4-1347.6l5.9,15.5h-11.9L-38.4-1347.6z M-36.7-1334.1l-1.7-4.4l-1.7,4.4H-36.7z"/>
	<path class="st1" d="M-25.1-1351.6h6.7l6.6,9.7l6.6-9.7h6.7v25.3h-8.1v-9.1l-5.2,7.6l-5.2-7.6v9.1h-8.1V-1351.6z M-20.3-1329.3
		v-17.4l8.5,12.4l8.5-12.4v17.4h1v-19.3h-1l-8.5,12.5l-8.5-12.5h-1v19.3H-20.3z"/>
	<path class="st1" d="M11.6-1351.6h6.1l9.6,25.3h-8l-0.8-2.3h-7.7l-0.8,2.3H2L11.6-1351.6z M7.7-1329.3l0.7-1.9h12.5l0.7,1.9h1.1
		l-7.3-19.3h-1.4l-7.3,19.3H7.7z M14.6-1347.6l5.9,15.5H8.7L14.6-1347.6z M16.4-1334.1l-1.7-4.4l-1.7,4.4H16.4z"/>
	<path class="st1" d="M27.3-1338.9c0-2,0.4-3.9,1.1-5.5c0.7-1.6,1.7-3,2.9-4.2c1.2-1.2,2.6-2.1,4.3-2.7c1.6-0.6,3.3-0.9,5.2-0.9
		c1.4,0,2.7,0.1,3.9,0.4c1.1,0.3,2.1,0.6,2.9,1c0.9,0.4,1.7,0.8,2.4,1.3l-4,7c-0.4-0.3-0.8-0.6-1.3-0.9c-0.4-0.2-0.9-0.4-1.5-0.6
		c-0.6-0.2-1.3-0.3-2-0.3c-0.8,0-1.5,0.1-2.2,0.4c-0.7,0.3-1.2,0.7-1.7,1.1c-0.5,0.5-0.9,1-1.2,1.7c-0.3,0.6-0.4,1.3-0.4,2.1
		s0.1,1.4,0.4,2.1c0.3,0.6,0.7,1.2,1.2,1.7c0.5,0.5,1.1,0.9,1.8,1.1c0.7,0.3,1.4,0.4,2.2,0.4c0.8,0,1.5-0.1,2.2-0.3
		c0.6-0.2,1.2-0.4,1.6-0.7c0.5-0.3,0.9-0.6,1.3-1l4,7c-0.7,0.6-1.5,1.1-2.4,1.5c-0.8,0.4-1.8,0.7-2.9,1c-1.1,0.3-2.4,0.5-3.9,0.5
		c-2,0-3.8-0.3-5.5-1c-1.7-0.6-3.1-1.6-4.3-2.7c-1.2-1.2-2.2-2.6-2.9-4.2C27.6-1335.1,27.3-1336.9,27.3-1338.9z M32.1-1338.9
		c0-1.2,0.2-2.4,0.6-3.4c0.4-1.1,1-2,1.8-2.8c0.8-0.8,1.7-1.4,2.8-1.9s2.3-0.7,3.6-0.7c0.7,0,1.2,0,1.8,0.1c0.5,0.1,1,0.2,1.3,0.3
		c0.4,0.1,0.8,0.3,1.1,0.5l0.5-0.9c-0.4-0.2-0.8-0.3-1.3-0.5c-0.4-0.1-0.9-0.2-1.5-0.3c-0.6-0.1-1.2-0.2-1.9-0.2
		c-1.3,0-2.5,0.2-3.7,0.7c-1.2,0.5-2.2,1.1-3.1,2c-0.9,0.8-1.6,1.9-2.2,3.1c-0.5,1.2-0.8,2.5-0.8,4c0,1.5,0.3,2.8,0.8,4
		c0.5,1.2,1.2,2.2,2.1,3.1c0.9,0.8,2,1.5,3.2,2c1.2,0.5,2.5,0.7,3.9,0.7c0.8,0,1.4-0.1,2.1-0.2c0.6-0.1,1.1-0.3,1.6-0.4
		c0.5-0.2,0.9-0.4,1.3-0.6l-0.5-0.9c-0.3,0.2-0.7,0.4-1.1,0.6c-0.4,0.2-0.8,0.3-1.4,0.4c-0.5,0.1-1.2,0.2-1.9,0.2
		c-1.4,0-2.6-0.2-3.8-0.7c-1.1-0.5-2.1-1.1-2.8-1.9c-0.8-0.8-1.4-1.7-1.8-2.8S32.1-1337.7,32.1-1338.9z"/>
	<path class="st1" d="M51.2-1351.6h8.6v25.3h-8.6V-1351.6z M56-1329.3v-19.3h-1v19.3H56z"/>
	<path class="st1" d="M61.9-1338.9c0-1.8,0.3-3.5,1-5.2c0.7-1.6,1.6-3,2.8-4.2c1.2-1.2,2.6-2.2,4.2-2.9c1.6-0.7,3.3-1,5.2-1
		c1.8,0,3.5,0.3,5.2,1c1.6,0.7,3,1.6,4.2,2.9c1.2,1.2,2.2,2.6,2.9,4.2c0.7,1.6,1,3.3,1,5.2c0,1.8-0.3,3.5-1,5.2
		c-0.7,1.6-1.6,3-2.9,4.2c-1.2,1.2-2.6,2.2-4.2,2.9c-1.6,0.7-3.3,1-5.2,1c-1.8,0-3.5-0.3-5.2-1c-1.6-0.7-3-1.6-4.2-2.9
		c-1.2-1.2-2.2-2.6-2.8-4.2C62.2-1335.3,61.9-1337.1,61.9-1338.9z M65.5-1338.9c0,1.3,0.3,2.6,0.8,3.8c0.5,1.2,1.2,2.2,2.1,3.1
		c0.9,0.9,1.9,1.6,3.1,2.1c1.2,0.5,2.4,0.8,3.8,0.8c1.3,0,2.6-0.3,3.8-0.8c1.2-0.5,2.2-1.2,3.1-2.1c0.9-0.9,1.6-1.9,2.1-3.1
		c0.5-1.2,0.8-2.4,0.8-3.8s-0.3-2.6-0.8-3.8c-0.5-1.2-1.2-2.2-2.1-3.1c-0.9-0.9-1.9-1.6-3.1-2.1c-1.2-0.5-2.4-0.8-3.8-0.8
		c-1.3,0-2.6,0.3-3.8,0.8c-1.2,0.5-2.2,1.2-3.1,2.1c-0.9,0.9-1.6,1.9-2.1,3.1C65.7-1341.5,65.5-1340.2,65.5-1338.9z M75.2-1330.1
		c-1.2,0-2.4-0.2-3.4-0.7c-1.1-0.5-2-1.1-2.8-1.9c-0.8-0.8-1.4-1.7-1.9-2.8c-0.5-1.1-0.7-2.2-0.7-3.4c0-1.2,0.2-2.3,0.7-3.4
		c0.5-1.1,1.1-2,1.9-2.8c0.8-0.8,1.7-1.4,2.8-1.9c1.1-0.5,2.2-0.7,3.4-0.7s2.3,0.2,3.4,0.7c1.1,0.5,2,1.1,2.8,1.9
		c0.8,0.8,1.4,1.7,1.9,2.8c0.5,1.1,0.7,2.2,0.7,3.4c0,1.2-0.2,2.4-0.7,3.4c-0.5,1.1-1.1,2-1.9,2.8c-0.8,0.8-1.7,1.4-2.8,1.9
		C77.5-1330.4,76.4-1330.1,75.2-1330.1z M69.9-1338.9c0,0.7,0.1,1.4,0.4,2.1c0.3,0.6,0.7,1.2,1.1,1.7c0.5,0.5,1,0.9,1.7,1.1
		c0.6,0.3,1.3,0.4,2.1,0.4c0.7,0,1.4-0.1,2.1-0.4c0.6-0.3,1.2-0.7,1.7-1.1c0.5-0.5,0.9-1,1.1-1.7c0.3-0.6,0.4-1.3,0.4-2.1
		s-0.1-1.4-0.4-2.1c-0.3-0.6-0.7-1.2-1.1-1.7c-0.5-0.5-1-0.9-1.7-1.1c-0.6-0.3-1.3-0.4-2.1-0.4c-0.7,0-1.4,0.1-2.1,0.4
		c-0.6,0.3-1.2,0.7-1.7,1.1c-0.5,0.5-0.9,1-1.1,1.7C70-1340.3,69.9-1339.6,69.9-1338.9z M76.9-1353.1h-4.3l3.2-5.9h5L76.9-1353.1z
		 M75.2-1354.6H76l1.9-2.9h-1.1L75.2-1354.6z"/>
	<path class="st1" d="M90.6-1351.6h6.6l7,9.8v-9.8h7.9v25.3h-6.7l-7-9.7v9.7h-7.9V-1351.6z M95.1-1329.3v-17.6l12.5,17.6h1v-19.3h-1
		v17.6l-12.5-17.6h-1v19.3H95.1z"/>
	<path class="st2" d="M120.3-1351.6h8.6l2.9,8.9l2.9-8.9h5.5l2.9,8.9l2.9-8.9h8.6l-8.4,25.3h-6.3l-2.5-7.7l-2.5,7.7h-6.3
		L120.3-1351.6z M132.5-1329.3l5.1-15.9l5.1,15.9h1l6.3-19.3h-1l-5.8,17.5l-5.5-17.5L132-1331l-5.8-17.5h-1l6.3,19.3H132.5z"/>
	<path class="st2" d="M155.3-1351.6h14.9v6.7h-6.8v2.8h6.7v6.3h-6.7v2.9h7.1v6.6h-15.2V-1351.6z M167.7-1329.3v-0.9h-7.6v-8.3h7.2
		v-0.9h-7.2v-8.2h7.6v-0.9h-8.6v19.3H167.7z"/>
	<path class="st2" d="M172.8-1351.6h9.9c1.3,0,2.4,0.1,3.5,0.4c1.1,0.3,2,0.7,2.7,1.3c0.7,0.6,1.3,1.3,1.7,2.1s0.6,1.8,0.6,3
		c0,0.8-0.1,1.5-0.3,2.1c-0.2,0.6-0.4,1-0.6,1.4c-0.3,0.5-0.6,0.8-1,1.1c0.6,0.4,1.1,0.8,1.5,1.4c0.4,0.5,0.7,1.1,1,1.8
		c0.3,0.7,0.5,1.6,0.5,2.7c0,1.2-0.2,2.3-0.6,3.3c-0.4,1-1,1.8-1.8,2.5c-0.8,0.7-1.8,1.2-2.9,1.6c-1.2,0.4-2.4,0.6-3.9,0.6h-10.3
		V-1351.6z M182.1-1329.3c2.2,0,3.9-0.5,4.9-1.4c1.1-1,1.6-2.2,1.6-3.8c0-1-0.2-1.9-0.7-2.5c-0.4-0.6-0.9-1.1-1.4-1.5
		c-0.6-0.4-1.3-0.7-2.1-0.8c0.6-0.2,1.2-0.5,1.6-0.8c0.4-0.3,0.8-0.8,1.2-1.3c0.3-0.6,0.5-1.3,0.5-2.2c0-1.6-0.5-2.8-1.5-3.6
		c-1-0.8-2.4-1.2-4.1-1.2h-5.5v19.3H182.1z M177.6-1339.8v-7.8h4.5c1.6,0,2.8,0.4,3.6,1.1c0.7,0.7,1.1,1.7,1.1,2.8
		c0,1.2-0.4,2.1-1.1,2.8c-0.7,0.7-1.9,1.1-3.6,1.1H177.6z M177.6-1330.2v-8.7h4.4c0.8,0,1.5,0.1,2.2,0.2c0.7,0.2,1.3,0.4,1.8,0.8
		c0.5,0.3,0.9,0.8,1.2,1.3c0.3,0.6,0.4,1.2,0.4,2c0,1.5-0.5,2.7-1.5,3.3c-1,0.7-2.4,1-4,1H177.6z M183.4-1343.9
		c0-1.2-0.6-1.7-1.9-1.7h-0.9v3.5h0.9C182.8-1342.1,183.4-1342.7,183.4-1343.9z M181.5-1332.2c1.9,0,2.9-0.7,2.9-2.2s-1-2.2-2.9-2.2
		h-0.9v4.4H181.5z"/>
</g>
<g>
	<path class="st1" d="M-149.7-69.9c0,1.7-0.3,3.2-0.9,4.5c-0.6,1.2-1.4,2.2-2.5,3c-1.1,0.8-2.3,1.3-3.7,1.7
		c-1.4,0.4-2.9,0.5-4.5,0.5v6h-8.1v-25.3h8.1c1.6,0,3.1,0.2,4.5,0.5c1.4,0.4,2.6,0.9,3.7,1.7c1.1,0.8,1.9,1.8,2.5,3
		C-150-73.2-149.7-71.7-149.7-69.9z M-153.4-69.9c0-1.1-0.2-2.1-0.6-3c-0.4-0.8-0.9-1.5-1.7-2.1c-0.7-0.5-1.6-0.9-2.5-1.2
		c-1-0.3-2-0.4-3.2-0.4h-4.3v19.3h1v-6h3.3c1.1,0,2.2-0.1,3.2-0.4c1-0.3,1.8-0.7,2.5-1.2c0.7-0.5,1.3-1.2,1.7-2.1
		C-153.6-67.8-153.4-68.8-153.4-69.9z M-154.5-69.9c0,1.1-0.2,2-0.6,2.7c-0.4,0.7-0.9,1.3-1.5,1.7c-0.6,0.4-1.4,0.7-2.2,0.9
		c-0.8,0.2-1.7,0.3-2.6,0.3h-3.3v-11.4h3.3c0.9,0,1.8,0.1,2.6,0.3s1.6,0.5,2.2,0.9c0.6,0.4,1.1,1,1.5,1.7
		C-154.7-71.9-154.5-71-154.5-69.9z M-161.4-67.1h0.3c1.1,0,1.8-0.2,2.3-0.7c0.5-0.5,0.7-1.2,0.7-2.1s-0.2-1.6-0.7-2.1
		c-0.5-0.5-1.2-0.7-2.3-0.7h-0.3V-67.1z"/>
	<path class="st1" d="M-147.8-79.6h8.7c1.6,0,3.1,0.2,4.5,0.6c1.4,0.4,2.6,1.1,3.6,1.9c1,0.8,1.8,1.9,2.4,3.1
		c0.6,1.2,0.9,2.6,0.9,4.2c0,1.3-0.2,2.3-0.5,3.2c-0.4,0.9-0.7,1.6-1.2,2.2c-0.5,0.7-1.1,1.2-1.7,1.7l4.8,8.4h-9.5l-3.8-6.4v6.4
		h-8.1V-79.6z M-139.9-63c1,0,2-0.1,2.9-0.3l3.6,6.1h1.2l-3.8-6.4c1.4-0.5,2.5-1.2,3.3-2.2c0.8-1,1.2-2.3,1.2-3.9
		c0-1.1-0.2-2.1-0.6-2.9c-0.4-0.8-1-1.5-1.8-2.1c-0.7-0.6-1.6-1-2.6-1.3c-1-0.3-2.1-0.4-3.3-0.4h-4.1v19.3h1V-63H-139.9z M-143-64
		v-11.7h3.1c2.3,0,4.1,0.5,5.4,1.5c1.3,1,2,2.5,2,4.3c0,1.9-0.7,3.3-2,4.3c-1.3,1-3.1,1.5-5.4,1.5H-143z M-139.7-67.1h0.4
		c1,0,1.8-0.2,2.5-0.6c0.7-0.4,1-1.2,1-2.2s-0.3-1.7-1-2.2c-0.7-0.4-1.5-0.6-2.5-0.6h-0.4V-67.1z"/>
	<path class="st1" d="M-126.3-66.9c0-1.8,0.3-3.5,1-5.2c0.7-1.6,1.6-3,2.8-4.2c1.2-1.2,2.6-2.2,4.2-2.9c1.6-0.7,3.3-1,5.2-1
		c1.8,0,3.5,0.3,5.2,1c1.6,0.7,3,1.6,4.2,2.9c1.2,1.2,2.2,2.6,2.9,4.2c0.7,1.6,1,3.3,1,5.2c0,1.8-0.3,3.5-1,5.2
		c-0.7,1.6-1.6,3-2.9,4.2c-1.2,1.2-2.6,2.2-4.2,2.9c-1.6,0.7-3.3,1-5.2,1c-1.8,0-3.5-0.3-5.2-1c-1.6-0.7-3-1.6-4.2-2.9
		c-1.2-1.2-2.2-2.6-2.8-4.2C-125.9-63.3-126.3-65.1-126.3-66.9z M-122.7-66.9c0,1.3,0.3,2.6,0.8,3.8c0.5,1.2,1.2,2.2,2.1,3.1
		c0.9,0.9,1.9,1.6,3.1,2.1c1.2,0.5,2.4,0.8,3.8,0.8c1.3,0,2.6-0.3,3.8-0.8c1.2-0.5,2.2-1.2,3.1-2.1c0.9-0.9,1.6-1.9,2.1-3.1
		c0.5-1.2,0.8-2.4,0.8-3.8s-0.3-2.6-0.8-3.8c-0.5-1.2-1.2-2.2-2.1-3.1c-0.9-0.9-1.9-1.6-3.1-2.1c-1.2-0.5-2.4-0.8-3.8-0.8
		c-1.3,0-2.6,0.3-3.8,0.8c-1.2,0.5-2.2,1.2-3.1,2.1c-0.9,0.9-1.6,1.9-2.1,3.1C-122.4-69.5-122.7-68.2-122.7-66.9z M-113-58.1
		c-1.2,0-2.4-0.2-3.4-0.7c-1.1-0.5-2-1.1-2.8-1.9c-0.8-0.8-1.4-1.7-1.9-2.8c-0.5-1.1-0.7-2.2-0.7-3.4c0-1.2,0.2-2.3,0.7-3.4
		c0.5-1.1,1.1-2,1.9-2.8c0.8-0.8,1.7-1.4,2.8-1.9c1.1-0.5,2.2-0.7,3.4-0.7s2.3,0.2,3.4,0.7c1.1,0.5,2,1.1,2.8,1.9
		c0.8,0.8,1.4,1.7,1.9,2.8c0.5,1.1,0.7,2.2,0.7,3.4c0,1.2-0.2,2.4-0.7,3.4c-0.5,1.1-1.1,2-1.9,2.8c-0.8,0.8-1.7,1.4-2.8,1.9
		C-110.6-58.4-111.7-58.1-113-58.1z M-118.3-66.9c0,0.7,0.1,1.4,0.4,2.1c0.3,0.6,0.7,1.2,1.1,1.7c0.5,0.5,1,0.9,1.7,1.1
		c0.6,0.3,1.3,0.4,2.1,0.4c0.7,0,1.4-0.1,2.1-0.4c0.6-0.3,1.2-0.7,1.7-1.1c0.5-0.5,0.9-1,1.1-1.7c0.3-0.6,0.4-1.3,0.4-2.1
		s-0.1-1.4-0.4-2.1c-0.3-0.6-0.7-1.2-1.1-1.7c-0.5-0.5-1-0.9-1.7-1.1c-0.6-0.3-1.3-0.4-2.1-0.4c-0.7,0-1.4,0.1-2.1,0.4
		c-0.6,0.3-1.2,0.7-1.7,1.1c-0.5,0.5-0.9,1-1.1,1.7C-118.1-68.3-118.3-67.6-118.3-66.9z"/>
	<path class="st1" d="M-81.4-70.9c-0.5-0.4-1-0.7-1.7-0.9c-0.7-0.2-1.4-0.3-2-0.3c-0.7,0-1.4,0.1-2,0.4c-0.6,0.3-1.1,0.6-1.6,1.1
		c-0.4,0.5-0.8,1-1,1.7c-0.3,0.7-0.4,1.4-0.4,2.1c0,0.8,0.1,1.5,0.4,2.1c0.3,0.7,0.7,1.2,1.1,1.7c0.5,0.5,1,0.8,1.7,1.1
		s1.3,0.4,2.1,0.4c0.9,0,1.6-0.2,2.4-0.6c0.7-0.4,1.3-0.9,1.8-1.5h-2.3v-5.3h9.8v8.4c-0.6,1-1.3,2-2.1,2.8c-0.8,0.8-1.7,1.6-2.7,2.2
		c-1,0.6-2.1,1.1-3.2,1.4c-1.2,0.3-2.4,0.5-3.6,0.5c-1.8,0-3.5-0.3-5.2-1c-1.6-0.7-3-1.6-4.2-2.8c-1.2-1.2-2.2-2.6-2.8-4.2
		c-0.7-1.6-1-3.4-1-5.2c0-1.8,0.3-3.5,1-5.2c0.7-1.6,1.6-3,2.7-4.2c1.2-1.2,2.5-2.2,4.1-2.9c1.6-0.7,3.3-1,5.1-1
		c1.4,0,2.6,0.1,3.7,0.4c1,0.3,1.9,0.6,2.6,1c0.8,0.4,1.5,0.8,2.1,1.3L-81.4-70.9z M-81-75.9c-0.3-0.2-0.7-0.3-1.1-0.4
		c-0.4-0.1-0.8-0.2-1.3-0.3c-0.5-0.1-1-0.1-1.6-0.1c-1.3,0-2.6,0.2-3.8,0.7c-1.2,0.5-2.2,1.1-3,2c-0.9,0.8-1.5,1.9-2,3.1
		c-0.5,1.2-0.7,2.5-0.7,4c0,1.4,0.3,2.8,0.8,4c0.5,1.2,1.2,2.2,2.1,3.1c0.9,0.8,1.9,1.5,3.1,2c1.2,0.5,2.4,0.7,3.8,0.7
		c1.7,0,3.3-0.4,4.8-1.2c1.4-0.8,2.6-1.9,3.5-3.3v-5h-4v0.9h3v3.8c-0.8,1.2-1.8,2.1-3.1,2.8c-1.3,0.7-2.6,1-4.2,1
		c-1.2,0-2.4-0.2-3.4-0.6c-1.1-0.4-2-1-2.8-1.8c-0.8-0.8-1.4-1.7-1.9-2.8c-0.5-1.1-0.7-2.3-0.7-3.6s0.2-2.5,0.7-3.6
		c0.4-1.1,1.1-2,1.8-2.8c0.8-0.8,1.7-1.4,2.7-1.8c1-0.4,2.2-0.6,3.4-0.6c0.5,0,0.9,0,1.3,0.1c0.4,0.1,0.8,0.2,1.1,0.2
		c0.4,0.1,0.7,0.2,1,0.3L-81-75.9z"/>
	<path class="st1" d="M-71.1-79.6h8.7c1.6,0,3.1,0.2,4.5,0.6c1.4,0.4,2.6,1.1,3.6,1.9c1,0.8,1.8,1.9,2.4,3.1
		c0.6,1.2,0.9,2.6,0.9,4.2c0,1.3-0.2,2.3-0.5,3.2c-0.4,0.9-0.7,1.6-1.2,2.2c-0.5,0.7-1.1,1.2-1.7,1.7l4.8,8.4h-9.5l-3.8-6.4v6.4
		h-8.1V-79.6z M-63.2-63c1,0,2-0.1,2.9-0.3l3.6,6.1h1.2l-3.8-6.4c1.4-0.5,2.5-1.2,3.3-2.2c0.8-1,1.2-2.3,1.2-3.9
		c0-1.1-0.2-2.1-0.6-2.9c-0.4-0.8-1-1.5-1.8-2.1c-0.7-0.6-1.6-1-2.6-1.3c-1-0.3-2.1-0.4-3.3-0.4h-4.1v19.3h1V-63H-63.2z M-66.3-64
		v-11.7h3.1c2.3,0,4.1,0.5,5.4,1.5c1.3,1,2,2.5,2,4.3c0,1.9-0.7,3.3-2,4.3c-1.3,1-3.1,1.5-5.4,1.5H-66.3z M-63-67.1h0.4
		c1,0,1.8-0.2,2.5-0.6c0.7-0.4,1-1.2,1-2.2s-0.3-1.7-1-2.2c-0.7-0.4-1.5-0.6-2.5-0.6H-63V-67.1z"/>
	<path class="st1" d="M-41.4-79.6h6.1l9.6,25.3h-8l-0.8-2.3h-7.7l-0.8,2.3h-8L-41.4-79.6z M-45.4-57.3l0.7-1.9h12.5l0.7,1.9h1.1
		l-7.3-19.3h-1.4l-7.3,19.3H-45.4z M-38.4-75.6l5.9,15.5h-11.9L-38.4-75.6z M-36.7-62.1l-1.7-4.4l-1.7,4.4H-36.7z"/>
	<path class="st1" d="M-25.1-79.6h6.7l6.6,9.7l6.6-9.7h6.7v25.3h-8.1v-9.1l-5.2,7.6l-5.2-7.6v9.1h-8.1V-79.6z M-20.3-57.3v-17.4
		l8.5,12.4l8.5-12.4v17.4h1v-19.3h-1L-11.8-64l-8.5-12.5h-1v19.3H-20.3z"/>
	<path class="st1" d="M11.6-79.6h6.1l9.6,25.3h-8l-0.8-2.3h-7.7L10-54.2H2L11.6-79.6z M7.7-57.3l0.7-1.9h12.5l0.7,1.9h1.1l-7.3-19.3
		h-1.4L6.6-57.3H7.7z M14.6-75.6l5.9,15.5H8.7L14.6-75.6z M16.4-62.1l-1.7-4.4l-1.7,4.4H16.4z"/>
	<path class="st1" d="M27.3-66.9c0-2,0.4-3.9,1.1-5.5c0.7-1.6,1.7-3,2.9-4.2c1.2-1.2,2.6-2.1,4.3-2.7c1.6-0.6,3.3-0.9,5.2-0.9
		c1.4,0,2.7,0.1,3.9,0.4c1.1,0.3,2.1,0.6,2.9,1c0.9,0.4,1.7,0.8,2.4,1.3l-4,7c-0.4-0.3-0.8-0.6-1.3-0.9c-0.4-0.2-0.9-0.4-1.5-0.6
		c-0.6-0.2-1.3-0.3-2-0.3c-0.8,0-1.5,0.1-2.2,0.4c-0.7,0.3-1.2,0.7-1.7,1.1c-0.5,0.5-0.9,1-1.2,1.7c-0.3,0.6-0.4,1.3-0.4,2.1
		s0.1,1.4,0.4,2.1c0.3,0.6,0.7,1.2,1.2,1.7c0.5,0.5,1.1,0.9,1.8,1.1c0.7,0.3,1.4,0.4,2.2,0.4c0.8,0,1.5-0.1,2.2-0.3
		c0.6-0.2,1.2-0.4,1.6-0.7c0.5-0.3,0.9-0.6,1.3-1l4,7c-0.7,0.6-1.5,1.1-2.4,1.5c-0.8,0.4-1.8,0.7-2.9,1c-1.1,0.3-2.4,0.5-3.9,0.5
		c-2,0-3.8-0.3-5.5-1c-1.7-0.6-3.1-1.6-4.3-2.7c-1.2-1.2-2.2-2.6-2.9-4.2C27.6-63.1,27.3-64.9,27.3-66.9z M32.1-66.9
		c0-1.2,0.2-2.4,0.6-3.4c0.4-1.1,1-2,1.8-2.8c0.8-0.8,1.7-1.4,2.8-1.9s2.3-0.7,3.6-0.7c0.7,0,1.2,0,1.8,0.1c0.5,0.1,1,0.2,1.3,0.3
		c0.4,0.1,0.8,0.3,1.1,0.5l0.5-0.9c-0.4-0.2-0.8-0.3-1.3-0.5c-0.4-0.1-0.9-0.2-1.5-0.3c-0.6-0.1-1.2-0.2-1.9-0.2
		c-1.3,0-2.5,0.2-3.7,0.7c-1.2,0.5-2.2,1.1-3.1,2c-0.9,0.8-1.6,1.9-2.2,3.1c-0.5,1.2-0.8,2.5-0.8,4c0,1.5,0.3,2.8,0.8,4
		c0.5,1.2,1.2,2.2,2.1,3.1c0.9,0.8,2,1.5,3.2,2c1.2,0.5,2.5,0.7,3.9,0.7c0.8,0,1.4-0.1,2.1-0.2c0.6-0.1,1.1-0.3,1.6-0.4
		c0.5-0.2,0.9-0.4,1.3-0.6l-0.5-0.9c-0.3,0.2-0.7,0.4-1.1,0.6c-0.4,0.2-0.8,0.3-1.4,0.4c-0.5,0.1-1.2,0.2-1.9,0.2
		c-1.4,0-2.6-0.2-3.8-0.7c-1.1-0.5-2.1-1.1-2.8-1.9c-0.8-0.8-1.4-1.7-1.8-2.8S32.1-65.7,32.1-66.9z"/>
	<path class="st1" d="M51.2-79.6h8.6v25.3h-8.6V-79.6z M56-57.3v-19.3h-1v19.3H56z"/>
	<path class="st1" d="M61.9-66.9c0-1.8,0.3-3.5,1-5.2c0.7-1.6,1.6-3,2.8-4.2c1.2-1.2,2.6-2.2,4.2-2.9c1.6-0.7,3.3-1,5.2-1
		c1.8,0,3.5,0.3,5.2,1c1.6,0.7,3,1.6,4.2,2.9c1.2,1.2,2.2,2.6,2.9,4.2c0.7,1.6,1,3.3,1,5.2c0,1.8-0.3,3.5-1,5.2
		c-0.7,1.6-1.6,3-2.9,4.2c-1.2,1.2-2.6,2.2-4.2,2.9c-1.6,0.7-3.3,1-5.2,1c-1.8,0-3.5-0.3-5.2-1c-1.6-0.7-3-1.6-4.2-2.9
		c-1.2-1.2-2.2-2.6-2.8-4.2C62.2-63.3,61.9-65.1,61.9-66.9z M65.5-66.9c0,1.3,0.3,2.6,0.8,3.8c0.5,1.2,1.2,2.2,2.1,3.1
		c0.9,0.9,1.9,1.6,3.1,2.1c1.2,0.5,2.4,0.8,3.8,0.8c1.3,0,2.6-0.3,3.8-0.8c1.2-0.5,2.2-1.2,3.1-2.1c0.9-0.9,1.6-1.9,2.1-3.1
		c0.5-1.2,0.8-2.4,0.8-3.8s-0.3-2.6-0.8-3.8c-0.5-1.2-1.2-2.2-2.1-3.1c-0.9-0.9-1.9-1.6-3.1-2.1c-1.2-0.5-2.4-0.8-3.8-0.8
		c-1.3,0-2.6,0.3-3.8,0.8c-1.2,0.5-2.2,1.2-3.1,2.1c-0.9,0.9-1.6,1.9-2.1,3.1C65.7-69.5,65.5-68.2,65.5-66.9z M75.2-58.1
		c-1.2,0-2.4-0.2-3.4-0.7c-1.1-0.5-2-1.1-2.8-1.9c-0.8-0.8-1.4-1.7-1.9-2.8c-0.5-1.1-0.7-2.2-0.7-3.4c0-1.2,0.2-2.3,0.7-3.4
		c0.5-1.1,1.1-2,1.9-2.8c0.8-0.8,1.7-1.4,2.8-1.9c1.1-0.5,2.2-0.7,3.4-0.7s2.3,0.2,3.4,0.7c1.1,0.5,2,1.1,2.8,1.9
		c0.8,0.8,1.4,1.7,1.9,2.8c0.5,1.1,0.7,2.2,0.7,3.4c0,1.2-0.2,2.4-0.7,3.4c-0.5,1.1-1.1,2-1.9,2.8c-0.8,0.8-1.7,1.4-2.8,1.9
		C77.5-58.4,76.4-58.1,75.2-58.1z M69.9-66.9c0,0.7,0.1,1.4,0.4,2.1c0.3,0.6,0.7,1.2,1.1,1.7c0.5,0.5,1,0.9,1.7,1.1
		c0.6,0.3,1.3,0.4,2.1,0.4c0.7,0,1.4-0.1,2.1-0.4c0.6-0.3,1.2-0.7,1.7-1.1c0.5-0.5,0.9-1,1.1-1.7c0.3-0.6,0.4-1.3,0.4-2.1
		s-0.1-1.4-0.4-2.1c-0.3-0.6-0.7-1.2-1.1-1.7c-0.5-0.5-1-0.9-1.7-1.1c-0.6-0.3-1.3-0.4-2.1-0.4c-0.7,0-1.4,0.1-2.1,0.4
		c-0.6,0.3-1.2,0.7-1.7,1.1c-0.5,0.5-0.9,1-1.1,1.7C70-68.3,69.9-67.6,69.9-66.9z M76.9-81.1h-4.3l3.2-5.9h5L76.9-81.1z M75.2-82.6
		H76l1.9-2.9h-1.1L75.2-82.6z"/>
	<path class="st1" d="M90.6-79.6h6.6l7,9.8v-9.8h7.9v25.3h-6.7l-7-9.7v9.7h-7.9V-79.6z M95.1-57.3v-17.6l12.5,17.6h1v-19.3h-1V-59
		L95.1-76.5h-1v19.3H95.1z"/>
	<path class="st2" d="M120.3-79.6h8.6l2.9,8.9l2.9-8.9h5.5l2.9,8.9l2.9-8.9h8.6l-8.4,25.3h-6.3l-2.5-7.7l-2.5,7.7h-6.3L120.3-79.6z
		 M132.5-57.3l5.1-15.9l5.1,15.9h1l6.3-19.3h-1L143.1-59l-5.5-17.5L132-59l-5.8-17.5h-1l6.3,19.3H132.5z"/>
	<path class="st2" d="M155.3-79.6h14.9v6.7h-6.8v2.8h6.7v6.3h-6.7v2.9h7.1v6.6h-15.2V-79.6z M167.7-57.3v-0.9h-7.6v-8.3h7.2v-0.9
		h-7.2v-8.2h7.6v-0.9h-8.6v19.3H167.7z"/>
	<path class="st2" d="M172.8-79.6h9.9c1.3,0,2.4,0.1,3.5,0.4c1.1,0.3,2,0.7,2.7,1.3c0.7,0.6,1.3,1.3,1.7,2.1s0.6,1.8,0.6,3
		c0,0.8-0.1,1.5-0.3,2.1c-0.2,0.6-0.4,1-0.6,1.4c-0.3,0.5-0.6,0.8-1,1.1c0.6,0.4,1.1,0.8,1.5,1.4c0.4,0.5,0.7,1.1,1,1.8
		c0.3,0.7,0.5,1.6,0.5,2.7c0,1.2-0.2,2.3-0.6,3.3c-0.4,1-1,1.8-1.8,2.5c-0.8,0.7-1.8,1.2-2.9,1.6c-1.2,0.4-2.4,0.6-3.9,0.6h-10.3
		V-79.6z M182.1-57.3c2.2,0,3.9-0.5,4.9-1.4c1.1-1,1.6-2.2,1.6-3.8c0-1-0.2-1.9-0.7-2.5c-0.4-0.6-0.9-1.1-1.4-1.5
		c-0.6-0.4-1.3-0.7-2.1-0.8c0.6-0.2,1.2-0.5,1.6-0.8c0.4-0.3,0.8-0.8,1.2-1.3c0.3-0.6,0.5-1.3,0.5-2.2c0-1.6-0.5-2.8-1.5-3.6
		c-1-0.8-2.4-1.2-4.1-1.2h-5.5v19.3H182.1z M177.6-67.8v-7.8h4.5c1.6,0,2.8,0.4,3.6,1.1c0.7,0.7,1.1,1.7,1.1,2.8
		c0,1.2-0.4,2.1-1.1,2.8c-0.7,0.7-1.9,1.1-3.6,1.1H177.6z M177.6-58.2v-8.7h4.4c0.8,0,1.5,0.1,2.2,0.2c0.7,0.2,1.3,0.4,1.8,0.8
		c0.5,0.3,0.9,0.8,1.2,1.3c0.3,0.6,0.4,1.2,0.4,2c0,1.5-0.5,2.7-1.5,3.3c-1,0.7-2.4,1-4,1H177.6z M183.4-71.9c0-1.2-0.6-1.7-1.9-1.7
		h-0.9v3.5h0.9C182.8-70.1,183.4-70.7,183.4-71.9z M181.5-60.2c1.9,0,2.9-0.7,2.9-2.2s-1-2.2-2.9-2.2h-0.9v4.4H181.5z"/>
</g>
<text transform="matrix(1 0 0 1 -169.8789 -1221.3892)" class="st0" style="font-family:'Roboto-Condensed'; font-size:16px;">Sígueme: </text>
<rect x="-196" y="-1175" class="st3" width="484" height="34"/>
<rect x="-196" y="-1141" class="st4" width="976" height="464"/>
<rect x="-196" y="-677" class="st5" width="488" height="217"/>
<text transform="matrix(1 0 0 1 -183 -1151)" style="font-family:'Roboto-BoldCondensed'; font-size:18px;">DESCRIPCIÓN DEL CURSO</text>
<rect x="-146.9" y="-1028" style="fill-rule:evenodd;clip-rule:evenodd;fill:none;" width="892.9" height="152"/>
<text transform="matrix(0.9485 0 0 1 -146.9277 -1016.8965)"><tspan x="0" y="0" style="font-family:'AppleGaramond'; font-size:16px;">Conoce la diversidad de frameworks y herramientas en línea utilizadas en los procesos de diseño web.</tspan><tspan x="0" y="31" style="font-family:'AppleGaramond'; font-size:16px;">Comprende la diferencia entre maquetación y programación backend y frontend.</tspan><tspan x="0" y="62" style="font-family:'AppleGaramond'; font-size:16px;">Aplica los principales lenguajes de maquetación y programación: HTML; CSS; Javascript y PHP; así como los protocolos de informática para su publicación en línea.</tspan><tspan x="0" y="93" style="font-family:'AppleGaramond'; font-size:16px;">Analiza y evalúa las necesidades de cada uno de los proyectos para aplicar lo comprendido en la asignatura.</tspan><tspan x="0" y="124" style="font-family:'AppleGaramond'; font-size:16px;">Crea sitios funcionales capaces de resolver requerimientos propios del ambiente web.</tspan></text>
<rect x="-171" y="-618" style="fill-rule:evenodd;clip-rule:evenodd;fill:none;" width="440" height="158"/>
<text transform="matrix(0.9485 0 0 1 -171 -606.8965)"><tspan x="0" y="0" class="st2" style="font-family:'AppleGaramond'; font-size:16px;">1.1. HTML no es un lenguaje de programación </tspan><tspan x="0" y="31" class="st2" style="font-family:'AppleGaramond'; font-size:16px;">1.2. CSS: Sintaxis y estructura</tspan><tspan x="0" y="62" class="st2" style="font-family:'AppleGaramond'; font-size:16px;">1.3. Integración de HTML y CSS</tspan><tspan x="0" y="93" class="st2" style="font-family:'AppleGaramond'; font-size:16px;">1.4. Frameworks de maquetación</tspan><tspan x="0" y="124" class="st2" style="font-family:'AppleGaramond'; font-size:16px;">1.5. Comparativa y uso de frameworks</tspan></text>
<rect x="-171" y="-1113" style="fill-rule:evenodd;clip-rule:evenodd;fill:none;" width="335" height="20"/>
<text transform="matrix(1 0 0 1 -171 -1096.2422)" style="font-family:'Roboto-Black'; font-size:22px;">Planeación de la asignatura</text>
<rect x="-171" y="-1082" style="fill-rule:evenodd;clip-rule:evenodd;fill:none;" width="506" height="43"/>
<text transform="matrix(1 0 0 1 -171 -1068.2891)" style="font-family:'Roboto-Bold'; font-size:18px;">Resultados de aprendizaje de la asignatura del alumno:</text>
<g>
	<rect x="780.5" y="-1092.5" class="st6" width="313" height="135.5"/>
	<path class="st1" d="M1093-1092v134.5H781V-1092H1093 M1094-1093H780v136.5h314V-1093L1094-1093z"/>
</g>
<rect x="780" y="-1141" class="st3" width="314" height="48"/>
<rect x="798" y="-1028" style="fill-rule:evenodd;clip-rule:evenodd;fill:none;" width="281" height="65"/>
<text transform="matrix(0.9485 0 0 1 856.4561 -1016.8965)"><tspan x="0" y="0" style="font-family:'AppleGaramond'; font-size:16px;">Miércoles: 19:00 a 22:00 horas</tspan><tspan x="9.1" y="31" style="font-family:'AppleGaramond'; font-size:16px;">Jueves: 11:30 a 13:00 horas</tspan></text>
<g>
	<rect x="810.5" y="-1123" style="fill:none;" width="253" height="20"/>
	<text transform="matrix(1 0 0 1 892.8657 -1109.2891)" style="font-family:'Roboto-Bold'; font-size:18px;">HORARIOS</text>
</g>
<rect x="798" y="-1082" style="fill-rule:evenodd;clip-rule:evenodd;fill:none;" width="281" height="43"/>
<text transform="matrix(1 0 0 1 818.8721 -1068.2891)"><tspan x="0" y="0" style="font-family:'Roboto-Bold'; font-size:18px;">Inicio de clases: 10 de agosto</tspan><tspan x="-0.1" y="21.6" style="font-family:'Roboto-Bold'; font-size:18px;">Fin de clases: 12de diciembre</tspan></text>
<g>
	<rect x="780.5" y="-897.5" class="st6" width="313" height="64.5"/>
	<path class="st7" d="M1093-897v63.5H781V-897H1093 M1094-898H780v65.5h314V-898L1094-898z"/>
</g>
<rect x="780" y="-946" class="st5" width="314" height="48"/>
<g>
	<rect x="810.5" y="-928" style="fill:none;" width="253" height="20"/>
	<text transform="matrix(1 0 0 1 890.7607 -914.2891)" class="st2" style="font-family:'Roboto-Bold'; font-size:18px;">CONTACTO</text>
</g>
<rect x="798" y="-876" style="fill-rule:evenodd;clip-rule:evenodd;fill:none;" width="281" height="32"/>
<text transform="matrix(1 0 0 1 857.2979 -862.2891)" style="font-family:'Roboto-Bold'; font-size:18px;">oscar@webxsp.com</text>
<circle class="st8" cx="-156" cy="-1022" r="3"/>
<circle class="st8" cx="-156" cy="-992" r="3"/>
<circle class="st8" cx="-156" cy="-961" r="3"/>
<circle class="st8" cx="-156" cy="-928" r="3"/>
<circle class="st8" cx="-156" cy="-898" r="3"/>
<text transform="matrix(1 0 0 1 -149 -815)"><tspan x="0" y="0" style="font-family:'Roboto-Bold'; font-size:15px;">Introducción a la programación </tspan><tspan x="214" y="0" style="font-family:'Roboto-BoldItalic'; font-size:15px;">frontend</tspan></text>
<text transform="matrix(1 0 0 1 -149 -781)"><tspan x="0" y="0" style="font-family:'Roboto-Bold'; font-size:15px;">Programación </tspan><tspan x="98.6" y="0" style="font-family:'Roboto-BoldItalic'; font-size:15px;">frontend</tspan></text>
<text transform="matrix(1 0 0 1 -149 -747)"><tspan x="0" y="0" style="font-family:'Roboto-Bold'; font-size:15px;">Programación </tspan><tspan x="98.6" y="0" style="font-family:'Roboto-BoldItalic'; font-size:15px;">backend</tspan></text>
<text transform="matrix(1 0 0 1 -149 -713)"><tspan x="0" y="0" style="font-family:'Roboto-Bold'; font-size:15px;">Conocimientos técnicos </tspan><tspan x="166.1" y="0" style="font-family:'Roboto-BoldItalic'; font-size:15px;">web</tspan></text>
<text transform="matrix(1 0 0 1 -171 -641)"><tspan x="0" y="0" class="st2" style="font-family:'Roboto-Bold'; font-size:18px;">1. Introducción a la programación </tspan><tspan x="276.8" y="0" class="st2" style="font-family:'Roboto-BoldItalic'; font-size:18px;">frontend</tspan></text>
<rect x="292" y="-460" class="st9" width="488" height="217"/>
<rect x="317" y="-401" style="fill-rule:evenodd;clip-rule:evenodd;fill:none;" width="440" height="158"/>
<text transform="matrix(0.9485 0 0 1 317 -389.8965)"><tspan x="0" y="0" style="font-family:'AppleGaramond'; font-size:16px;">4.1. Básicos de HTTP; FTP y SMTP</tspan><tspan x="0" y="31" style="font-family:'AppleGaramond'; font-size:16px;">4.2. Información del servidor</tspan><tspan x="0" y="62" style="font-family:'AppleGaramond'; font-size:16px;">4.3. Dominio</tspan><tspan x="0" y="93" style="font-family:'AppleGaramond'; font-size:16px;">4.4. Manejo de niveles en certificados de seguridad (SSL)</tspan><tspan x="0" y="124" style="font-family:'AppleGaramond'; font-size:16px;">4.5. Manteniendo el estado</tspan></text>
<text transform="matrix(1 0 0 1 317 -424)"><tspan x="0" y="0" style="font-family:'Roboto-Bold'; font-size:18px;">4. Introducción a la programación </tspan><tspan x="276.8" y="0" style="font-family:'Roboto-BoldItalic'; font-size:18px;">frontend</tspan></text>
<rect x="-196" y="-460" class="st10" width="488" height="217"/>
<rect x="-171" y="-401" style="fill-rule:evenodd;clip-rule:evenodd;fill:none;" width="440" height="158"/>
<text transform="matrix(0.9485 0 0 1 -171 -389.8965)"><tspan x="0" y="0" style="font-family:'AppleGaramond'; font-size:16px;">3.1. Introducción al PHP</tspan><tspan x="0" y="31" style="font-family:'AppleGaramond'; font-size:16px;">3.2. Elementos básicos del lenguaje</tspan><tspan x="0" y="62" style="font-family:'AppleGaramond'; font-size:16px;">3.3. Incrustando código PHP en un HTML</tspan><tspan x="0" y="93" style="font-family:'AppleGaramond'; font-size:16px;">3.4. Frameworks de implementación de PHP</tspan><tspan x="0" y="124" style="font-family:'AppleGaramond'; font-size:16px;">3.5. Manejo de gestores de contenido CMS</tspan></text>
<text transform="matrix(1 0 0 1 -171 -424)"><tspan x="0" y="0" style="font-family:'Roboto-Bold'; font-size:18px;">3. Programación </tspan><tspan x="138.3" y="0" style="font-family:'Roboto-BoldItalic'; font-size:18px;">backend</tspan></text>
<rect x="292" y="-676" class="st3" width="488" height="216"/>
<rect x="317" y="-617" style="fill-rule:evenodd;clip-rule:evenodd;fill:none;" width="437" height="99"/>
<text transform="matrix(0.9485 0 0 1 317 -605.8965)"><tspan x="0" y="0" style="font-family:'AppleGaramond'; font-size:16px;">2.1. Tipos de datos en los lenguajes de programación </tspan><tspan x="0" y="31" style="font-family:'AppleGaramond'; font-size:16px;">2.2. Operaciones básicas de la programación</tspan><tspan x="0" y="62" style="font-family:'AppleGaramond'; font-size:16px;">2.3. Javascript: Frameworks de animación</tspan></text>
<text transform="matrix(1 0 0 1 317 -640)"><tspan x="0" y="0" style="font-family:'Roboto-Bold'; font-size:18px;">2. Programación </tspan><tspan x="138.3" y="0" style="font-family:'Roboto-BoldItalic'; font-size:18px;">frontend</tspan></text>
<line class="st11" x1="-171" y1="-860" x2="746" y2="-860"/>
<polygon class="st12" points="-158,-819.3 -170.7,-826.7 -170.7,-812 "/>
<polygon class="st12" points="71.4,41 0.3,0 0.3,82 "/>
<polygon class="st12" points="-158,-786.3 -170.7,-793.7 -170.7,-779 "/>
<polygon class="st12" points="-158,-752.3 -170.7,-759.7 -170.7,-745 "/>
<polygon class="st12" points="-158,-718.3 -170.7,-725.7 -170.7,-711 "/>
<g>
	<g id="post-linkedin">
		<path class="st0" d="M-86-1236h-16c-1.1,0-2,0.9-2,2v16c0,1.1,0.9,2,2,2h16c1.1,0,2-0.9,2-2v-16C-84-1235.1-84.9-1236-86-1236z
			 M-98-1219h-3v-9h3V-1219z M-99.5-1229.7c-1,0-1.8-0.8-1.8-1.8s0.8-1.8,1.8-1.8s1.8,0.8,1.8,1.8S-98.5-1229.7-99.5-1229.7z
			 M-87-1219h-3v-5.3c0-0.8-0.7-1.5-1.5-1.5s-1.5,0.7-1.5,1.5v5.3h-3v-9h3v1.2c0.5-0.8,1.6-1.4,2.5-1.4c1.9,0,3.5,1.6,3.5,3.5V-1219
			z"/>
	</g>
</g>
<text transform="matrix(1 0 0 1 -172.0098 -1274)" class="st2" style="font-family:'Roboto-Bold'; font-size:18px;">DGC. Oscar Tello</text>
<rect x="2013" y="-1364" class="st0" width="1024" height="110"/>
<rect x="2013" y="65" class="st0" width="1024" height="39"/>
<g>
	<path class="st1" d="M2052.3-1341.9c0,1.7-0.3,3.2-0.9,4.5c-0.6,1.2-1.4,2.2-2.5,3c-1.1,0.8-2.3,1.3-3.7,1.7
		c-1.4,0.4-2.9,0.5-4.5,0.5v6h-8.1v-25.3h8.1c1.6,0,3.1,0.2,4.5,0.5c1.4,0.4,2.6,0.9,3.7,1.7c1.1,0.8,1.9,1.8,2.5,3
		C2052-1345.2,2052.3-1343.7,2052.3-1341.9z M2048.6-1341.9c0-1.1-0.2-2.1-0.6-3c-0.4-0.8-0.9-1.5-1.7-2.1c-0.7-0.5-1.6-0.9-2.5-1.2
		c-1-0.3-2-0.4-3.2-0.4h-4.3v19.3h1v-6h3.3c1.1,0,2.2-0.1,3.2-0.4c1-0.3,1.8-0.7,2.5-1.2c0.7-0.5,1.3-1.2,1.7-2.1
		C2048.4-1339.8,2048.6-1340.8,2048.6-1341.9z M2047.5-1341.9c0,1.1-0.2,2-0.6,2.7c-0.4,0.7-0.9,1.3-1.5,1.7
		c-0.6,0.4-1.4,0.7-2.2,0.9c-0.8,0.2-1.7,0.3-2.6,0.3h-3.3v-11.4h3.3c0.9,0,1.8,0.1,2.6,0.3s1.6,0.5,2.2,0.9c0.6,0.4,1.1,1,1.5,1.7
		C2047.3-1343.9,2047.5-1343,2047.5-1341.9z M2040.6-1339.1h0.3c1.1,0,1.8-0.2,2.3-0.7c0.5-0.5,0.7-1.2,0.7-2.1s-0.2-1.6-0.7-2.1
		c-0.5-0.5-1.2-0.7-2.3-0.7h-0.3V-1339.1z"/>
	<path class="st1" d="M2054.2-1351.6h8.7c1.6,0,3.1,0.2,4.5,0.6c1.4,0.4,2.6,1.1,3.6,1.9c1,0.8,1.8,1.9,2.4,3.1
		c0.6,1.2,0.9,2.6,0.9,4.2c0,1.3-0.2,2.3-0.5,3.2c-0.4,0.9-0.7,1.6-1.2,2.2c-0.5,0.7-1.1,1.2-1.7,1.7l4.8,8.4h-9.5l-3.8-6.4v6.4
		h-8.1V-1351.6z M2062.1-1335c1,0,2-0.1,2.9-0.3l3.6,6.1h1.2l-3.8-6.4c1.4-0.5,2.5-1.2,3.3-2.2c0.8-1,1.2-2.3,1.2-3.9
		c0-1.1-0.2-2.1-0.6-2.9c-0.4-0.8-1-1.5-1.8-2.1c-0.7-0.6-1.6-1-2.6-1.3c-1-0.3-2.1-0.4-3.3-0.4h-4.1v19.3h1v-5.8H2062.1z
		 M2059-1336v-11.7h3.1c2.3,0,4.1,0.5,5.4,1.5c1.3,1,2,2.5,2,4.3c0,1.9-0.7,3.3-2,4.3c-1.3,1-3.1,1.5-5.4,1.5H2059z M2062.3-1339.1
		h0.4c1,0,1.8-0.2,2.5-0.6c0.7-0.4,1-1.2,1-2.2s-0.3-1.7-1-2.2c-0.7-0.4-1.5-0.6-2.5-0.6h-0.4V-1339.1z"/>
	<path class="st1" d="M2075.7-1338.9c0-1.8,0.3-3.5,1-5.2c0.7-1.6,1.6-3,2.8-4.2c1.2-1.2,2.6-2.2,4.2-2.9c1.6-0.7,3.3-1,5.2-1
		c1.8,0,3.5,0.3,5.2,1c1.6,0.7,3,1.6,4.2,2.9c1.2,1.2,2.2,2.6,2.9,4.2c0.7,1.6,1,3.3,1,5.2c0,1.8-0.3,3.5-1,5.2
		c-0.7,1.6-1.6,3-2.9,4.2c-1.2,1.2-2.6,2.2-4.2,2.9c-1.6,0.7-3.3,1-5.2,1c-1.8,0-3.5-0.3-5.2-1c-1.6-0.7-3-1.6-4.2-2.9
		c-1.2-1.2-2.2-2.6-2.8-4.2C2076.1-1335.3,2075.7-1337.1,2075.7-1338.9z M2079.3-1338.9c0,1.3,0.3,2.6,0.8,3.8
		c0.5,1.2,1.2,2.2,2.1,3.1c0.9,0.9,1.9,1.6,3.1,2.1c1.2,0.5,2.4,0.8,3.8,0.8c1.3,0,2.6-0.3,3.8-0.8c1.2-0.5,2.2-1.2,3.1-2.1
		c0.9-0.9,1.6-1.9,2.1-3.1c0.5-1.2,0.8-2.4,0.8-3.8s-0.3-2.6-0.8-3.8c-0.5-1.2-1.2-2.2-2.1-3.1c-0.9-0.9-1.9-1.6-3.1-2.1
		c-1.2-0.5-2.4-0.8-3.8-0.8c-1.3,0-2.6,0.3-3.8,0.8c-1.2,0.5-2.2,1.2-3.1,2.1c-0.9,0.9-1.6,1.9-2.1,3.1
		C2079.6-1341.5,2079.3-1340.2,2079.3-1338.9z M2089-1330.1c-1.2,0-2.4-0.2-3.4-0.7c-1.1-0.5-2-1.1-2.8-1.9
		c-0.8-0.8-1.4-1.7-1.9-2.8c-0.5-1.1-0.7-2.2-0.7-3.4c0-1.2,0.2-2.3,0.7-3.4c0.5-1.1,1.1-2,1.9-2.8c0.8-0.8,1.7-1.4,2.8-1.9
		c1.1-0.5,2.2-0.7,3.4-0.7s2.3,0.2,3.4,0.7c1.1,0.5,2,1.1,2.8,1.9c0.8,0.8,1.4,1.7,1.9,2.8c0.5,1.1,0.7,2.2,0.7,3.4
		c0,1.2-0.2,2.4-0.7,3.4c-0.5,1.1-1.1,2-1.9,2.8c-0.8,0.8-1.7,1.4-2.8,1.9C2091.4-1330.4,2090.3-1330.1,2089-1330.1z M2083.7-1338.9
		c0,0.7,0.1,1.4,0.4,2.1c0.3,0.6,0.7,1.2,1.1,1.7c0.5,0.5,1,0.9,1.7,1.1c0.6,0.3,1.3,0.4,2.1,0.4c0.7,0,1.4-0.1,2.1-0.4
		c0.6-0.3,1.2-0.7,1.7-1.1c0.5-0.5,0.9-1,1.1-1.7c0.3-0.6,0.4-1.3,0.4-2.1s-0.1-1.4-0.4-2.1c-0.3-0.6-0.7-1.2-1.1-1.7
		c-0.5-0.5-1-0.9-1.7-1.1c-0.6-0.3-1.3-0.4-2.1-0.4c-0.7,0-1.4,0.1-2.1,0.4c-0.6,0.3-1.2,0.7-1.7,1.1c-0.5,0.5-0.9,1-1.1,1.7
		C2083.9-1340.3,2083.7-1339.6,2083.7-1338.9z"/>
	<path class="st1" d="M2120.6-1342.9c-0.5-0.4-1-0.7-1.7-0.9c-0.7-0.2-1.4-0.3-2-0.3c-0.7,0-1.4,0.1-2,0.4c-0.6,0.3-1.1,0.6-1.6,1.1
		c-0.4,0.5-0.8,1-1,1.7c-0.3,0.7-0.4,1.4-0.4,2.1c0,0.8,0.1,1.5,0.4,2.1c0.3,0.7,0.7,1.2,1.1,1.7c0.5,0.5,1,0.8,1.7,1.1
		s1.3,0.4,2.1,0.4c0.9,0,1.6-0.2,2.4-0.6c0.7-0.4,1.3-0.9,1.8-1.5h-2.3v-5.3h9.8v8.4c-0.6,1-1.3,2-2.1,2.8c-0.8,0.8-1.7,1.6-2.7,2.2
		c-1,0.6-2.1,1.1-3.2,1.4c-1.2,0.3-2.4,0.5-3.6,0.5c-1.8,0-3.5-0.3-5.2-1c-1.6-0.7-3-1.6-4.2-2.8c-1.2-1.2-2.2-2.6-2.8-4.2
		c-0.7-1.6-1-3.4-1-5.2c0-1.8,0.3-3.5,1-5.2c0.7-1.6,1.6-3,2.7-4.2c1.2-1.2,2.5-2.2,4.1-2.9c1.6-0.7,3.3-1,5.1-1
		c1.4,0,2.6,0.1,3.7,0.4c1,0.3,1.9,0.6,2.6,1c0.8,0.4,1.5,0.8,2.1,1.3L2120.6-1342.9z M2121-1347.9c-0.3-0.2-0.7-0.3-1.1-0.4
		c-0.4-0.1-0.8-0.2-1.3-0.3c-0.5-0.1-1-0.1-1.6-0.1c-1.3,0-2.6,0.2-3.8,0.7c-1.2,0.5-2.2,1.1-3,2c-0.9,0.8-1.5,1.9-2,3.1
		c-0.5,1.2-0.7,2.5-0.7,4c0,1.4,0.3,2.8,0.8,4c0.5,1.2,1.2,2.2,2.1,3.1c0.9,0.8,1.9,1.5,3.1,2c1.2,0.5,2.4,0.7,3.8,0.7
		c1.7,0,3.3-0.4,4.8-1.2c1.4-0.8,2.6-1.9,3.5-3.3v-5h-4v0.9h3v3.8c-0.8,1.2-1.8,2.1-3.1,2.8c-1.3,0.7-2.6,1-4.2,1
		c-1.2,0-2.4-0.2-3.4-0.6c-1.1-0.4-2-1-2.8-1.8c-0.8-0.8-1.4-1.7-1.9-2.8c-0.5-1.1-0.7-2.3-0.7-3.6s0.2-2.5,0.7-3.6
		c0.4-1.1,1.1-2,1.8-2.8c0.8-0.8,1.7-1.4,2.7-1.8c1-0.4,2.2-0.6,3.4-0.6c0.5,0,0.9,0,1.3,0.1c0.4,0.1,0.8,0.2,1.1,0.2
		c0.4,0.1,0.7,0.2,1,0.3L2121-1347.9z"/>
	<path class="st1" d="M2130.9-1351.6h8.7c1.6,0,3.1,0.2,4.5,0.6c1.4,0.4,2.6,1.1,3.6,1.9c1,0.8,1.8,1.9,2.4,3.1
		c0.6,1.2,0.9,2.6,0.9,4.2c0,1.3-0.2,2.3-0.5,3.2c-0.4,0.9-0.7,1.6-1.2,2.2c-0.5,0.7-1.1,1.2-1.7,1.7l4.8,8.4h-9.5l-3.8-6.4v6.4
		h-8.1V-1351.6z M2138.8-1335c1,0,2-0.1,2.9-0.3l3.6,6.1h1.2l-3.8-6.4c1.4-0.5,2.5-1.2,3.3-2.2c0.8-1,1.2-2.3,1.2-3.9
		c0-1.1-0.2-2.1-0.6-2.9c-0.4-0.8-1-1.5-1.8-2.1c-0.7-0.6-1.6-1-2.6-1.3c-1-0.3-2.1-0.4-3.3-0.4h-4.1v19.3h1v-5.8H2138.8z
		 M2135.7-1336v-11.7h3.1c2.3,0,4.1,0.5,5.4,1.5c1.3,1,2,2.5,2,4.3c0,1.9-0.7,3.3-2,4.3c-1.3,1-3.1,1.5-5.4,1.5H2135.7z
		 M2139-1339.1h0.4c1,0,1.8-0.2,2.5-0.6c0.7-0.4,1-1.2,1-2.2s-0.3-1.7-1-2.2c-0.7-0.4-1.5-0.6-2.5-0.6h-0.4V-1339.1z"/>
	<path class="st1" d="M2160.6-1351.6h6.1l9.6,25.3h-8l-0.8-2.3h-7.7l-0.8,2.3h-8L2160.6-1351.6z M2156.6-1329.3l0.7-1.9h12.5
		l0.7,1.9h1.1l-7.3-19.3h-1.4l-7.3,19.3H2156.6z M2163.6-1347.6l5.9,15.5h-11.9L2163.6-1347.6z M2165.3-1334.1l-1.7-4.4l-1.7,4.4
		H2165.3z"/>
	<path class="st1" d="M2176.9-1351.6h6.7l6.6,9.7l6.6-9.7h6.7v25.3h-8.1v-9.1l-5.2,7.6l-5.2-7.6v9.1h-8.1V-1351.6z M2181.7-1329.3
		v-17.4l8.5,12.4l8.5-12.4v17.4h1v-19.3h-1l-8.5,12.5l-8.5-12.5h-1v19.3H2181.7z"/>
	<path class="st1" d="M2213.6-1351.6h6.1l9.6,25.3h-8l-0.8-2.3h-7.7l-0.8,2.3h-8L2213.6-1351.6z M2209.7-1329.3l0.7-1.9h12.5
		l0.7,1.9h1.1l-7.3-19.3h-1.4l-7.3,19.3H2209.7z M2216.6-1347.6l5.9,15.5h-11.9L2216.6-1347.6z M2218.4-1334.1l-1.7-4.4l-1.7,4.4
		H2218.4z"/>
	<path class="st1" d="M2229.3-1338.9c0-2,0.4-3.9,1.1-5.5c0.7-1.6,1.7-3,2.9-4.2c1.2-1.2,2.6-2.1,4.3-2.7c1.6-0.6,3.3-0.9,5.2-0.9
		c1.4,0,2.7,0.1,3.9,0.4c1.1,0.3,2.1,0.6,2.9,1c0.9,0.4,1.7,0.8,2.4,1.3l-4,7c-0.4-0.3-0.8-0.6-1.3-0.9c-0.4-0.2-0.9-0.4-1.5-0.6
		c-0.6-0.2-1.3-0.3-2-0.3c-0.8,0-1.5,0.1-2.2,0.4c-0.7,0.3-1.2,0.7-1.7,1.1c-0.5,0.5-0.9,1-1.2,1.7c-0.3,0.6-0.4,1.3-0.4,2.1
		s0.1,1.4,0.4,2.1c0.3,0.6,0.7,1.2,1.2,1.7c0.5,0.5,1.1,0.9,1.8,1.1c0.7,0.3,1.4,0.4,2.2,0.4c0.8,0,1.5-0.1,2.2-0.3
		c0.6-0.2,1.2-0.4,1.6-0.7c0.5-0.3,0.9-0.6,1.3-1l4,7c-0.7,0.6-1.5,1.1-2.4,1.5c-0.8,0.4-1.8,0.7-2.9,1c-1.1,0.3-2.4,0.5-3.9,0.5
		c-2,0-3.8-0.3-5.5-1c-1.7-0.6-3.1-1.6-4.3-2.7c-1.2-1.2-2.2-2.6-2.9-4.2C2229.6-1335.1,2229.3-1336.9,2229.3-1338.9z
		 M2234.1-1338.9c0-1.2,0.2-2.4,0.6-3.4c0.4-1.1,1-2,1.8-2.8c0.8-0.8,1.7-1.4,2.8-1.9s2.3-0.7,3.6-0.7c0.7,0,1.2,0,1.8,0.1
		c0.5,0.1,1,0.2,1.3,0.3c0.4,0.1,0.8,0.3,1.1,0.5l0.5-0.9c-0.4-0.2-0.8-0.3-1.3-0.5c-0.4-0.1-0.9-0.2-1.5-0.3
		c-0.6-0.1-1.2-0.2-1.9-0.2c-1.3,0-2.5,0.2-3.7,0.7c-1.2,0.5-2.2,1.1-3.1,2c-0.9,0.8-1.6,1.9-2.2,3.1c-0.5,1.2-0.8,2.5-0.8,4
		c0,1.5,0.3,2.8,0.8,4c0.5,1.2,1.2,2.2,2.1,3.1c0.9,0.8,2,1.5,3.2,2c1.2,0.5,2.5,0.7,3.9,0.7c0.8,0,1.4-0.1,2.1-0.2
		c0.6-0.1,1.1-0.3,1.6-0.4c0.5-0.2,0.9-0.4,1.3-0.6l-0.5-0.9c-0.3,0.2-0.7,0.4-1.1,0.6c-0.4,0.2-0.8,0.3-1.4,0.4
		c-0.5,0.1-1.2,0.2-1.9,0.2c-1.4,0-2.6-0.2-3.8-0.7c-1.1-0.5-2.1-1.1-2.8-1.9c-0.8-0.8-1.4-1.7-1.8-2.8S2234.1-1337.7,2234.1-1338.9
		z"/>
	<path class="st1" d="M2253.2-1351.6h8.6v25.3h-8.6V-1351.6z M2258-1329.3v-19.3h-1v19.3H2258z"/>
	<path class="st1" d="M2263.9-1338.9c0-1.8,0.3-3.5,1-5.2c0.7-1.6,1.6-3,2.8-4.2c1.2-1.2,2.6-2.2,4.2-2.9c1.6-0.7,3.3-1,5.2-1
		c1.8,0,3.5,0.3,5.2,1c1.6,0.7,3,1.6,4.2,2.9c1.2,1.2,2.2,2.6,2.9,4.2c0.7,1.6,1,3.3,1,5.2c0,1.8-0.3,3.5-1,5.2
		c-0.7,1.6-1.6,3-2.9,4.2c-1.2,1.2-2.6,2.2-4.2,2.9c-1.6,0.7-3.3,1-5.2,1c-1.8,0-3.5-0.3-5.2-1c-1.6-0.7-3-1.6-4.2-2.9
		c-1.2-1.2-2.2-2.6-2.8-4.2C2264.2-1335.3,2263.9-1337.1,2263.9-1338.9z M2267.5-1338.9c0,1.3,0.3,2.6,0.8,3.8
		c0.5,1.2,1.2,2.2,2.1,3.1c0.9,0.9,1.9,1.6,3.1,2.1c1.2,0.5,2.4,0.8,3.8,0.8c1.3,0,2.6-0.3,3.8-0.8c1.2-0.5,2.2-1.2,3.1-2.1
		c0.9-0.9,1.6-1.9,2.1-3.1c0.5-1.2,0.8-2.4,0.8-3.8s-0.3-2.6-0.8-3.8c-0.5-1.2-1.2-2.2-2.1-3.1c-0.9-0.9-1.9-1.6-3.1-2.1
		c-1.2-0.5-2.4-0.8-3.8-0.8c-1.3,0-2.6,0.3-3.8,0.8c-1.2,0.5-2.2,1.2-3.1,2.1c-0.9,0.9-1.6,1.9-2.1,3.1
		C2267.7-1341.5,2267.5-1340.2,2267.5-1338.9z M2277.2-1330.1c-1.2,0-2.4-0.2-3.4-0.7c-1.1-0.5-2-1.1-2.8-1.9
		c-0.8-0.8-1.4-1.7-1.9-2.8c-0.5-1.1-0.7-2.2-0.7-3.4c0-1.2,0.2-2.3,0.7-3.4c0.5-1.1,1.1-2,1.9-2.8c0.8-0.8,1.7-1.4,2.8-1.9
		c1.1-0.5,2.2-0.7,3.4-0.7s2.3,0.2,3.4,0.7c1.1,0.5,2,1.1,2.8,1.9c0.8,0.8,1.4,1.7,1.9,2.8c0.5,1.1,0.7,2.2,0.7,3.4
		c0,1.2-0.2,2.4-0.7,3.4c-0.5,1.1-1.1,2-1.9,2.8c-0.8,0.8-1.7,1.4-2.8,1.9C2279.5-1330.4,2278.4-1330.1,2277.2-1330.1z
		 M2271.9-1338.9c0,0.7,0.1,1.4,0.4,2.1c0.3,0.6,0.7,1.2,1.1,1.7c0.5,0.5,1,0.9,1.7,1.1c0.6,0.3,1.3,0.4,2.1,0.4
		c0.7,0,1.4-0.1,2.1-0.4c0.6-0.3,1.2-0.7,1.7-1.1c0.5-0.5,0.9-1,1.1-1.7c0.3-0.6,0.4-1.3,0.4-2.1s-0.1-1.4-0.4-2.1
		c-0.3-0.6-0.7-1.2-1.1-1.7c-0.5-0.5-1-0.9-1.7-1.1c-0.6-0.3-1.3-0.4-2.1-0.4c-0.7,0-1.4,0.1-2.1,0.4c-0.6,0.3-1.2,0.7-1.7,1.1
		c-0.5,0.5-0.9,1-1.1,1.7C2272-1340.3,2271.9-1339.6,2271.9-1338.9z M2278.9-1353.1h-4.3l3.2-5.9h5L2278.9-1353.1z M2277.2-1354.6
		h0.8l1.9-2.9h-1.1L2277.2-1354.6z"/>
	<path class="st1" d="M2292.6-1351.6h6.6l7,9.8v-9.8h7.9v25.3h-6.7l-7-9.7v9.7h-7.9V-1351.6z M2297.1-1329.3v-17.6l12.5,17.6h1
		v-19.3h-1v17.6l-12.5-17.6h-1v19.3H2297.1z"/>
	<path class="st2" d="M2322.3-1351.6h8.6l2.9,8.9l2.9-8.9h5.5l2.9,8.9l2.9-8.9h8.6l-8.4,25.3h-6.3l-2.5-7.7l-2.5,7.7h-6.3
		L2322.3-1351.6z M2334.5-1329.3l5.1-15.9l5.1,15.9h1l6.3-19.3h-1l-5.8,17.5l-5.5-17.5l-5.5,17.5l-5.8-17.5h-1l6.3,19.3H2334.5z"/>
	<path class="st2" d="M2357.3-1351.6h14.9v6.7h-6.8v2.8h6.7v6.3h-6.7v2.9h7.1v6.6h-15.2V-1351.6z M2369.7-1329.3v-0.9h-7.6v-8.3h7.2
		v-0.9h-7.2v-8.2h7.6v-0.9h-8.6v19.3H2369.7z"/>
	<path class="st2" d="M2374.8-1351.6h9.9c1.3,0,2.4,0.1,3.5,0.4c1.1,0.3,2,0.7,2.7,1.3c0.7,0.6,1.3,1.3,1.7,2.1s0.6,1.8,0.6,3
		c0,0.8-0.1,1.5-0.3,2.1c-0.2,0.6-0.4,1-0.6,1.4c-0.3,0.5-0.6,0.8-1,1.1c0.6,0.4,1.1,0.8,1.5,1.4c0.4,0.5,0.7,1.1,1,1.8
		c0.3,0.7,0.5,1.6,0.5,2.7c0,1.2-0.2,2.3-0.6,3.3c-0.4,1-1,1.8-1.8,2.5c-0.8,0.7-1.8,1.2-2.9,1.6c-1.2,0.4-2.4,0.6-3.9,0.6h-10.3
		V-1351.6z M2384.1-1329.3c2.2,0,3.9-0.5,4.9-1.4c1.1-1,1.6-2.2,1.6-3.8c0-1-0.2-1.9-0.7-2.5c-0.4-0.6-0.9-1.1-1.4-1.5
		c-0.6-0.4-1.3-0.7-2.1-0.8c0.6-0.2,1.2-0.5,1.6-0.8c0.4-0.3,0.8-0.8,1.2-1.3c0.3-0.6,0.5-1.3,0.5-2.2c0-1.6-0.5-2.8-1.5-3.6
		c-1-0.8-2.4-1.2-4.1-1.2h-5.5v19.3H2384.1z M2379.6-1339.8v-7.8h4.5c1.6,0,2.8,0.4,3.6,1.1c0.7,0.7,1.1,1.7,1.1,2.8
		c0,1.2-0.4,2.1-1.1,2.8c-0.7,0.7-1.9,1.1-3.6,1.1H2379.6z M2379.6-1330.2v-8.7h4.4c0.8,0,1.5,0.1,2.2,0.2c0.7,0.2,1.3,0.4,1.8,0.8
		c0.5,0.3,0.9,0.8,1.2,1.3c0.3,0.6,0.4,1.2,0.4,2c0,1.5-0.5,2.7-1.5,3.3c-1,0.7-2.4,1-4,1H2379.6z M2385.4-1343.9
		c0-1.2-0.6-1.7-1.9-1.7h-0.9v3.5h0.9C2384.8-1342.1,2385.4-1342.7,2385.4-1343.9z M2383.5-1332.2c1.9,0,2.9-0.7,2.9-2.2
		s-1-2.2-2.9-2.2h-0.9v4.4H2383.5z"/>
</g>
<text transform="matrix(1 0 0 1 2031.1211 -1221.3892)" class="st0" style="font-family:'Roboto-Condensed'; font-size:16px;">Sígueme: </text>
<rect x="2014" y="-1175" class="st3" width="511" height="34"/>
<rect x="2014" y="-1141" class="st4" width="1022" height="464"/>
<rect x="2014" y="-677" class="st5" width="511" height="217"/>
<text transform="matrix(1 0 0 1 2027 -1151)" style="font-family:'Roboto-BoldCondensed'; font-size:18px;">DESCRIPCIÓN DEL CURSO</text>
<rect x="2063.1" y="-1028" style="fill-rule:evenodd;clip-rule:evenodd;fill:none;" width="892.9" height="156"/>
<text transform="matrix(0.9485 0 0 1 2063.0723 -1016.8965)"><tspan x="0" y="0" style="font-family:'AppleGaramond'; font-size:16px;">Conoce la diversidad de frameworks y herramientas en línea utilizadas en los procesos de diseño web.</tspan><tspan x="0" y="31" style="font-family:'AppleGaramond'; font-size:16px;">Comprende la diferencia entre maquetación y programación backend y frontend.</tspan><tspan x="0" y="62" style="font-family:'AppleGaramond'; font-size:16px;">Aplica los principales lenguajes de maquetación y programación: HTML; CSS; Javascript y PHP; así como los protocolos de informática para su publicación en línea.</tspan><tspan x="0" y="93" style="font-family:'AppleGaramond'; font-size:16px;">Analiza y evalúa las necesidades de cada uno de los proyectos para aplicar lo comprendido en la asignatura.</tspan><tspan x="0" y="124" style="font-family:'AppleGaramond'; font-size:16px;">Crea sitios funcionales capaces de resolver requerimientos propios del ambiente web.</tspan></text>
<rect x="2039" y="-618" style="fill-rule:evenodd;clip-rule:evenodd;fill:none;" width="458" height="158"/>
<text transform="matrix(0.9485 0 0 1 2039 -606.8965)"><tspan x="0" y="0" class="st2" style="font-family:'AppleGaramond'; font-size:16px;">1.1. HTML no es un lenguaje de programación </tspan><tspan x="0" y="31" class="st2" style="font-family:'AppleGaramond'; font-size:16px;">1.2. CSS: Sintaxis y estructura</tspan><tspan x="0" y="62" class="st2" style="font-family:'AppleGaramond'; font-size:16px;">1.3. Integración de HTML y CSS</tspan><tspan x="0" y="93" class="st2" style="font-family:'AppleGaramond'; font-size:16px;">1.4. Frameworks de maquetación</tspan><tspan x="0" y="124" class="st2" style="font-family:'AppleGaramond'; font-size:16px;">1.5. Comparativa y uso de frameworks</tspan></text>
<rect x="2039" y="-1113" style="fill-rule:evenodd;clip-rule:evenodd;fill:none;" width="335" height="20"/>
<text transform="matrix(1 0 0 1 2039 -1096.2422)" style="font-family:'Roboto-Black'; font-size:22px;">Planeación de la asignatura</text>
<rect x="2039" y="-1082" style="fill-rule:evenodd;clip-rule:evenodd;fill:none;" width="506" height="43"/>
<text transform="matrix(1 0 0 1 2039 -1068.2891)" style="font-family:'Roboto-Bold'; font-size:18px;">Resultados de aprendizaje de la asignatura del alumno:</text>
<g>
	<rect x="2014.5" y="-194.5" class="st6" width="1021" height="135.5"/>
	<path class="st1" d="M3035-194v134.5H2015V-194H3035 M3036-195H2014v136.5h1022V-195L3036-195z"/>
</g>
<rect x="2014" y="-243" class="st3" width="1022" height="48"/>
<rect x="2384.5" y="-130" style="fill-rule:evenodd;clip-rule:evenodd;fill:none;" width="281" height="65"/>
<text transform="matrix(0.9485 0 0 1 2442.9561 -118.8965)"><tspan x="0" y="0" style="font-family:'AppleGaramond'; font-size:16px;">Miércoles: 19:00 a 22:00 horas</tspan><tspan x="9.1" y="31" style="font-family:'AppleGaramond'; font-size:16px;">Jueves: 11:30 a 13:00 horas</tspan></text>
<g>
	<rect x="2398.5" y="-225" style="fill:none;" width="253" height="20"/>
	<text transform="matrix(1 0 0 1 2480.8657 -211.2891)" style="font-family:'Roboto-Bold'; font-size:18px;">HORARIOS</text>
</g>
<rect x="2384.5" y="-184" style="fill-rule:evenodd;clip-rule:evenodd;fill:none;" width="281" height="43"/>
<text transform="matrix(1 0 0 1 2405.3721 -170.2891)"><tspan x="0" y="0" style="font-family:'Roboto-Bold'; font-size:18px;">Inicio de clases: 10 de agosto</tspan><tspan x="-0.1" y="21.6" style="font-family:'Roboto-Bold'; font-size:18px;">Fin de clases: 12de diciembre</tspan></text>
<g>
	<rect x="2014" y="0.5" class="st6" width="1022" height="64.5"/>
	<path class="st7" d="M3035.5,1v63.5h-1021V1H3035.5 M3036.5,0h-1023v65.5h1023V0L3036.5,0z"/>
</g>
<rect x="2013.5" y="-48" class="st5" width="1023" height="48"/>
<g>
	<rect x="2398.5" y="-30" style="fill:none;" width="253" height="20"/>
	<text transform="matrix(1 0 0 1 2478.7607 -16.2891)" class="st2" style="font-family:'Roboto-Bold'; font-size:18px;">CONTACTO</text>
</g>
<rect x="2384.5" y="22" style="fill-rule:evenodd;clip-rule:evenodd;fill:none;" width="281" height="32"/>
<text transform="matrix(1 0 0 1 2443.7979 35.7109)" style="font-family:'Roboto-Bold'; font-size:18px;">oscar@webxsp.com</text>
<circle class="st8" cx="2054" cy="-1022" r="3"/>
<circle class="st8" cx="2054" cy="-992" r="3"/>
<circle class="st8" cx="2054" cy="-961" r="3"/>
<circle class="st8" cx="2054" cy="-928" r="3"/>
<circle class="st8" cx="2054" cy="-898" r="3"/>
<text transform="matrix(1 0 0 1 2061 -815)"><tspan x="0" y="0" style="font-family:'Roboto-Bold'; font-size:15px;">Introducción a la programación </tspan><tspan x="214" y="0" style="font-family:'Roboto-BoldItalic'; font-size:15px;">frontend</tspan></text>
<text transform="matrix(1 0 0 1 2061 -781)"><tspan x="0" y="0" style="font-family:'Roboto-Bold'; font-size:15px;">Programación </tspan><tspan x="98.6" y="0" style="font-family:'Roboto-BoldItalic'; font-size:15px;">frontend</tspan></text>
<text transform="matrix(1 0 0 1 2061 -747)"><tspan x="0" y="0" style="font-family:'Roboto-Bold'; font-size:15px;">Programación </tspan><tspan x="98.6" y="0" style="font-family:'Roboto-BoldItalic'; font-size:15px;">backend</tspan></text>
<text transform="matrix(1 0 0 1 2061 -713)"><tspan x="0" y="0" style="font-family:'Roboto-Bold'; font-size:15px;">Conocimientos técnicos </tspan><tspan x="166.1" y="0" style="font-family:'Roboto-BoldItalic'; font-size:15px;">web</tspan></text>
<text transform="matrix(1 0 0 1 2039 -641)"><tspan x="0" y="0" class="st2" style="font-family:'Roboto-Bold'; font-size:18px;">1. Introducción a la programación </tspan><tspan x="276.8" y="0" class="st2" style="font-family:'Roboto-BoldItalic'; font-size:18px;">frontend</tspan></text>
<rect x="2525" y="-460" class="st9" width="511" height="217"/>
<rect x="2550" y="-401" style="fill-rule:evenodd;clip-rule:evenodd;fill:none;" width="458" height="158"/>
<text transform="matrix(0.9485 0 0 1 2550 -389.8965)"><tspan x="0" y="0" style="font-family:'AppleGaramond'; font-size:16px;">4.1. Básicos de HTTP; FTP y SMTP</tspan><tspan x="0" y="31" style="font-family:'AppleGaramond'; font-size:16px;">4.2. Información del servidor</tspan><tspan x="0" y="62" style="font-family:'AppleGaramond'; font-size:16px;">4.3. Dominio</tspan><tspan x="0" y="93" style="font-family:'AppleGaramond'; font-size:16px;">4.4. Manejo de niveles en certificados de seguridad (SSL)</tspan><tspan x="0" y="124" style="font-family:'AppleGaramond'; font-size:16px;">4.5. Manteniendo el estado</tspan></text>
<text transform="matrix(1 0 0 1 2550 -424)"><tspan x="0" y="0" style="font-family:'Roboto-Bold'; font-size:18px;">4. Introducción a la programación </tspan><tspan x="276.8" y="0" style="font-family:'Roboto-BoldItalic'; font-size:18px;">frontend</tspan></text>
<rect x="2014" y="-460" class="st10" width="511" height="217"/>
<rect x="2039" y="-401" style="fill-rule:evenodd;clip-rule:evenodd;fill:none;" width="458" height="158"/>
<text transform="matrix(0.9485 0 0 1 2039 -389.8965)"><tspan x="0" y="0" style="font-family:'AppleGaramond'; font-size:16px;">3.1. Introducción al PHP</tspan><tspan x="0" y="31" style="font-family:'AppleGaramond'; font-size:16px;">3.2. Elementos básicos del lenguaje</tspan><tspan x="0" y="62" style="font-family:'AppleGaramond'; font-size:16px;">3.3. Incrustando código PHP en un HTML</tspan><tspan x="0" y="93" style="font-family:'AppleGaramond'; font-size:16px;">3.4. Frameworks de implementación de PHP</tspan><tspan x="0" y="124" style="font-family:'AppleGaramond'; font-size:16px;">3.5. Manejo de gestores de contenido CMS</tspan></text>
<text transform="matrix(1 0 0 1 2039 -424)"><tspan x="0" y="0" style="font-family:'Roboto-Bold'; font-size:18px;">3. Programación </tspan><tspan x="138.3" y="0" style="font-family:'Roboto-BoldItalic'; font-size:18px;">backend</tspan></text>
<rect x="2525" y="-676" class="st3" width="511" height="216"/>
<rect x="2550" y="-617" style="fill-rule:evenodd;clip-rule:evenodd;fill:none;" width="458" height="99"/>
<text transform="matrix(0.9485 0 0 1 2550 -605.8965)"><tspan x="0" y="0" style="font-family:'AppleGaramond'; font-size:16px;">2.1. Tipos de datos en los lenguajes de programación </tspan><tspan x="0" y="31" style="font-family:'AppleGaramond'; font-size:16px;">2.2. Operaciones básicas de la programación</tspan><tspan x="0" y="62" style="font-family:'AppleGaramond'; font-size:16px;">2.3. Javascript: Frameworks de animación</tspan></text>
<text transform="matrix(1 0 0 1 2550 -640)"><tspan x="0" y="0" style="font-family:'Roboto-Bold'; font-size:18px;">2. Programación </tspan><tspan x="138.3" y="0" style="font-family:'Roboto-BoldItalic'; font-size:18px;">frontend</tspan></text>
<line class="st11" x1="2039" y1="-860" x2="2956" y2="-860"/>
<polygon class="st12" points="2052,-819.3 2039.3,-826.7 2039.3,-812 "/>
<polygon class="st12" points="2052,-786.3 2039.3,-793.7 2039.3,-779 "/>
<polygon class="st12" points="2052,-752.3 2039.3,-759.7 2039.3,-745 "/>
<polygon class="st12" points="2052,-718.3 2039.3,-725.7 2039.3,-711 "/>
<g>
	<g id="post-linkedin_1_">
		<path class="st0" d="M2115-1236h-16c-1.1,0-2,0.9-2,2v16c0,1.1,0.9,2,2,2h16c1.1,0,2-0.9,2-2v-16
			C2117-1235.1,2116.1-1236,2115-1236z M2103-1219h-3v-9h3V-1219z M2101.5-1229.7c-1,0-1.8-0.8-1.8-1.8s0.8-1.8,1.8-1.8
			s1.8,0.8,1.8,1.8S2102.5-1229.7,2101.5-1229.7z M2114-1219h-3v-5.3c0-0.8-0.7-1.5-1.5-1.5s-1.5,0.7-1.5,1.5v5.3h-3v-9h3v1.2
			c0.5-0.8,1.6-1.4,2.5-1.4c1.9,0,3.5,1.6,3.5,3.5V-1219z"/>
	</g>
</g>
<text transform="matrix(1 0 0 1 2029.9902 -1274)" class="st2" style="font-family:'Roboto-Bold'; font-size:18px;">DGC. Oscar Tello</text>
<rect x="4502" y="-1364" class="st0" width="378" height="98"/>
<rect x="4502" y="589" class="st0" width="378" height="19"/>
<g>
	<path class="st1" d="M4537.9-1338c0,1.4-0.3,2.7-0.8,3.7c-0.5,1-1.2,1.8-2.1,2.5c-0.9,0.6-1.9,1.1-3.1,1.4
		c-1.2,0.3-2.4,0.4-3.8,0.4v5h-6.7v-21h6.7c1.3,0,2.6,0.1,3.8,0.4c1.2,0.3,2.2,0.8,3.1,1.4c0.9,0.6,1.6,1.5,2.1,2.5
		C4537.6-1340.7,4537.9-1339.4,4537.9-1338z M4534.8-1338c0-0.9-0.2-1.8-0.5-2.5c-0.3-0.7-0.8-1.3-1.4-1.7c-0.6-0.4-1.3-0.8-2.1-1
		c-0.8-0.2-1.7-0.3-2.6-0.3h-3.6v16h0.8v-5h2.7c0.9,0,1.8-0.1,2.6-0.3c0.8-0.2,1.5-0.6,2.1-1c0.6-0.4,1-1,1.4-1.7
		C4534.6-1336.2,4534.8-1337,4534.8-1338z M4533.9-1338c0,0.9-0.2,1.7-0.5,2.3c-0.3,0.6-0.7,1.1-1.3,1.4c-0.5,0.4-1.1,0.6-1.8,0.8
		c-0.7,0.2-1.4,0.2-2.2,0.2h-2.7v-9.4h2.7c0.8,0,1.5,0.1,2.2,0.2c0.7,0.2,1.3,0.4,1.8,0.8c0.5,0.4,0.9,0.8,1.3,1.4
		C4533.8-1339.6,4533.9-1338.9,4533.9-1338z M4528.2-1335.7h0.3c0.9,0,1.5-0.2,1.9-0.6c0.4-0.4,0.6-1,0.6-1.7s-0.2-1.3-0.6-1.7
		c-0.4-0.4-1-0.6-1.9-0.6h-0.3V-1335.7z"/>
	<path class="st1" d="M4539.4-1346h7.2c1.3,0,2.6,0.2,3.7,0.5c1.1,0.4,2.1,0.9,3,1.6c0.8,0.7,1.5,1.5,2,2.6c0.5,1,0.7,2.2,0.7,3.5
		c0,1.1-0.1,1.9-0.4,2.7s-0.6,1.3-1,1.8c-0.4,0.5-0.9,1-1.4,1.4l3.9,6.9h-7.9l-3.1-5.3v5.3h-6.7V-1346z M4546-1332.3
		c0.8,0,1.6-0.1,2.4-0.3l3,5h1l-3.1-5.3c1.1-0.4,2-1,2.7-1.8c0.7-0.8,1-1.9,1-3.2c0-0.9-0.2-1.7-0.5-2.4c-0.4-0.7-0.8-1.3-1.5-1.7
		c-0.6-0.5-1.3-0.8-2.2-1.1c-0.8-0.2-1.8-0.4-2.7-0.4h-3.4v16h0.8v-4.8H4546z M4543.4-1333v-9.7h2.6c1.9,0,3.4,0.4,4.5,1.3
		c1.1,0.8,1.6,2,1.6,3.6c0,1.6-0.5,2.7-1.6,3.6c-1.1,0.8-2.6,1.2-4.5,1.2H4543.4z M4546.1-1335.7h0.3c0.8,0,1.5-0.2,2-0.5
		c0.6-0.4,0.8-1,0.8-1.8s-0.3-1.4-0.8-1.8c-0.6-0.4-1.2-0.5-2-0.5h-0.3V-1335.7z"/>
	<path class="st1" d="M4557.3-1335.5c0-1.5,0.3-2.9,0.9-4.3c0.6-1.3,1.4-2.5,2.4-3.5c1-1,2.2-1.8,3.5-2.4c1.3-0.6,2.8-0.9,4.3-0.9
		c1.5,0,2.9,0.3,4.3,0.9c1.3,0.6,2.5,1.4,3.5,2.4c1,1,1.8,2.2,2.4,3.5c0.6,1.3,0.9,2.8,0.9,4.3c0,1.5-0.3,2.9-0.9,4.3
		c-0.6,1.3-1.4,2.5-2.4,3.5c-1,1-2.2,1.8-3.5,2.4c-1.3,0.6-2.8,0.9-4.3,0.9c-1.5,0-2.9-0.3-4.3-0.9c-1.3-0.6-2.5-1.4-3.5-2.4
		c-1-1-1.8-2.2-2.4-3.5C4557.6-1332.5,4557.3-1334,4557.3-1335.5z M4560.3-1335.5c0,1.1,0.2,2.2,0.6,3.1c0.4,1,1,1.8,1.7,2.6
		c0.7,0.7,1.6,1.3,2.6,1.7c1,0.4,2,0.6,3.1,0.6c1.1,0,2.2-0.2,3.1-0.6c1-0.4,1.8-1,2.6-1.7c0.7-0.7,1.3-1.6,1.7-2.6
		c0.4-1,0.6-2,0.6-3.1c0-1.1-0.2-2.2-0.6-3.1c-0.4-1-1-1.8-1.7-2.6c-0.7-0.7-1.6-1.3-2.6-1.7c-1-0.4-2-0.6-3.1-0.6
		c-1.1,0-2.2,0.2-3.1,0.6c-1,0.4-1.8,1-2.6,1.7c-0.7,0.7-1.3,1.6-1.7,2.6C4560.5-1337.6,4560.3-1336.6,4560.3-1335.5z
		 M4568.4-1328.2c-1,0-1.9-0.2-2.8-0.6c-0.9-0.4-1.6-0.9-2.3-1.6c-0.7-0.7-1.2-1.4-1.6-2.3c-0.4-0.9-0.6-1.8-0.6-2.8
		c0-1,0.2-1.9,0.6-2.8c0.4-0.9,0.9-1.6,1.6-2.3c0.7-0.7,1.4-1.2,2.3-1.6c0.9-0.4,1.8-0.6,2.8-0.6s1.9,0.2,2.8,0.6s1.6,0.9,2.3,1.6
		c0.7,0.7,1.2,1.4,1.6,2.3c0.4,0.9,0.6,1.8,0.6,2.8c0,1-0.2,1.9-0.6,2.8c-0.4,0.9-0.9,1.6-1.6,2.3c-0.7,0.7-1.4,1.2-2.3,1.6
		C4570.3-1328.4,4569.4-1328.2,4568.4-1328.2z M4563.9-1335.5c0,0.6,0.1,1.2,0.3,1.7c0.2,0.5,0.5,1,0.9,1.4c0.4,0.4,0.9,0.7,1.4,0.9
		c0.5,0.2,1.1,0.3,1.7,0.3c0.6,0,1.2-0.1,1.7-0.3c0.5-0.2,1-0.5,1.4-0.9c0.4-0.4,0.7-0.9,0.9-1.4c0.2-0.5,0.3-1.1,0.3-1.7
		s-0.1-1.2-0.3-1.7c-0.2-0.5-0.5-1-0.9-1.4c-0.4-0.4-0.9-0.7-1.4-0.9c-0.5-0.2-1.1-0.3-1.7-0.3c-0.6,0-1.2,0.1-1.7,0.3
		c-0.5,0.2-1,0.5-1.4,0.9c-0.4,0.4-0.7,0.9-0.9,1.4C4564.1-1336.6,4563.9-1336.1,4563.9-1335.5z"/>
	<path class="st1" d="M4594.5-1338.8c-0.4-0.3-0.9-0.6-1.4-0.8c-0.6-0.2-1.1-0.3-1.7-0.3c-0.6,0-1.2,0.1-1.7,0.3
		c-0.5,0.2-0.9,0.5-1.3,0.9c-0.4,0.4-0.7,0.9-0.9,1.4c-0.2,0.5-0.3,1.1-0.3,1.8c0,0.6,0.1,1.2,0.3,1.8c0.2,0.5,0.5,1,0.9,1.4
		c0.4,0.4,0.9,0.7,1.4,0.9c0.5,0.2,1.1,0.3,1.7,0.3c0.7,0,1.4-0.2,2-0.5s1.1-0.7,1.5-1.2h-1.9v-4.4h8.1v7c-0.5,0.9-1.1,1.6-1.7,2.3
		c-0.7,0.7-1.4,1.3-2.3,1.8c-0.8,0.5-1.7,0.9-2.7,1.2c-1,0.3-2,0.4-3,0.4c-1.5,0-2.9-0.3-4.3-0.9c-1.3-0.6-2.5-1.3-3.5-2.3
		c-1-1-1.8-2.2-2.4-3.5c-0.6-1.3-0.9-2.8-0.9-4.3c0-1.5,0.3-2.9,0.8-4.3c0.5-1.3,1.3-2.5,2.3-3.5c1-1,2.1-1.8,3.4-2.4
		c1.3-0.6,2.7-0.9,4.2-0.9c1.2,0,2.2,0.1,3.1,0.3c0.9,0.2,1.6,0.5,2.2,0.8c0.7,0.3,1.3,0.7,1.7,1.1L4594.5-1338.8z M4594.8-1342.9
		c-0.3-0.1-0.6-0.2-0.9-0.3c-0.3-0.1-0.6-0.2-1-0.2c-0.4-0.1-0.8-0.1-1.3-0.1c-1.1,0-2.2,0.2-3.1,0.6c-1,0.4-1.8,1-2.5,1.7
		c-0.7,0.7-1.3,1.5-1.7,2.5c-0.4,1-0.6,2.1-0.6,3.3c0,1.2,0.2,2.3,0.6,3.3c0.4,1,1,1.8,1.7,2.5c0.7,0.7,1.6,1.3,2.6,1.7
		c1,0.4,2,0.6,3.1,0.6c1.4,0,2.8-0.3,3.9-1c1.2-0.7,2.1-1.6,2.9-2.7v-4.1h-3.3v0.8h2.5v3.1c-0.7,1-1.5,1.7-2.5,2.3
		c-1,0.6-2.2,0.9-3.4,0.9c-1,0-1.9-0.2-2.8-0.5c-0.9-0.3-1.6-0.8-2.3-1.5c-0.7-0.6-1.2-1.4-1.6-2.3c-0.4-0.9-0.6-1.9-0.6-2.9
		s0.2-2.1,0.6-2.9c0.4-0.9,0.9-1.7,1.5-2.3c0.6-0.6,1.4-1.1,2.3-1.5c0.9-0.3,1.8-0.5,2.8-0.5c0.4,0,0.7,0,1.1,0.1
		c0.3,0.1,0.6,0.1,0.9,0.2c0.3,0.1,0.6,0.2,0.8,0.3L4594.8-1342.9z"/>
	<path class="st1" d="M4603.1-1346h7.2c1.3,0,2.6,0.2,3.7,0.5c1.1,0.4,2.1,0.9,3,1.6c0.8,0.7,1.5,1.5,2,2.6c0.5,1,0.7,2.2,0.7,3.5
		c0,1.1-0.1,1.9-0.4,2.7c-0.3,0.7-0.6,1.3-1,1.8c-0.4,0.5-0.9,1-1.4,1.4l3.9,6.9h-7.9l-3.1-5.3v5.3h-6.7V-1346z M4609.6-1332.3
		c0.8,0,1.6-0.1,2.4-0.3l3,5h1l-3.1-5.3c1.1-0.4,2-1,2.7-1.8c0.7-0.8,1-1.9,1-3.2c0-0.9-0.2-1.7-0.5-2.4c-0.4-0.7-0.8-1.3-1.5-1.7
		c-0.6-0.5-1.3-0.8-2.2-1.1c-0.8-0.2-1.8-0.4-2.7-0.4h-3.4v16h0.8v-4.8H4609.6z M4607-1333v-9.7h2.6c1.9,0,3.4,0.4,4.5,1.3
		c1.1,0.8,1.6,2,1.6,3.6c0,1.6-0.5,2.7-1.6,3.6c-1.1,0.8-2.6,1.2-4.5,1.2H4607z M4609.8-1335.7h0.3c0.8,0,1.5-0.2,2-0.5
		c0.6-0.4,0.8-1,0.8-1.8s-0.3-1.4-0.8-1.8c-0.6-0.4-1.2-0.5-2-0.5h-0.3V-1335.7z"/>
	<path class="st1" d="M4627.7-1346h5l8,21h-6.6l-0.7-1.9h-6.4l-0.7,1.9h-6.6L4627.7-1346z M4624.4-1327.5l0.6-1.6h10.4l0.6,1.6h0.9
		l-6.1-16h-1.2l-6.1,16H4624.4z M4630.2-1342.7l4.9,12.9h-9.8L4630.2-1342.7z M4631.6-1331.5l-1.4-3.7l-1.4,3.7H4631.6z"/>
	<path class="st1" d="M4641.1-1346h5.5l5.5,8.1l5.4-8.1h5.5v21h-6.7v-7.6l-4.3,6.3l-4.3-6.3v7.6h-6.7V-1346z M4645.1-1327.5v-14.5
		l7.1,10.3l7-10.3v14.5h0.8v-16h-0.8l-7,10.4l-7.1-10.4h-0.8v16H4645.1z"/>
	<path class="st1" d="M4671.6-1346h5l8,21h-6.6l-0.7-1.9h-6.4l-0.7,1.9h-6.6L4671.6-1346z M4668.3-1327.5l0.6-1.6h10.4l0.6,1.6h0.9
		l-6.1-16h-1.2l-6.1,16H4668.3z M4674.1-1342.7l4.9,12.9h-9.8L4674.1-1342.7z M4675.5-1331.5l-1.4-3.7l-1.4,3.7H4675.5z"/>
	<path class="st1" d="M4684.6-1335.5c0-1.7,0.3-3.2,0.9-4.6c0.6-1.4,1.4-2.5,2.4-3.5c1-1,2.2-1.7,3.5-2.2c1.3-0.5,2.8-0.8,4.3-0.8
		c1.2,0,2.3,0.1,3.2,0.3c0.9,0.2,1.7,0.5,2.4,0.8c0.8,0.3,1.4,0.7,2,1.1l-3.3,5.8c-0.3-0.3-0.7-0.5-1.1-0.7
		c-0.4-0.2-0.8-0.3-1.3-0.5c-0.5-0.2-1.1-0.2-1.7-0.2c-0.7,0-1.2,0.1-1.8,0.3c-0.5,0.2-1,0.5-1.4,0.9c-0.4,0.4-0.7,0.9-1,1.4
		c-0.2,0.5-0.3,1.1-0.3,1.7s0.1,1.2,0.4,1.7c0.2,0.5,0.6,1,1,1.4c0.4,0.4,0.9,0.7,1.5,0.9c0.6,0.2,1.2,0.3,1.9,0.3
		c0.7,0,1.3-0.1,1.8-0.3c0.5-0.2,1-0.4,1.3-0.6c0.4-0.2,0.8-0.5,1.1-0.8l3.3,5.8c-0.6,0.5-1.2,0.9-2,1.2c-0.7,0.3-1.5,0.6-2.4,0.8
		c-0.9,0.3-2,0.4-3.2,0.4c-1.6,0-3.1-0.3-4.5-0.8c-1.4-0.5-2.6-1.3-3.6-2.3c-1-1-1.8-2.1-2.4-3.5
		C4684.9-1332.3,4684.6-1333.8,4684.6-1335.5z M4688.6-1335.5c0-1,0.2-2,0.5-2.8c0.3-0.9,0.8-1.6,1.5-2.3c0.6-0.7,1.4-1.2,2.3-1.5
		s1.9-0.6,3-0.6c0.5,0,1,0,1.5,0.1c0.4,0.1,0.8,0.2,1.1,0.3c0.4,0.1,0.7,0.2,0.9,0.4l0.4-0.8c-0.3-0.1-0.7-0.3-1.1-0.4
		c-0.4-0.1-0.8-0.2-1.2-0.3c-0.5-0.1-1-0.1-1.6-0.1c-1.1,0-2.1,0.2-3.1,0.6c-1,0.4-1.8,0.9-2.6,1.6c-0.7,0.7-1.3,1.6-1.8,2.6
		c-0.5,1-0.7,2.1-0.7,3.3c0,1.2,0.2,2.4,0.6,3.3c0.4,1,1,1.8,1.8,2.5c0.8,0.7,1.6,1.2,2.6,1.6c1,0.4,2.1,0.6,3.2,0.6
		c0.6,0,1.2-0.1,1.7-0.2c0.5-0.1,0.9-0.2,1.3-0.3c0.4-0.1,0.8-0.3,1.1-0.5l-0.4-0.8c-0.3,0.2-0.6,0.3-0.9,0.5
		c-0.3,0.1-0.7,0.2-1.1,0.3c-0.4,0.1-1,0.1-1.5,0.1c-1.2,0-2.2-0.2-3.1-0.6c-0.9-0.4-1.7-0.9-2.3-1.5c-0.6-0.7-1.1-1.4-1.5-2.3
		C4688.7-1333.5,4688.6-1334.5,4688.6-1335.5z"/>
	<path class="st1" d="M4704.4-1346h7.1v21h-7.1V-1346z M4708.4-1327.5v-16h-0.8v16H4708.4z"/>
	<path class="st1" d="M4713.3-1335.5c0-1.5,0.3-2.9,0.9-4.3c0.6-1.3,1.4-2.5,2.4-3.5c1-1,2.2-1.8,3.5-2.4c1.3-0.6,2.8-0.9,4.3-0.9
		c1.5,0,2.9,0.3,4.3,0.9c1.3,0.6,2.5,1.4,3.5,2.4c1,1,1.8,2.2,2.4,3.5s0.9,2.8,0.9,4.3c0,1.5-0.3,2.9-0.9,4.3
		c-0.6,1.3-1.4,2.5-2.4,3.5c-1,1-2.2,1.8-3.5,2.4c-1.3,0.6-2.8,0.9-4.3,0.9c-1.5,0-2.9-0.3-4.3-0.9c-1.3-0.6-2.5-1.4-3.5-2.4
		c-1-1-1.8-2.2-2.4-3.5C4713.5-1332.5,4713.3-1334,4713.3-1335.5z M4716.2-1335.5c0,1.1,0.2,2.2,0.6,3.1c0.4,1,1,1.8,1.7,2.6
		c0.7,0.7,1.6,1.3,2.6,1.7c1,0.4,2,0.6,3.1,0.6c1.1,0,2.2-0.2,3.1-0.6c1-0.4,1.8-1,2.6-1.7c0.7-0.7,1.3-1.6,1.7-2.6
		c0.4-1,0.6-2,0.6-3.1c0-1.1-0.2-2.2-0.6-3.1c-0.4-1-1-1.8-1.7-2.6c-0.7-0.7-1.6-1.3-2.6-1.7c-1-0.4-2-0.6-3.1-0.6
		c-1.1,0-2.2,0.2-3.1,0.6c-1,0.4-1.8,1-2.6,1.7c-0.7,0.7-1.3,1.6-1.7,2.6C4716.4-1337.6,4716.2-1336.6,4716.2-1335.5z
		 M4724.3-1328.2c-1,0-1.9-0.2-2.8-0.6c-0.9-0.4-1.6-0.9-2.3-1.6c-0.7-0.7-1.2-1.4-1.6-2.3c-0.4-0.9-0.6-1.8-0.6-2.8
		c0-1,0.2-1.9,0.6-2.8c0.4-0.9,0.9-1.6,1.6-2.3c0.7-0.7,1.4-1.2,2.3-1.6c0.9-0.4,1.8-0.6,2.8-0.6c1,0,1.9,0.2,2.8,0.6
		s1.6,0.9,2.3,1.6c0.7,0.7,1.2,1.4,1.6,2.3c0.4,0.9,0.6,1.8,0.6,2.8c0,1-0.2,1.9-0.6,2.8c-0.4,0.9-0.9,1.6-1.6,2.3
		c-0.7,0.7-1.4,1.2-2.3,1.6C4726.2-1328.4,4725.3-1328.2,4724.3-1328.2z M4719.9-1335.5c0,0.6,0.1,1.2,0.3,1.7
		c0.2,0.5,0.5,1,0.9,1.4c0.4,0.4,0.9,0.7,1.4,0.9c0.5,0.2,1.1,0.3,1.7,0.3c0.6,0,1.2-0.1,1.7-0.3c0.5-0.2,1-0.5,1.4-0.9
		c0.4-0.4,0.7-0.9,0.9-1.4c0.2-0.5,0.3-1.1,0.3-1.7s-0.1-1.2-0.3-1.7c-0.2-0.5-0.5-1-0.9-1.4c-0.4-0.4-0.9-0.7-1.4-0.9
		c-0.5-0.2-1.1-0.3-1.7-0.3c-0.6,0-1.2,0.1-1.7,0.3c-0.5,0.2-1,0.5-1.4,0.9c-0.4,0.4-0.7,0.9-0.9,1.4
		C4720-1336.6,4719.9-1336.1,4719.9-1335.5z M4725.7-1347.2h-3.5l2.6-4.9h4.2L4725.7-1347.2z M4724.3-1348.5h0.7l1.5-2.4h-0.9
		L4724.3-1348.5z"/>
	<path class="st1" d="M4737-1346h5.5l5.8,8.1v-8.1h6.6v21h-5.5l-5.8-8.1v8.1h-6.6V-1346z M4740.8-1327.5v-14.6l10.4,14.6h0.8v-16
		h-0.8v14.6l-10.4-14.6h-0.8v16H4740.8z"/>
	<path class="st2" d="M4761.7-1346h7.1l2.4,7.3l2.4-7.3h4.6l2.4,7.3l2.4-7.3h7.1l-6.9,21h-5.2l-2.1-6.4l-2.1,6.4h-5.2L4761.7-1346z
		 M4771.8-1327.5l4.2-13.2l4.2,13.2h0.8l5.3-16h-0.9l-4.8,14.5l-4.6-14.5l-4.6,14.5l-4.8-14.5h-0.9l5.3,16H4771.8z"/>
	<path class="st2" d="M4790.7-1346h12.4v5.5h-5.7v2.3h5.6v5.2h-5.6v2.4h5.9v5.5h-12.6V-1346z M4801-1327.5v-0.8h-6.3v-6.9h6v-0.8h-6
		v-6.8h6.3v-0.8h-7.1v16H4801z"/>
	<path class="st2" d="M4805.2-1346h8.2c1,0,2,0.1,2.9,0.4c0.9,0.2,1.6,0.6,2.2,1.1c0.6,0.5,1.1,1.1,1.4,1.8c0.3,0.7,0.5,1.5,0.5,2.5
		c0,0.7-0.1,1.2-0.3,1.7c-0.2,0.5-0.3,0.9-0.5,1.2c-0.2,0.4-0.5,0.7-0.8,0.9c0.5,0.3,0.9,0.7,1.3,1.1c0.3,0.4,0.6,0.9,0.9,1.5
		c0.3,0.6,0.4,1.4,0.4,2.2c0,1-0.2,1.9-0.5,2.7c-0.4,0.8-0.9,1.5-1.5,2.1c-0.7,0.6-1.5,1-2.4,1.3c-1,0.3-2,0.5-3.2,0.5h-8.6V-1346z
		 M4812.9-1327.5c1.8,0,3.2-0.4,4.1-1.2c0.9-0.8,1.3-1.9,1.3-3.2c0-0.9-0.2-1.5-0.6-2.1c-0.4-0.5-0.8-0.9-1.2-1.2
		c-0.5-0.3-1.1-0.6-1.7-0.7c0.5-0.1,1-0.4,1.4-0.7c0.4-0.3,0.7-0.6,1-1.1c0.3-0.5,0.4-1.1,0.4-1.8c0-1.3-0.4-2.3-1.3-3
		c-0.8-0.7-2-1-3.4-1h-4.5v16H4812.9z M4809.1-1336.2v-6.5h3.7c1.4,0,2.3,0.3,2.9,0.9c0.6,0.6,0.9,1.4,0.9,2.3c0,1-0.3,1.7-0.9,2.3
		c-0.6,0.6-1.6,0.9-2.9,0.9H4809.1z M4809.1-1328.3v-7.2h3.7c0.7,0,1.3,0.1,1.8,0.2c0.6,0.1,1,0.3,1.5,0.6c0.4,0.3,0.8,0.7,1,1.1
		c0.2,0.5,0.4,1,0.4,1.6c0,1.3-0.4,2.2-1.3,2.8c-0.9,0.6-2,0.9-3.4,0.9H4809.1z M4814-1339.6c0-1-0.5-1.4-1.6-1.4h-0.8v2.9h0.8
		C4813.5-1338.1,4814-1338.6,4814-1339.6z M4812.4-1329.9c1.6,0,2.4-0.6,2.4-1.8s-0.8-1.8-2.4-1.8h-0.8v3.7H4812.4z"/>
</g>
<rect x="4502" y="-1219" class="st3" width="378" height="34"/>
<rect x="4502" y="-1185" class="st4" width="378" height="658"/>
<rect x="4502" y="-527" class="st5" width="378" height="217"/>
<text transform="matrix(1 0 0 1 4515 -1195)" style="font-family:'Roboto-BoldCondensed'; font-size:18px;">DESCRIPCIÓN DEL CURSO</text>
<rect x="4534.1" y="-1062" style="fill-rule:evenodd;clip-rule:evenodd;fill:none;" width="328.9" height="349"/>
<text transform="matrix(0.9485 0 0 1 4534.0723 -1050.8965)"><tspan x="0" y="0" style="font-family:'AppleGaramond'; font-size:16px;">Conoce la diversidad de frameworks y herramientas en línea </tspan><tspan x="0" y="31" style="font-family:'AppleGaramond'; font-size:16px;">utilizadas en los procesos de diseño web.</tspan><tspan x="0" y="62" style="font-family:'AppleGaramond'; font-size:16px;">Comprende la diferencia entre maquetación y programación </tspan><tspan x="0" y="93" style="font-family:'AppleGaramond'; font-size:16px;">backend y frontend.</tspan><tspan x="0" y="124" style="font-family:'AppleGaramond'; font-size:16px;">Aplica los principales lenguajes de maquetación y </tspan><tspan x="0" y="155" style="font-family:'AppleGaramond'; font-size:16px;">programación: HTML; CSS; Javascript y PHP; así como los </tspan><tspan x="0" y="186" style="font-family:'AppleGaramond'; font-size:16px;">protocolos de informática para su publicación en línea.</tspan><tspan x="0" y="217" style="font-family:'AppleGaramond'; font-size:16px;">Analiza y evalúa las necesidades de cada uno de los </tspan><tspan x="0" y="248" style="font-family:'AppleGaramond'; font-size:16px;">proyectos para aplicar lo comprendido en la asignatura.</tspan><tspan x="0" y="279" style="font-family:'AppleGaramond'; font-size:16px;">Crea sitios funcionales capaces de resolver requerimientos </tspan><tspan x="0" y="310" style="font-family:'AppleGaramond'; font-size:16px;">propios del ambiente web.</tspan></text>
<rect x="4517" y="-468" style="fill-rule:evenodd;clip-rule:evenodd;fill:none;" width="346" height="158"/>
<text transform="matrix(0.9485 0 0 1 4517 -456.8965)"><tspan x="0" y="0" class="st2" style="font-family:'AppleGaramond'; font-size:16px;">1.1. HTML no es un lenguaje de programación </tspan><tspan x="0" y="31" class="st2" style="font-family:'AppleGaramond'; font-size:16px;">1.2. CSS: Sintaxis y estructura</tspan><tspan x="0" y="62" class="st2" style="font-family:'AppleGaramond'; font-size:16px;">1.3. Integración de HTML y CSS</tspan><tspan x="0" y="93" class="st2" style="font-family:'AppleGaramond'; font-size:16px;">1.4. Frameworks de maquetación</tspan><tspan x="0" y="124" class="st2" style="font-family:'AppleGaramond'; font-size:16px;">1.5. Comparativa y uso de frameworks</tspan></text>
<rect x="4515" y="-1157" style="fill-rule:evenodd;clip-rule:evenodd;fill:none;" width="335" height="20"/>
<text transform="matrix(1 0 0 1 4515 -1140.2422)" style="font-family:'Roboto-Black'; font-size:22px;">Planeación de la asignatura</text>
<rect x="4515" y="-1126" style="fill-rule:evenodd;clip-rule:evenodd;fill:none;" width="348" height="43"/>
<text transform="matrix(1 0 0 1 4515 -1112.2891)"><tspan x="0" y="0" style="font-family:'Roboto-Bold'; font-size:18px;">Resultados de aprendizaje de la asignatura </tspan><tspan x="0" y="21.6" style="font-family:'Roboto-Bold'; font-size:18px;">del alumno:</tspan></text>
<g>
	<rect x="4502.9" y="329.5" class="st6" width="376.3" height="135.5"/>
	<path class="st1" d="M4878.6,330v134.5h-375.3V330H4878.6 M4879.6,329h-377.3v136.5h377.3V329L4879.6,329z"/>
</g>
<rect x="4502.4" y="281" class="st3" width="377.3" height="48"/>
<rect x="4550.5" y="394" style="fill-rule:evenodd;clip-rule:evenodd;fill:none;" width="281" height="65"/>
<text transform="matrix(0.9485 0 0 1 4608.9561 405.1035)"><tspan x="0" y="0" style="font-family:'AppleGaramond'; font-size:16px;">Miércoles: 19:00 a 22:00 horas</tspan><tspan x="9.1" y="31" style="font-family:'AppleGaramond'; font-size:16px;">Jueves: 11:30 a 13:00 horas</tspan></text>
<g>
	<rect x="4564.5" y="299" style="fill:none;" width="253" height="20"/>
	<text transform="matrix(1 0 0 1 4646.8657 312.7109)" style="font-family:'Roboto-Bold'; font-size:18px;">HORARIOS</text>
</g>
<rect x="4550.5" y="340" style="fill-rule:evenodd;clip-rule:evenodd;fill:none;" width="281" height="43"/>
<text transform="matrix(1 0 0 1 4571.3721 353.7109)"><tspan x="0" y="0" style="font-family:'Roboto-Bold'; font-size:18px;">Inicio de clases: 10 de agosto</tspan><tspan x="-0.1" y="21.6" style="font-family:'Roboto-Bold'; font-size:18px;">Fin de clases: 12de diciembre</tspan></text>
<g>
	<rect x="4502.7" y="524.5" class="st6" width="376.6" height="64.5"/>
	<path class="st7" d="M4878.8,525v63.5h-375.6V525H4878.8 M4879.8,524h-377.6v65.5h377.6V524L4879.8,524z"/>
</g>
<rect x="4502.2" y="476" class="st5" width="377.6" height="48"/>
<g>
	<rect x="4564.5" y="494" style="fill:none;" width="253" height="20"/>
	<text transform="matrix(1 0 0 1 4644.7607 507.7109)" class="st2" style="font-family:'Roboto-Bold'; font-size:18px;">CONTACTO</text>
</g>
<rect x="4550.5" y="546" style="fill-rule:evenodd;clip-rule:evenodd;fill:none;" width="281" height="32"/>
<text transform="matrix(1 0 0 1 4609.7979 559.7109)" style="font-family:'Roboto-Bold'; font-size:18px;">oscar@webxsp.com</text>
<circle class="st8" cx="4524" cy="-1056" r="3"/>
<circle class="st8" cx="4524" cy="-839" r="3"/>
<circle class="st8" cx="4524" cy="-994" r="3"/>
<circle class="st8" cx="4524" cy="-777" r="3"/>
<circle class="st8" cx="4524" cy="-932" r="3"/>
<text transform="matrix(1 0 0 1 4549 -666)"><tspan x="0" y="0" style="font-family:'Roboto-Bold'; font-size:15px;">Introducción a la programación </tspan><tspan x="214" y="0" style="font-family:'Roboto-BoldItalic'; font-size:15px;">frontend</tspan></text>
<text transform="matrix(1 0 0 1 4549 -632)"><tspan x="0" y="0" style="font-family:'Roboto-Bold'; font-size:15px;">Programación </tspan><tspan x="98.6" y="0" style="font-family:'Roboto-BoldItalic'; font-size:15px;">frontend</tspan></text>
<text transform="matrix(1 0 0 1 4549 -598)"><tspan x="0" y="0" style="font-family:'Roboto-Bold'; font-size:15px;">Programación </tspan><tspan x="98.6" y="0" style="font-family:'Roboto-BoldItalic'; font-size:15px;">backend</tspan></text>
<text transform="matrix(1 0 0 1 4549 -564)"><tspan x="0" y="0" style="font-family:'Roboto-Bold'; font-size:15px;">Conocimientos técnicos </tspan><tspan x="166.1" y="0" style="font-family:'Roboto-BoldItalic'; font-size:15px;">web</tspan></text>
<text transform="matrix(1 0 0 1 4517 -491)"><tspan x="0" y="0" class="st2" style="font-family:'Roboto-Bold'; font-size:18px;">1. Introducción a la programación </tspan><tspan x="276.8" y="0" class="st2" style="font-family:'Roboto-BoldItalic'; font-size:18px;">frontend</tspan></text>
<rect x="4502" y="63" class="st9" width="378" height="217"/>
<rect x="4517" y="122" style="fill-rule:evenodd;clip-rule:evenodd;fill:none;" width="346" height="158"/>
<text transform="matrix(0.9485 0 0 1 4517 133.1035)"><tspan x="0" y="0" style="font-family:'AppleGaramond'; font-size:16px;">4.1. Básicos de HTTP; FTP y SMTP</tspan><tspan x="0" y="31" style="font-family:'AppleGaramond'; font-size:16px;">4.2. Información del servidor</tspan><tspan x="0" y="62" style="font-family:'AppleGaramond'; font-size:16px;">4.3. Dominio</tspan><tspan x="0" y="93" style="font-family:'AppleGaramond'; font-size:16px;">4.4. Manejo de niveles en certificados de seguridad (SSL)</tspan><tspan x="0" y="124" style="font-family:'AppleGaramond'; font-size:16px;">4.5. Manteniendo el estado</tspan></text>
<text transform="matrix(1 0 0 1 4517 99)"><tspan x="0" y="0" style="font-family:'Roboto-Bold'; font-size:18px;">4. Introducción a la programación </tspan><tspan x="276.8" y="0" style="font-family:'Roboto-BoldItalic'; font-size:18px;">frontend</tspan></text>
<rect x="4502" y="-310" class="st10" width="378" height="217"/>
<rect x="4517" y="-251" style="fill-rule:evenodd;clip-rule:evenodd;fill:none;" width="346" height="158"/>
<text transform="matrix(0.9485 0 0 1 4517 -239.8965)"><tspan x="0" y="0" style="font-family:'AppleGaramond'; font-size:16px;">3.1. Introducción al PHP</tspan><tspan x="0" y="31" style="font-family:'AppleGaramond'; font-size:16px;">3.2. Elementos básicos del lenguaje</tspan><tspan x="0" y="62" style="font-family:'AppleGaramond'; font-size:16px;">3.3. Incrustando código PHP en un HTML</tspan><tspan x="0" y="93" style="font-family:'AppleGaramond'; font-size:16px;">3.4. Frameworks de implementación de PHP</tspan><tspan x="0" y="124" style="font-family:'AppleGaramond'; font-size:16px;">3.5. Manejo de gestores de contenido CMS</tspan></text>
<text transform="matrix(1 0 0 1 4517 -274)"><tspan x="0" y="0" style="font-family:'Roboto-Bold'; font-size:18px;">3. Programación </tspan><tspan x="138.3" y="0" style="font-family:'Roboto-BoldItalic'; font-size:18px;">backend</tspan></text>
<rect x="4502" y="-93" class="st3" width="378" height="156"/>
<rect x="4517" y="-34" style="fill-rule:evenodd;clip-rule:evenodd;fill:none;" width="346" height="99"/>
<text transform="matrix(0.9485 0 0 1 4517 -22.8965)"><tspan x="0" y="0" style="font-family:'AppleGaramond'; font-size:16px;">2.1. Tipos de datos en los lenguajes de programación </tspan><tspan x="0" y="31" style="font-family:'AppleGaramond'; font-size:16px;">2.2. Operaciones básicas de la programación</tspan><tspan x="0" y="62" style="font-family:'AppleGaramond'; font-size:16px;">2.3. Javascript: Frameworks de animación</tspan></text>
<text transform="matrix(1 0 0 1 4517 -57)"><tspan x="0" y="0" style="font-family:'Roboto-Bold'; font-size:18px;">2. Programación </tspan><tspan x="138.3" y="0" style="font-family:'Roboto-BoldItalic'; font-size:18px;">frontend</tspan></text>
<line class="st11" x1="4524" y1="-711" x2="4863" y2="-711"/>
<polygon class="st12" points="4540,-670.3 4527.3,-677.7 4527.3,-663 "/>
<polygon class="st12" points="4540,-637.3 4527.3,-644.7 4527.3,-630 "/>
<polygon class="st12" points="4540,-603.3 4527.3,-610.7 4527.3,-596 "/>
<polygon class="st12" points="4540,-569.3 4527.3,-576.7 4527.3,-562 "/>
<text transform="matrix(1 0 0 1 4519.9902 -1291)" class="st2" style="font-family:'Roboto-Bold'; font-size:18px;">DGC. Oscar Tello</text>
<g>
	<g id="post-linkedin_2_">
		<path class="st0" d="M-96.2,0h-65.6c-4.5,0-8.2,3.7-8.2,8.2v65.6c0,4.5,3.7,8.2,8.2,8.2h65.6c4.5,0,8.2-3.7,8.2-8.2V8.2
			C-88,3.7-91.7,0-96.2,0z M-145.4,69.7h-12.3V32.8h12.3V69.7z M-151.6,25.8c-4.1,0-7.4-3.3-7.4-7.4s3.3-7.4,7.4-7.4
			c4.1,0,7.4,3.3,7.4,7.4S-147.4,25.8-151.6,25.8z M-100.3,69.7h-12.3V48c0-3.3-2.9-6.2-6.2-6.2s-6.2,2.9-6.2,6.2v21.7h-12.3V32.8
			h12.3v4.9c2.1-3.3,6.6-5.7,10.2-5.7c7.8,0,14.3,6.6,14.3,14.4V69.7z"/>
	</g>
</g>
<g>
	<text transform="matrix(0.9485 0 0 1 420.543 -217.9443)" class="st2" style="font-family:'AppleGaramond-Bold'; font-size:18px;">2020</text>
</g>
<g>
	<text transform="matrix(0.9485 0 0 1 2508.543 91.0557)" class="st2" style="font-family:'AppleGaramond-Bold'; font-size:18px;">2020</text>
</g>
</svg>
