<?xml version="1.0" encoding="utf-8"?>
<!-- Generator: Adobe Illustrator 21.0.0, SVG Export Plug-In . SVG Version: 6.00 Build 0)  -->
<svg version="1.1" id="Capa_1" xmlns="http://www.w3.org/2000/svg" xmlns:xlink="http://www.w3.org/1999/xlink" x="0px" y="0px"
	 viewBox="0 0 82 82" style="enable-background:new 0 0 82 82;" xml:space="preserve">
<style type="text/css">
	.st0{fill:#333333;}
	.st1{fill:#FCD733;}
	.st2{fill:#FFFFFF;}
	.st3{fill-rule:evenodd;clip-rule:evenodd;fill:#FCD733;}
	.st4{fill-rule:evenodd;clip-rule:evenodd;fill:#F2F3F3;}
	.st5{fill-rule:evenodd;clip-rule:evenodd;fill:#666666;}
	.st6{fill-rule:evenodd;clip-rule:evenodd;fill:#FFFFFF;}
	.st7{fill:#666666;}
	.st8{fill-rule:evenodd;clip-rule:evenodd;}
	.st9{fill-rule:evenodd;clip-rule:evenodd;fill:#FDE785;}
	.st10{fill-rule:evenodd;clip-rule:evenodd;fill:#CCCCCC;}
	.st11{fill:none;stroke:#FFFFFF;stroke-width:2;stroke-miterlimit:10;}
	.st12{fill-rule:evenodd;clip-rule:evenodd;fill:#FBB03B;}
</style>
<rect x="-26" y="-1364" class="st0" width="1290" height="110"/>
<rect x="-26" y="-243" class="st0" width="1290" height="39"/>
<g>
	<path class="st1" d="M20.3-1341.9c0,1.7-0.3,3.2-0.9,4.5c-0.6,1.2-1.4,2.2-2.5,3c-1.1,0.8-2.3,1.3-3.7,1.7
		c-1.4,0.4-2.9,0.5-4.5,0.5v6H0.5v-25.3h8.1c1.6,0,3.1,0.2,4.5,0.5c1.4,0.4,2.6,0.9,3.7,1.7c1.1,0.8,1.9,1.8,2.5,3
		C20-1345.2,20.3-1343.7,20.3-1341.9z M16.6-1341.9c0-1.1-0.2-2.1-0.6-3c-0.4-0.8-0.9-1.5-1.7-2.1c-0.7-0.5-1.6-0.9-2.5-1.2
		c-1-0.3-2-0.4-3.2-0.4H4.3v19.3h1v-6h3.3c1.1,0,2.2-0.1,3.2-0.4c1-0.3,1.8-0.7,2.5-1.2c0.7-0.5,1.3-1.2,1.7-2.1
		C16.4-1339.8,16.6-1340.8,16.6-1341.9z M15.5-1341.9c0,1.1-0.2,2-0.6,2.7c-0.4,0.7-0.9,1.3-1.5,1.7c-0.6,0.4-1.4,0.7-2.2,0.9
		c-0.8,0.2-1.7,0.3-2.6,0.3H5.3v-11.4h3.3c0.9,0,1.8,0.1,2.6,0.3s1.6,0.5,2.2,0.9c0.6,0.4,1.1,1,1.5,1.7
		C15.3-1343.9,15.5-1343,15.5-1341.9z M8.6-1339.1H9c1.1,0,1.8-0.2,2.3-0.7c0.5-0.5,0.7-1.2,0.7-2.1s-0.2-1.6-0.7-2.1
		c-0.5-0.5-1.2-0.7-2.3-0.7H8.6V-1339.1z"/>
	<path class="st1" d="M22.2-1351.6h8.7c1.6,0,3.1,0.2,4.5,0.6c1.4,0.4,2.6,1.1,3.6,1.9c1,0.8,1.8,1.9,2.4,3.1
		c0.6,1.2,0.9,2.6,0.9,4.2c0,1.3-0.2,2.3-0.5,3.2c-0.4,0.9-0.7,1.6-1.2,2.2c-0.5,0.7-1.1,1.2-1.7,1.7l4.8,8.4h-9.5l-3.8-6.4v6.4
		h-8.1V-1351.6z M30.1-1335c1,0,2-0.1,2.9-0.3l3.6,6.1h1.2l-3.8-6.4c1.4-0.5,2.5-1.2,3.3-2.2c0.8-1,1.2-2.3,1.2-3.9
		c0-1.1-0.2-2.1-0.6-2.9c-0.4-0.8-1-1.5-1.8-2.1c-0.7-0.6-1.6-1-2.6-1.3c-1-0.3-2.1-0.4-3.3-0.4H26v19.3h1v-5.8H30.1z M27-1336
		v-11.7h3.1c2.3,0,4.1,0.5,5.4,1.5c1.3,1,2,2.5,2,4.3c0,1.9-0.7,3.3-2,4.3c-1.3,1-3.1,1.5-5.4,1.5H27z M30.3-1339.1h0.4
		c1,0,1.8-0.2,2.5-0.6c0.7-0.4,1-1.2,1-2.2s-0.3-1.7-1-2.2c-0.7-0.4-1.5-0.6-2.5-0.6h-0.4V-1339.1z"/>
	<path class="st1" d="M43.7-1338.9c0-1.8,0.3-3.5,1-5.2c0.7-1.6,1.6-3,2.8-4.2c1.2-1.2,2.6-2.2,4.2-2.9c1.6-0.7,3.3-1,5.2-1
		c1.8,0,3.5,0.3,5.2,1c1.6,0.7,3,1.6,4.2,2.9c1.2,1.2,2.2,2.6,2.9,4.2c0.7,1.6,1,3.3,1,5.2c0,1.8-0.3,3.5-1,5.2
		c-0.7,1.6-1.6,3-2.9,4.2c-1.2,1.2-2.6,2.2-4.2,2.9c-1.6,0.7-3.3,1-5.2,1c-1.8,0-3.5-0.3-5.2-1c-1.6-0.7-3-1.6-4.2-2.9
		c-1.2-1.2-2.2-2.6-2.8-4.2C44.1-1335.3,43.7-1337.1,43.7-1338.9z M47.3-1338.9c0,1.3,0.3,2.6,0.8,3.8c0.5,1.2,1.2,2.2,2.1,3.1
		c0.9,0.9,1.9,1.6,3.1,2.1c1.2,0.5,2.4,0.8,3.8,0.8c1.3,0,2.6-0.3,3.8-0.8c1.2-0.5,2.2-1.2,3.1-2.1c0.9-0.9,1.6-1.9,2.1-3.1
		c0.5-1.2,0.8-2.4,0.8-3.8s-0.3-2.6-0.8-3.8c-0.5-1.2-1.2-2.2-2.1-3.1c-0.9-0.9-1.9-1.6-3.1-2.1c-1.2-0.5-2.4-0.8-3.8-0.8
		c-1.3,0-2.6,0.3-3.8,0.8c-1.2,0.5-2.2,1.2-3.1,2.1c-0.9,0.9-1.6,1.9-2.1,3.1C47.6-1341.5,47.3-1340.2,47.3-1338.9z M57-1330.1
		c-1.2,0-2.4-0.2-3.4-0.7c-1.1-0.5-2-1.1-2.8-1.9c-0.8-0.8-1.4-1.7-1.9-2.8c-0.5-1.1-0.7-2.2-0.7-3.4c0-1.2,0.2-2.3,0.7-3.4
		c0.5-1.1,1.1-2,1.9-2.8c0.8-0.8,1.7-1.4,2.8-1.9c1.1-0.5,2.2-0.7,3.4-0.7s2.3,0.2,3.4,0.7c1.1,0.5,2,1.1,2.8,1.9
		c0.8,0.8,1.4,1.7,1.9,2.8c0.5,1.1,0.7,2.2,0.7,3.4c0,1.2-0.2,2.4-0.7,3.4c-0.5,1.1-1.1,2-1.9,2.8c-0.8,0.8-1.7,1.4-2.8,1.9
		C59.4-1330.4,58.3-1330.1,57-1330.1z M51.7-1338.9c0,0.7,0.1,1.4,0.4,2.1c0.3,0.6,0.7,1.2,1.1,1.7c0.5,0.5,1,0.9,1.7,1.1
		c0.6,0.3,1.3,0.4,2.1,0.4c0.7,0,1.4-0.1,2.1-0.4c0.6-0.3,1.2-0.7,1.7-1.1c0.5-0.5,0.9-1,1.1-1.7c0.3-0.6,0.4-1.3,0.4-2.1
		s-0.1-1.4-0.4-2.1c-0.3-0.6-0.7-1.2-1.1-1.7c-0.5-0.5-1-0.9-1.7-1.1c-0.6-0.3-1.3-0.4-2.1-0.4c-0.7,0-1.4,0.1-2.1,0.4
		c-0.6,0.3-1.2,0.7-1.7,1.1c-0.5,0.5-0.9,1-1.1,1.7C51.9-1340.3,51.7-1339.6,51.7-1338.9z"/>
	<path class="st1" d="M88.6-1342.9c-0.5-0.4-1-0.7-1.7-0.9c-0.7-0.2-1.4-0.3-2-0.3c-0.7,0-1.4,0.1-2,0.4c-0.6,0.3-1.1,0.6-1.6,1.1
		c-0.4,0.5-0.8,1-1,1.7c-0.3,0.7-0.4,1.4-0.4,2.1c0,0.8,0.1,1.5,0.4,2.1c0.3,0.7,0.7,1.2,1.1,1.7c0.5,0.5,1,0.8,1.7,1.1
		s1.3,0.4,2.1,0.4c0.9,0,1.6-0.2,2.4-0.6c0.7-0.4,1.3-0.9,1.8-1.5h-2.3v-5.3h9.8v8.4c-0.6,1-1.3,2-2.1,2.8c-0.8,0.8-1.7,1.6-2.7,2.2
		c-1,0.6-2.1,1.1-3.2,1.4c-1.2,0.3-2.4,0.5-3.6,0.5c-1.8,0-3.5-0.3-5.2-1c-1.6-0.7-3-1.6-4.2-2.8c-1.2-1.2-2.2-2.6-2.8-4.2
		c-0.7-1.6-1-3.4-1-5.2c0-1.8,0.3-3.5,1-5.2c0.7-1.6,1.6-3,2.7-4.2c1.2-1.2,2.5-2.2,4.1-2.9c1.6-0.7,3.3-1,5.1-1
		c1.4,0,2.6,0.1,3.7,0.4c1,0.3,1.9,0.6,2.6,1c0.8,0.4,1.5,0.8,2.1,1.3L88.6-1342.9z M89-1347.9c-0.3-0.2-0.7-0.3-1.1-0.4
		c-0.4-0.1-0.8-0.2-1.3-0.3c-0.5-0.1-1-0.1-1.6-0.1c-1.3,0-2.6,0.2-3.8,0.7c-1.2,0.5-2.2,1.1-3,2c-0.9,0.8-1.5,1.9-2,3.1
		c-0.5,1.2-0.7,2.5-0.7,4c0,1.4,0.3,2.8,0.8,4c0.5,1.2,1.2,2.2,2.1,3.1c0.9,0.8,1.9,1.5,3.1,2c1.2,0.5,2.4,0.7,3.8,0.7
		c1.7,0,3.3-0.4,4.8-1.2c1.4-0.8,2.6-1.9,3.5-3.3v-5h-4v0.9h3v3.8c-0.8,1.2-1.8,2.1-3.1,2.8c-1.3,0.7-2.6,1-4.2,1
		c-1.2,0-2.4-0.2-3.4-0.6c-1.1-0.4-2-1-2.8-1.8c-0.8-0.8-1.4-1.7-1.9-2.8c-0.5-1.1-0.7-2.3-0.7-3.6s0.2-2.5,0.7-3.6
		c0.4-1.1,1.1-2,1.8-2.8c0.8-0.8,1.7-1.4,2.7-1.8c1-0.4,2.2-0.6,3.4-0.6c0.5,0,0.9,0,1.3,0.1c0.4,0.1,0.8,0.2,1.1,0.2
		c0.4,0.1,0.7,0.2,1,0.3L89-1347.9z"/>
	<path class="st1" d="M98.9-1351.6h8.7c1.6,0,3.1,0.2,4.5,0.6c1.4,0.4,2.6,1.1,3.6,1.9c1,0.8,1.8,1.9,2.4,3.1
		c0.6,1.2,0.9,2.6,0.9,4.2c0,1.3-0.2,2.3-0.5,3.2c-0.4,0.9-0.7,1.6-1.2,2.2c-0.5,0.7-1.1,1.2-1.7,1.7l4.8,8.4h-9.5l-3.8-6.4v6.4
		h-8.1V-1351.6z M106.8-1335c1,0,2-0.1,2.9-0.3l3.6,6.1h1.2l-3.8-6.4c1.4-0.5,2.5-1.2,3.3-2.2c0.8-1,1.2-2.3,1.2-3.9
		c0-1.1-0.2-2.1-0.6-2.9c-0.4-0.8-1-1.5-1.8-2.1c-0.7-0.6-1.6-1-2.6-1.3c-1-0.3-2.1-0.4-3.3-0.4h-4.1v19.3h1v-5.8H106.8z
		 M103.7-1336v-11.7h3.1c2.3,0,4.1,0.5,5.4,1.5c1.3,1,2,2.5,2,4.3c0,1.9-0.7,3.3-2,4.3c-1.3,1-3.1,1.5-5.4,1.5H103.7z M107-1339.1
		h0.4c1,0,1.8-0.2,2.5-0.6c0.7-0.4,1-1.2,1-2.2s-0.3-1.7-1-2.2c-0.7-0.4-1.5-0.6-2.5-0.6H107V-1339.1z"/>
	<path class="st1" d="M128.6-1351.6h6.1l9.6,25.3h-8l-0.8-2.3h-7.7l-0.8,2.3h-8L128.6-1351.6z M124.6-1329.3l0.7-1.9h12.5l0.7,1.9
		h1.1l-7.3-19.3h-1.4l-7.3,19.3H124.6z M131.6-1347.6l5.9,15.5h-11.9L131.6-1347.6z M133.3-1334.1l-1.7-4.4l-1.7,4.4H133.3z"/>
	<path class="st1" d="M144.9-1351.6h6.7l6.6,9.7l6.6-9.7h6.7v25.3h-8.1v-9.1l-5.2,7.6l-5.2-7.6v9.1h-8.1V-1351.6z M149.7-1329.3
		v-17.4l8.5,12.4l8.5-12.4v17.4h1v-19.3h-1l-8.5,12.5l-8.5-12.5h-1v19.3H149.7z"/>
	<path class="st1" d="M181.6-1351.6h6.1l9.6,25.3h-8l-0.8-2.3h-7.7l-0.8,2.3h-8L181.6-1351.6z M177.7-1329.3l0.7-1.9h12.5l0.7,1.9
		h1.1l-7.3-19.3h-1.4l-7.3,19.3H177.7z M184.6-1347.6l5.9,15.5h-11.9L184.6-1347.6z M186.4-1334.1l-1.7-4.4l-1.7,4.4H186.4z"/>
	<path class="st1" d="M197.3-1338.9c0-2,0.4-3.9,1.1-5.5c0.7-1.6,1.7-3,2.9-4.2c1.2-1.2,2.6-2.1,4.3-2.7c1.6-0.6,3.3-0.9,5.2-0.9
		c1.4,0,2.7,0.1,3.9,0.4c1.1,0.3,2.1,0.6,2.9,1c0.9,0.4,1.7,0.8,2.4,1.3l-4,7c-0.4-0.3-0.8-0.6-1.3-0.9c-0.4-0.2-0.9-0.4-1.5-0.6
		c-0.6-0.2-1.3-0.3-2-0.3c-0.8,0-1.5,0.1-2.2,0.4c-0.7,0.3-1.2,0.7-1.7,1.1c-0.5,0.5-0.9,1-1.2,1.7c-0.3,0.6-0.4,1.3-0.4,2.1
		s0.1,1.4,0.4,2.1c0.3,0.6,0.7,1.2,1.2,1.7c0.5,0.5,1.1,0.9,1.8,1.1c0.7,0.3,1.4,0.4,2.2,0.4c0.8,0,1.5-0.1,2.2-0.3
		c0.6-0.2,1.2-0.4,1.6-0.7c0.5-0.3,0.9-0.6,1.3-1l4,7c-0.7,0.6-1.5,1.1-2.4,1.5c-0.8,0.4-1.8,0.7-2.9,1c-1.1,0.3-2.4,0.5-3.9,0.5
		c-2,0-3.8-0.3-5.5-1c-1.7-0.6-3.1-1.6-4.3-2.7c-1.2-1.2-2.2-2.6-2.9-4.2C197.6-1335.1,197.3-1336.9,197.3-1338.9z M202.1-1338.9
		c0-1.2,0.2-2.4,0.6-3.4c0.4-1.1,1-2,1.8-2.8c0.8-0.8,1.7-1.4,2.8-1.9s2.3-0.7,3.6-0.7c0.7,0,1.2,0,1.8,0.1c0.5,0.1,1,0.2,1.3,0.3
		c0.4,0.1,0.8,0.3,1.1,0.5l0.5-0.9c-0.4-0.2-0.8-0.3-1.3-0.5c-0.4-0.1-0.9-0.2-1.5-0.3c-0.6-0.1-1.2-0.2-1.9-0.2
		c-1.3,0-2.5,0.2-3.7,0.7c-1.2,0.5-2.2,1.1-3.1,2c-0.9,0.8-1.6,1.9-2.2,3.1c-0.5,1.2-0.8,2.5-0.8,4c0,1.5,0.3,2.8,0.8,4
		c0.5,1.2,1.2,2.2,2.1,3.1c0.9,0.8,2,1.5,3.2,2c1.2,0.5,2.5,0.7,3.9,0.7c0.8,0,1.4-0.1,2.1-0.2c0.6-0.1,1.1-0.3,1.6-0.4
		c0.5-0.2,0.9-0.4,1.3-0.6l-0.5-0.9c-0.3,0.2-0.7,0.4-1.1,0.6c-0.4,0.2-0.8,0.3-1.4,0.4c-0.5,0.1-1.2,0.2-1.9,0.2
		c-1.4,0-2.6-0.2-3.8-0.7c-1.1-0.5-2.1-1.1-2.8-1.9c-0.8-0.8-1.4-1.7-1.8-2.8S202.1-1337.7,202.1-1338.9z"/>
	<path class="st1" d="M221.2-1351.6h8.6v25.3h-8.6V-1351.6z M226-1329.3v-19.3h-1v19.3H226z"/>
	<path class="st1" d="M231.9-1338.9c0-1.8,0.3-3.5,1-5.2c0.7-1.6,1.6-3,2.8-4.2c1.2-1.2,2.6-2.2,4.2-2.9c1.6-0.7,3.3-1,5.2-1
		c1.8,0,3.5,0.3,5.2,1c1.6,0.7,3,1.6,4.2,2.9c1.2,1.2,2.2,2.6,2.9,4.2c0.7,1.6,1,3.3,1,5.2c0,1.8-0.3,3.5-1,5.2
		c-0.7,1.6-1.6,3-2.9,4.2c-1.2,1.2-2.6,2.2-4.2,2.9c-1.6,0.7-3.3,1-5.2,1c-1.8,0-3.5-0.3-5.2-1c-1.6-0.7-3-1.6-4.2-2.9
		c-1.2-1.2-2.2-2.6-2.8-4.2C232.2-1335.3,231.9-1337.1,231.9-1338.9z M235.5-1338.9c0,1.3,0.3,2.6,0.8,3.8c0.5,1.2,1.2,2.2,2.1,3.1
		c0.9,0.9,1.9,1.6,3.1,2.1c1.2,0.5,2.4,0.8,3.8,0.8c1.3,0,2.6-0.3,3.8-0.8c1.2-0.5,2.2-1.2,3.1-2.1c0.9-0.9,1.6-1.9,2.1-3.1
		c0.5-1.2,0.8-2.4,0.8-3.8s-0.3-2.6-0.8-3.8c-0.5-1.2-1.2-2.2-2.1-3.1c-0.9-0.9-1.9-1.6-3.1-2.1c-1.2-0.5-2.4-0.8-3.8-0.8
		c-1.3,0-2.6,0.3-3.8,0.8c-1.2,0.5-2.2,1.2-3.1,2.1c-0.9,0.9-1.6,1.9-2.1,3.1C235.7-1341.5,235.5-1340.2,235.5-1338.9z
		 M245.2-1330.1c-1.2,0-2.4-0.2-3.4-0.7c-1.1-0.5-2-1.1-2.8-1.9c-0.8-0.8-1.4-1.7-1.9-2.8c-0.5-1.1-0.7-2.2-0.7-3.4
		c0-1.2,0.2-2.3,0.7-3.4c0.5-1.1,1.1-2,1.9-2.8c0.8-0.8,1.7-1.4,2.8-1.9c1.1-0.5,2.2-0.7,3.4-0.7s2.3,0.2,3.4,0.7
		c1.1,0.5,2,1.1,2.8,1.9c0.8,0.8,1.4,1.7,1.9,2.8c0.5,1.1,0.7,2.2,0.7,3.4c0,1.2-0.2,2.4-0.7,3.4c-0.5,1.1-1.1,2-1.9,2.8
		c-0.8,0.8-1.7,1.4-2.8,1.9C247.5-1330.4,246.4-1330.1,245.2-1330.1z M239.9-1338.9c0,0.7,0.1,1.4,0.4,2.1c0.3,0.6,0.7,1.2,1.1,1.7
		c0.5,0.5,1,0.9,1.7,1.1c0.6,0.3,1.3,0.4,2.1,0.4c0.7,0,1.4-0.1,2.1-0.4c0.6-0.3,1.2-0.7,1.7-1.1c0.5-0.5,0.9-1,1.1-1.7
		c0.3-0.6,0.4-1.3,0.4-2.1s-0.1-1.4-0.4-2.1c-0.3-0.6-0.7-1.2-1.1-1.7c-0.5-0.5-1-0.9-1.7-1.1c-0.6-0.3-1.3-0.4-2.1-0.4
		c-0.7,0-1.4,0.1-2.1,0.4c-0.6,0.3-1.2,0.7-1.7,1.1c-0.5,0.5-0.9,1-1.1,1.7C240-1340.3,239.9-1339.6,239.9-1338.9z M246.9-1353.1
		h-4.3l3.2-5.9h5L246.9-1353.1z M245.2-1354.6h0.8l1.9-2.9h-1.1L245.2-1354.6z"/>
	<path class="st1" d="M260.6-1351.6h6.6l7,9.8v-9.8h7.9v25.3h-6.7l-7-9.7v9.7h-7.9V-1351.6z M265.1-1329.3v-17.6l12.5,17.6h1v-19.3
		h-1v17.6l-12.5-17.6h-1v19.3H265.1z"/>
	<path class="st2" d="M290.3-1351.6h8.6l2.9,8.9l2.9-8.9h5.5l2.9,8.9l2.9-8.9h8.6l-8.4,25.3h-6.3l-2.5-7.7l-2.5,7.7h-6.3
		L290.3-1351.6z M302.5-1329.3l5.1-15.9l5.1,15.9h1l6.3-19.3h-1l-5.8,17.5l-5.5-17.5L302-1331l-5.8-17.5h-1l6.3,19.3H302.5z"/>
	<path class="st2" d="M325.3-1351.6h14.9v6.7h-6.8v2.8h6.7v6.3h-6.7v2.9h7.1v6.6h-15.2V-1351.6z M337.7-1329.3v-0.9h-7.6v-8.3h7.2
		v-0.9h-7.2v-8.2h7.6v-0.9h-8.6v19.3H337.7z"/>
	<path class="st2" d="M342.8-1351.6h9.9c1.3,0,2.4,0.1,3.5,0.4c1.1,0.3,2,0.7,2.7,1.3c0.7,0.6,1.3,1.3,1.7,2.1s0.6,1.8,0.6,3
		c0,0.8-0.1,1.5-0.3,2.1c-0.2,0.6-0.4,1-0.6,1.4c-0.3,0.5-0.6,0.8-1,1.1c0.6,0.4,1.1,0.8,1.5,1.4c0.4,0.5,0.7,1.1,1,1.8
		c0.3,0.7,0.5,1.6,0.5,2.7c0,1.2-0.2,2.3-0.6,3.3c-0.4,1-1,1.8-1.8,2.5c-0.8,0.7-1.8,1.2-2.9,1.6c-1.2,0.4-2.4,0.6-3.9,0.6h-10.3
		V-1351.6z M352.1-1329.3c2.2,0,3.9-0.5,4.9-1.4c1.1-1,1.6-2.2,1.6-3.8c0-1-0.2-1.9-0.7-2.5c-0.4-0.6-0.9-1.1-1.4-1.5
		c-0.6-0.4-1.3-0.7-2.1-0.8c0.6-0.2,1.2-0.5,1.6-0.8c0.4-0.3,0.8-0.8,1.2-1.3c0.3-0.6,0.5-1.3,0.5-2.2c0-1.6-0.5-2.8-1.5-3.6
		c-1-0.8-2.4-1.2-4.1-1.2h-5.5v19.3H352.1z M347.6-1339.8v-7.8h4.5c1.6,0,2.8,0.4,3.6,1.1c0.7,0.7,1.1,1.7,1.1,2.8
		c0,1.2-0.4,2.1-1.1,2.8c-0.7,0.7-1.9,1.1-3.6,1.1H347.6z M347.6-1330.2v-8.7h4.4c0.8,0,1.5,0.1,2.2,0.2c0.7,0.2,1.3,0.4,1.8,0.8
		c0.5,0.3,0.9,0.8,1.2,1.3c0.3,0.6,0.4,1.2,0.4,2c0,1.5-0.5,2.7-1.5,3.3c-1,0.7-2.4,1-4,1H347.6z M353.4-1343.9
		c0-1.2-0.6-1.7-1.9-1.7h-0.9v3.5h0.9C352.8-1342.1,353.4-1342.7,353.4-1343.9z M351.5-1332.2c1.9,0,2.9-0.7,2.9-2.2s-1-2.2-2.9-2.2
		h-0.9v4.4H351.5z"/>
</g>
<g>
	<path class="st1" d="M20.3-69.9c0,1.7-0.3,3.2-0.9,4.5c-0.6,1.2-1.4,2.2-2.5,3c-1.1,0.8-2.3,1.3-3.7,1.7c-1.4,0.4-2.9,0.5-4.5,0.5
		v6H0.5v-25.3h8.1c1.6,0,3.1,0.2,4.5,0.5c1.4,0.4,2.6,0.9,3.7,1.7c1.1,0.8,1.9,1.8,2.5,3C20-73.2,20.3-71.7,20.3-69.9z M16.6-69.9
		c0-1.1-0.2-2.1-0.6-3c-0.4-0.8-0.9-1.5-1.7-2.1c-0.7-0.5-1.6-0.9-2.5-1.2c-1-0.3-2-0.4-3.2-0.4H4.3v19.3h1v-6h3.3
		c1.1,0,2.2-0.1,3.2-0.4c1-0.3,1.8-0.7,2.5-1.2c0.7-0.5,1.3-1.2,1.7-2.1C16.4-67.8,16.6-68.8,16.6-69.9z M15.5-69.9
		c0,1.1-0.2,2-0.6,2.7c-0.4,0.7-0.9,1.3-1.5,1.7c-0.6,0.4-1.4,0.7-2.2,0.9c-0.8,0.2-1.7,0.3-2.6,0.3H5.3v-11.4h3.3
		c0.9,0,1.8,0.1,2.6,0.3s1.6,0.5,2.2,0.9c0.6,0.4,1.1,1,1.5,1.7C15.3-71.9,15.5-71,15.5-69.9z M8.6-67.1H9c1.1,0,1.8-0.2,2.3-0.7
		c0.5-0.5,0.7-1.2,0.7-2.1s-0.2-1.6-0.7-2.1c-0.5-0.5-1.2-0.7-2.3-0.7H8.6V-67.1z"/>
	<path class="st1" d="M22.2-79.6h8.7c1.6,0,3.1,0.2,4.5,0.6c1.4,0.4,2.6,1.1,3.6,1.9c1,0.8,1.8,1.9,2.4,3.1c0.6,1.2,0.9,2.6,0.9,4.2
		c0,1.3-0.2,2.3-0.5,3.2c-0.4,0.9-0.7,1.6-1.2,2.2c-0.5,0.7-1.1,1.2-1.7,1.7l4.8,8.4h-9.5l-3.8-6.4v6.4h-8.1V-79.6z M30.1-63
		c1,0,2-0.1,2.9-0.3l3.6,6.1h1.2l-3.8-6.4c1.4-0.5,2.5-1.2,3.3-2.2c0.8-1,1.2-2.3,1.2-3.9c0-1.1-0.2-2.1-0.6-2.9
		c-0.4-0.8-1-1.5-1.8-2.1c-0.7-0.6-1.6-1-2.6-1.3c-1-0.3-2.1-0.4-3.3-0.4H26v19.3h1V-63H30.1z M27-64v-11.7h3.1
		c2.3,0,4.1,0.5,5.4,1.5c1.3,1,2,2.5,2,4.3c0,1.9-0.7,3.3-2,4.3c-1.3,1-3.1,1.5-5.4,1.5H27z M30.3-67.1h0.4c1,0,1.8-0.2,2.5-0.6
		c0.7-0.4,1-1.2,1-2.2s-0.3-1.7-1-2.2c-0.7-0.4-1.5-0.6-2.5-0.6h-0.4V-67.1z"/>
	<path class="st1" d="M43.7-66.9c0-1.8,0.3-3.5,1-5.2c0.7-1.6,1.6-3,2.8-4.2c1.2-1.2,2.6-2.2,4.2-2.9c1.6-0.7,3.3-1,5.2-1
		c1.8,0,3.5,0.3,5.2,1c1.6,0.7,3,1.6,4.2,2.9c1.2,1.2,2.2,2.6,2.9,4.2c0.7,1.6,1,3.3,1,5.2c0,1.8-0.3,3.5-1,5.2
		c-0.7,1.6-1.6,3-2.9,4.2c-1.2,1.2-2.6,2.2-4.2,2.9c-1.6,0.7-3.3,1-5.2,1c-1.8,0-3.5-0.3-5.2-1c-1.6-0.7-3-1.6-4.2-2.9
		c-1.2-1.2-2.2-2.6-2.8-4.2C44.1-63.3,43.7-65.1,43.7-66.9z M47.3-66.9c0,1.3,0.3,2.6,0.8,3.8c0.5,1.2,1.2,2.2,2.1,3.1
		c0.9,0.9,1.9,1.6,3.1,2.1c1.2,0.5,2.4,0.8,3.8,0.8c1.3,0,2.6-0.3,3.8-0.8c1.2-0.5,2.2-1.2,3.1-2.1c0.9-0.9,1.6-1.9,2.1-3.1
		c0.5-1.2,0.8-2.4,0.8-3.8s-0.3-2.6-0.8-3.8c-0.5-1.2-1.2-2.2-2.1-3.1c-0.9-0.9-1.9-1.6-3.1-2.1c-1.2-0.5-2.4-0.8-3.8-0.8
		c-1.3,0-2.6,0.3-3.8,0.8c-1.2,0.5-2.2,1.2-3.1,2.1c-0.9,0.9-1.6,1.9-2.1,3.1C47.6-69.5,47.3-68.2,47.3-66.9z M57-58.1
		c-1.2,0-2.4-0.2-3.4-0.7c-1.1-0.5-2-1.1-2.8-1.9c-0.8-0.8-1.4-1.7-1.9-2.8c-0.5-1.1-0.7-2.2-0.7-3.4c0-1.2,0.2-2.3,0.7-3.4
		c0.5-1.1,1.1-2,1.9-2.8c0.8-0.8,1.7-1.4,2.8-1.9c1.1-0.5,2.2-0.7,3.4-0.7s2.3,0.2,3.4,0.7c1.1,0.5,2,1.1,2.8,1.9
		c0.8,0.8,1.4,1.7,1.9,2.8c0.5,1.1,0.7,2.2,0.7,3.4c0,1.2-0.2,2.4-0.7,3.4c-0.5,1.1-1.1,2-1.9,2.8c-0.8,0.8-1.7,1.4-2.8,1.9
		C59.4-58.4,58.3-58.1,57-58.1z M51.7-66.9c0,0.7,0.1,1.4,0.4,2.1c0.3,0.6,0.7,1.2,1.1,1.7c0.5,0.5,1,0.9,1.7,1.1
		c0.6,0.3,1.3,0.4,2.1,0.4c0.7,0,1.4-0.1,2.1-0.4c0.6-0.3,1.2-0.7,1.7-1.1c0.5-0.5,0.9-1,1.1-1.7c0.3-0.6,0.4-1.3,0.4-2.1
		s-0.1-1.4-0.4-2.1c-0.3-0.6-0.7-1.2-1.1-1.7c-0.5-0.5-1-0.9-1.7-1.1c-0.6-0.3-1.3-0.4-2.1-0.4c-0.7,0-1.4,0.1-2.1,0.4
		c-0.6,0.3-1.2,0.7-1.7,1.1c-0.5,0.5-0.9,1-1.1,1.7C51.9-68.3,51.7-67.6,51.7-66.9z"/>
	<path class="st1" d="M88.6-70.9c-0.5-0.4-1-0.7-1.7-0.9c-0.7-0.2-1.4-0.3-2-0.3c-0.7,0-1.4,0.1-2,0.4c-0.6,0.3-1.1,0.6-1.6,1.1
		c-0.4,0.5-0.8,1-1,1.7c-0.3,0.7-0.4,1.4-0.4,2.1c0,0.8,0.1,1.5,0.4,2.1c0.3,0.7,0.7,1.2,1.1,1.7c0.5,0.5,1,0.8,1.7,1.1
		s1.3,0.4,2.1,0.4c0.9,0,1.6-0.2,2.4-0.6c0.7-0.4,1.3-0.9,1.8-1.5h-2.3v-5.3h9.8v8.4c-0.6,1-1.3,2-2.1,2.8c-0.8,0.8-1.7,1.6-2.7,2.2
		c-1,0.6-2.1,1.1-3.2,1.4c-1.2,0.3-2.4,0.5-3.6,0.5c-1.8,0-3.5-0.3-5.2-1c-1.6-0.7-3-1.6-4.2-2.8c-1.2-1.2-2.2-2.6-2.8-4.2
		c-0.7-1.6-1-3.4-1-5.2c0-1.8,0.3-3.5,1-5.2c0.7-1.6,1.6-3,2.7-4.2c1.2-1.2,2.5-2.2,4.1-2.9c1.6-0.7,3.3-1,5.1-1
		c1.4,0,2.6,0.1,3.7,0.4c1,0.3,1.9,0.6,2.6,1c0.8,0.4,1.5,0.8,2.1,1.3L88.6-70.9z M89-75.9c-0.3-0.2-0.7-0.3-1.1-0.4
		c-0.4-0.1-0.8-0.2-1.3-0.3c-0.5-0.1-1-0.1-1.6-0.1c-1.3,0-2.6,0.2-3.8,0.7c-1.2,0.5-2.2,1.1-3,2c-0.9,0.8-1.5,1.9-2,3.1
		c-0.5,1.2-0.7,2.5-0.7,4c0,1.4,0.3,2.8,0.8,4c0.5,1.2,1.2,2.2,2.1,3.1c0.9,0.8,1.9,1.5,3.1,2c1.2,0.5,2.4,0.7,3.8,0.7
		c1.7,0,3.3-0.4,4.8-1.2c1.4-0.8,2.6-1.9,3.5-3.3v-5h-4v0.9h3v3.8c-0.8,1.2-1.8,2.1-3.1,2.8c-1.3,0.7-2.6,1-4.2,1
		c-1.2,0-2.4-0.2-3.4-0.6c-1.1-0.4-2-1-2.8-1.8c-0.8-0.8-1.4-1.7-1.9-2.8c-0.5-1.1-0.7-2.3-0.7-3.6s0.2-2.5,0.7-3.6
		c0.4-1.1,1.1-2,1.8-2.8c0.8-0.8,1.7-1.4,2.7-1.8c1-0.4,2.2-0.6,3.4-0.6c0.5,0,0.9,0,1.3,0.1c0.4,0.1,0.8,0.2,1.1,0.2
		c0.4,0.1,0.7,0.2,1,0.3L89-75.9z"/>
	<path class="st1" d="M98.9-79.6h8.7c1.6,0,3.1,0.2,4.5,0.6c1.4,0.4,2.6,1.1,3.6,1.9c1,0.8,1.8,1.9,2.4,3.1c0.6,1.2,0.9,2.6,0.9,4.2
		c0,1.3-0.2,2.3-0.5,3.2c-0.4,0.9-0.7,1.6-1.2,2.2c-0.5,0.7-1.1,1.2-1.7,1.7l4.8,8.4h-9.5l-3.8-6.4v6.4h-8.1V-79.6z M106.8-63
		c1,0,2-0.1,2.9-0.3l3.6,6.1h1.2l-3.8-6.4c1.4-0.5,2.5-1.2,3.3-2.2c0.8-1,1.2-2.3,1.2-3.9c0-1.1-0.2-2.1-0.6-2.9
		c-0.4-0.8-1-1.5-1.8-2.1c-0.7-0.6-1.6-1-2.6-1.3c-1-0.3-2.1-0.4-3.3-0.4h-4.1v19.3h1V-63H106.8z M103.7-64v-11.7h3.1
		c2.3,0,4.1,0.5,5.4,1.5c1.3,1,2,2.5,2,4.3c0,1.9-0.7,3.3-2,4.3c-1.3,1-3.1,1.5-5.4,1.5H103.7z M107-67.1h0.4c1,0,1.8-0.2,2.5-0.6
		c0.7-0.4,1-1.2,1-2.2s-0.3-1.7-1-2.2c-0.7-0.4-1.5-0.6-2.5-0.6H107V-67.1z"/>
	<path class="st1" d="M128.6-79.6h6.1l9.6,25.3h-8l-0.8-2.3h-7.7l-0.8,2.3h-8L128.6-79.6z M124.6-57.3l0.7-1.9h12.5l0.7,1.9h1.1
		l-7.3-19.3h-1.4l-7.3,19.3H124.6z M131.6-75.6l5.9,15.5h-11.9L131.6-75.6z M133.3-62.1l-1.7-4.4l-1.7,4.4H133.3z"/>
	<path class="st1" d="M144.9-79.6h6.7l6.6,9.7l6.6-9.7h6.7v25.3h-8.1v-9.1l-5.2,7.6l-5.2-7.6v9.1h-8.1V-79.6z M149.7-57.3v-17.4
		l8.5,12.4l8.5-12.4v17.4h1v-19.3h-1L158.2-64l-8.5-12.5h-1v19.3H149.7z"/>
	<path class="st1" d="M181.6-79.6h6.1l9.6,25.3h-8l-0.8-2.3h-7.7l-0.8,2.3h-8L181.6-79.6z M177.7-57.3l0.7-1.9h12.5l0.7,1.9h1.1
		l-7.3-19.3h-1.4l-7.3,19.3H177.7z M184.6-75.6l5.9,15.5h-11.9L184.6-75.6z M186.4-62.1l-1.7-4.4l-1.7,4.4H186.4z"/>
	<path class="st1" d="M197.3-66.9c0-2,0.4-3.9,1.1-5.5c0.7-1.6,1.7-3,2.9-4.2c1.2-1.2,2.6-2.1,4.3-2.7c1.6-0.6,3.3-0.9,5.2-0.9
		c1.4,0,2.7,0.1,3.9,0.4c1.1,0.3,2.1,0.6,2.9,1c0.9,0.4,1.7,0.8,2.4,1.3l-4,7c-0.4-0.3-0.8-0.6-1.3-0.9c-0.4-0.2-0.9-0.4-1.5-0.6
		c-0.6-0.2-1.3-0.3-2-0.3c-0.8,0-1.5,0.1-2.2,0.4c-0.7,0.3-1.2,0.7-1.7,1.1c-0.5,0.5-0.9,1-1.2,1.7c-0.3,0.6-0.4,1.3-0.4,2.1
		s0.1,1.4,0.4,2.1c0.3,0.6,0.7,1.2,1.2,1.7c0.5,0.5,1.1,0.9,1.8,1.1c0.7,0.3,1.4,0.4,2.2,0.4c0.8,0,1.5-0.1,2.2-0.3
		c0.6-0.2,1.2-0.4,1.6-0.7c0.5-0.3,0.9-0.6,1.3-1l4,7c-0.7,0.6-1.5,1.1-2.4,1.5c-0.8,0.4-1.8,0.7-2.9,1c-1.1,0.3-2.4,0.5-3.9,0.5
		c-2,0-3.8-0.3-5.5-1c-1.7-0.6-3.1-1.6-4.3-2.7c-1.2-1.2-2.2-2.6-2.9-4.2C197.6-63.1,197.3-64.9,197.3-66.9z M202.1-66.9
		c0-1.2,0.2-2.4,0.6-3.4c0.4-1.1,1-2,1.8-2.8c0.8-0.8,1.7-1.4,2.8-1.9s2.3-0.7,3.6-0.7c0.7,0,1.2,0,1.8,0.1c0.5,0.1,1,0.2,1.3,0.3
		c0.4,0.1,0.8,0.3,1.1,0.5l0.5-0.9c-0.4-0.2-0.8-0.3-1.3-0.5c-0.4-0.1-0.9-0.2-1.5-0.3c-0.6-0.1-1.2-0.2-1.9-0.2
		c-1.3,0-2.5,0.2-3.7,0.7c-1.2,0.5-2.2,1.1-3.1,2c-0.9,0.8-1.6,1.9-2.2,3.1c-0.5,1.2-0.8,2.5-0.8,4c0,1.5,0.3,2.8,0.8,4
		c0.5,1.2,1.2,2.2,2.1,3.1c0.9,0.8,2,1.5,3.2,2c1.2,0.5,2.5,0.7,3.9,0.7c0.8,0,1.4-0.1,2.1-0.2c0.6-0.1,1.1-0.3,1.6-0.4
		c0.5-0.2,0.9-0.4,1.3-0.6l-0.5-0.9c-0.3,0.2-0.7,0.4-1.1,0.6c-0.4,0.2-0.8,0.3-1.4,0.4c-0.5,0.1-1.2,0.2-1.9,0.2
		c-1.4,0-2.6-0.2-3.8-0.7c-1.1-0.5-2.1-1.1-2.8-1.9c-0.8-0.8-1.4-1.7-1.8-2.8S202.1-65.7,202.1-66.9z"/>
	<path class="st1" d="M221.2-79.6h8.6v25.3h-8.6V-79.6z M226-57.3v-19.3h-1v19.3H226z"/>
	<path class="st1" d="M231.9-66.9c0-1.8,0.3-3.5,1-5.2c0.7-1.6,1.6-3,2.8-4.2c1.2-1.2,2.6-2.2,4.2-2.9c1.6-0.7,3.3-1,5.2-1
		c1.8,0,3.5,0.3,5.2,1c1.6,0.7,3,1.6,4.2,2.9c1.2,1.2,2.2,2.6,2.9,4.2c0.7,1.6,1,3.3,1,5.2c0,1.8-0.3,3.5-1,5.2
		c-0.7,1.6-1.6,3-2.9,4.2c-1.2,1.2-2.6,2.2-4.2,2.9c-1.6,0.7-3.3,1-5.2,1c-1.8,0-3.5-0.3-5.2-1c-1.6-0.7-3-1.6-4.2-2.9
		c-1.2-1.2-2.2-2.6-2.8-4.2C232.2-63.3,231.9-65.1,231.9-66.9z M235.5-66.9c0,1.3,0.3,2.6,0.8,3.8c0.5,1.2,1.2,2.2,2.1,3.1
		c0.9,0.9,1.9,1.6,3.1,2.1c1.2,0.5,2.4,0.8,3.8,0.8c1.3,0,2.6-0.3,3.8-0.8c1.2-0.5,2.2-1.2,3.1-2.1c0.9-0.9,1.6-1.9,2.1-3.1
		c0.5-1.2,0.8-2.4,0.8-3.8s-0.3-2.6-0.8-3.8c-0.5-1.2-1.2-2.2-2.1-3.1c-0.9-0.9-1.9-1.6-3.1-2.1c-1.2-0.5-2.4-0.8-3.8-0.8
		c-1.3,0-2.6,0.3-3.8,0.8c-1.2,0.5-2.2,1.2-3.1,2.1c-0.9,0.9-1.6,1.9-2.1,3.1C235.7-69.5,235.5-68.2,235.5-66.9z M245.2-58.1
		c-1.2,0-2.4-0.2-3.4-0.7c-1.1-0.5-2-1.1-2.8-1.9c-0.8-0.8-1.4-1.7-1.9-2.8c-0.5-1.1-0.7-2.2-0.7-3.4c0-1.2,0.2-2.3,0.7-3.4
		c0.5-1.1,1.1-2,1.9-2.8c0.8-0.8,1.7-1.4,2.8-1.9c1.1-0.5,2.2-0.7,3.4-0.7s2.3,0.2,3.4,0.7c1.1,0.5,2,1.1,2.8,1.9
		c0.8,0.8,1.4,1.7,1.9,2.8c0.5,1.1,0.7,2.2,0.7,3.4c0,1.2-0.2,2.4-0.7,3.4c-0.5,1.1-1.1,2-1.9,2.8c-0.8,0.8-1.7,1.4-2.8,1.9
		C247.5-58.4,246.4-58.1,245.2-58.1z M239.9-66.9c0,0.7,0.1,1.4,0.4,2.1c0.3,0.6,0.7,1.2,1.1,1.7c0.5,0.5,1,0.9,1.7,1.1
		c0.6,0.3,1.3,0.4,2.1,0.4c0.7,0,1.4-0.1,2.1-0.4c0.6-0.3,1.2-0.7,1.7-1.1c0.5-0.5,0.9-1,1.1-1.7c0.3-0.6,0.4-1.3,0.4-2.1
		s-0.1-1.4-0.4-2.1c-0.3-0.6-0.7-1.2-1.1-1.7c-0.5-0.5-1-0.9-1.7-1.1c-0.6-0.3-1.3-0.4-2.1-0.4c-0.7,0-1.4,0.1-2.1,0.4
		c-0.6,0.3-1.2,0.7-1.7,1.1c-0.5,0.5-0.9,1-1.1,1.7C240-68.3,239.9-67.6,239.9-66.9z M246.9-81.1h-4.3l3.2-5.9h5L246.9-81.1z
		 M245.2-82.6h0.8l1.9-2.9h-1.1L245.2-82.6z"/>
	<path class="st1" d="M260.6-79.6h6.6l7,9.8v-9.8h7.9v25.3h-6.7l-7-9.7v9.7h-7.9V-79.6z M265.1-57.3v-17.6l12.5,17.6h1v-19.3h-1V-59
		l-12.5-17.6h-1v19.3H265.1z"/>
	<path class="st2" d="M290.3-79.6h8.6l2.9,8.9l2.9-8.9h5.5l2.9,8.9l2.9-8.9h8.6l-8.4,25.3h-6.3l-2.5-7.7l-2.5,7.7h-6.3L290.3-79.6z
		 M302.5-57.3l5.1-15.9l5.1,15.9h1l6.3-19.3h-1L313.1-59l-5.5-17.5L302-59l-5.8-17.5h-1l6.3,19.3H302.5z"/>
	<path class="st2" d="M325.3-79.6h14.9v6.7h-6.8v2.8h6.7v6.3h-6.7v2.9h7.1v6.6h-15.2V-79.6z M337.7-57.3v-0.9h-7.6v-8.3h7.2v-0.9
		h-7.2v-8.2h7.6v-0.9h-8.6v19.3H337.7z"/>
	<path class="st2" d="M342.8-79.6h9.9c1.3,0,2.4,0.1,3.5,0.4c1.1,0.3,2,0.7,2.7,1.3c0.7,0.6,1.3,1.3,1.7,2.1s0.6,1.8,0.6,3
		c0,0.8-0.1,1.5-0.3,2.1c-0.2,0.6-0.4,1-0.6,1.4c-0.3,0.5-0.6,0.8-1,1.1c0.6,0.4,1.1,0.8,1.5,1.4c0.4,0.5,0.7,1.1,1,1.8
		c0.3,0.7,0.5,1.6,0.5,2.7c0,1.2-0.2,2.3-0.6,3.3c-0.4,1-1,1.8-1.8,2.5c-0.8,0.7-1.8,1.2-2.9,1.6c-1.2,0.4-2.4,0.6-3.9,0.6h-10.3
		V-79.6z M352.1-57.3c2.2,0,3.9-0.5,4.9-1.4c1.1-1,1.6-2.2,1.6-3.8c0-1-0.2-1.9-0.7-2.5c-0.4-0.6-0.9-1.1-1.4-1.5
		c-0.6-0.4-1.3-0.7-2.1-0.8c0.6-0.2,1.2-0.5,1.6-0.8c0.4-0.3,0.8-0.8,1.2-1.3c0.3-0.6,0.5-1.3,0.5-2.2c0-1.6-0.5-2.8-1.5-3.6
		c-1-0.8-2.4-1.2-4.1-1.2h-5.5v19.3H352.1z M347.6-67.8v-7.8h4.5c1.6,0,2.8,0.4,3.6,1.1c0.7,0.7,1.1,1.7,1.1,2.8
		c0,1.2-0.4,2.1-1.1,2.8c-0.7,0.7-1.9,1.1-3.6,1.1H347.6z M347.6-58.2v-8.7h4.4c0.8,0,1.5,0.1,2.2,0.2c0.7,0.2,1.3,0.4,1.8,0.8
		c0.5,0.3,0.9,0.8,1.2,1.3c0.3,0.6,0.4,1.2,0.4,2c0,1.5-0.5,2.7-1.5,3.3c-1,0.7-2.4,1-4,1H347.6z M353.4-71.9c0-1.2-0.6-1.7-1.9-1.7
		h-0.9v3.5h0.9C352.8-70.1,353.4-70.7,353.4-71.9z M351.5-60.2c1.9,0,2.9-0.7,2.9-2.2s-1-2.2-2.9-2.2h-0.9v4.4H351.5z"/>
</g>
<text transform="matrix(1 0 0 1 0.1211 -1221.3892)" class="st0" style="font-family:'Roboto-Condensed'; font-size:16px;">Sígueme: </text>
<rect x="-26" y="-1175" class="st3" width="484" height="34"/>
<rect x="-26" y="-1141" class="st4" width="976" height="464"/>
<rect x="-26" y="-677" class="st5" width="488" height="217"/>
<text transform="matrix(1 0 0 1 -13 -1151)" style="font-family:'Roboto-BoldCondensed'; font-size:18px;">DESCRIPCIÓN DEL CURSO</text>
<rect x="23.1" y="-1028" style="fill-rule:evenodd;clip-rule:evenodd;fill:none;" width="892.9" height="152"/>
<text transform="matrix(0.9485 0 0 1 23.0723 -1016.8965)"><tspan x="0" y="0" style="font-family:'AppleGaramond'; font-size:16px;">Conoce la diversidad de frameworks y herramientas en línea utilizadas en los procesos de diseño web.</tspan><tspan x="0" y="31" style="font-family:'AppleGaramond'; font-size:16px;">Comprende la diferencia entre maquetación y programación backend y frontend.</tspan><tspan x="0" y="62" style="font-family:'AppleGaramond'; font-size:16px;">Aplica los principales lenguajes de maquetación y programación: HTML; CSS; Javascript y PHP; así como los protocolos de informática para su publicación en línea.</tspan><tspan x="0" y="93" style="font-family:'AppleGaramond'; font-size:16px;">Analiza y evalúa las necesidades de cada uno de los proyectos para aplicar lo comprendido en la asignatura.</tspan><tspan x="0" y="124" style="font-family:'AppleGaramond'; font-size:16px;">Crea sitios funcionales capaces de resolver requerimientos propios del ambiente web.</tspan></text>
<rect x="-1" y="-618" style="fill-rule:evenodd;clip-rule:evenodd;fill:none;" width="440" height="158"/>
<text transform="matrix(0.9485 0 0 1 -1 -606.8965)"><tspan x="0" y="0" class="st2" style="font-family:'AppleGaramond'; font-size:16px;">1.1. HTML no es un lenguaje de programación </tspan><tspan x="0" y="31" class="st2" style="font-family:'AppleGaramond'; font-size:16px;">1.2. CSS: Sintaxis y estructura</tspan><tspan x="0" y="62" class="st2" style="font-family:'AppleGaramond'; font-size:16px;">1.3. Integración de HTML y CSS</tspan><tspan x="0" y="93" class="st2" style="font-family:'AppleGaramond'; font-size:16px;">1.4. Frameworks de maquetación</tspan><tspan x="0" y="124" class="st2" style="font-family:'AppleGaramond'; font-size:16px;">1.5. Comparativa y uso de frameworks</tspan></text>
<rect x="-1" y="-1113" style="fill-rule:evenodd;clip-rule:evenodd;fill:none;" width="335" height="20"/>
<text transform="matrix(1 0 0 1 -1 -1096.2422)" style="font-family:'Roboto-Black'; font-size:22px;">Planeación de la asignatura</text>
<rect x="-1" y="-1082" style="fill-rule:evenodd;clip-rule:evenodd;fill:none;" width="506" height="43"/>
<text transform="matrix(1 0 0 1 -1 -1068.2891)" style="font-family:'Roboto-Bold'; font-size:18px;">Resultados de aprendizaje de la asignatura del alumno:</text>
<g>
	<rect x="950.5" y="-1092.5" class="st6" width="313" height="135.5"/>
	<path class="st1" d="M1263-1092v134.5H951V-1092H1263 M1264-1093H950v136.5h314V-1093L1264-1093z"/>
</g>
<rect x="950" y="-1141" class="st3" width="314" height="48"/>
<rect x="968" y="-1028" style="fill-rule:evenodd;clip-rule:evenodd;fill:none;" width="281" height="65"/>
<text transform="matrix(0.9485 0 0 1 1026.4561 -1016.8965)"><tspan x="0" y="0" style="font-family:'AppleGaramond'; font-size:16px;">Miércoles: 19:00 a 22:00 horas</tspan><tspan x="9.1" y="31" style="font-family:'AppleGaramond'; font-size:16px;">Jueves: 11:30 a 13:00 horas</tspan></text>
<g>
	<rect x="980.5" y="-1123" style="fill:none;" width="253" height="20"/>
	<text transform="matrix(1 0 0 1 1062.8657 -1109.2891)" style="font-family:'Roboto-Bold'; font-size:18px;">HORARIOS</text>
</g>
<rect x="968" y="-1082" style="fill-rule:evenodd;clip-rule:evenodd;fill:none;" width="281" height="43"/>
<text transform="matrix(1 0 0 1 988.8721 -1068.2891)"><tspan x="0" y="0" style="font-family:'Roboto-Bold'; font-size:18px;">Inicio de clases: 10 de agosto</tspan><tspan x="-0.1" y="21.6" style="font-family:'Roboto-Bold'; font-size:18px;">Fin de clases: 12de diciembre</tspan></text>
<g>
	<rect x="950.5" y="-897.5" class="st6" width="313" height="64.5"/>
	<path class="st7" d="M1263-897v63.5H951V-897H1263 M1264-898H950v65.5h314V-898L1264-898z"/>
</g>
<rect x="950" y="-946" class="st5" width="314" height="48"/>
<g>
	<rect x="980.5" y="-928" style="fill:none;" width="253" height="20"/>
	<text transform="matrix(1 0 0 1 1060.7607 -914.2891)" class="st2" style="font-family:'Roboto-Bold'; font-size:18px;">CONTACTO</text>
</g>
<rect x="968" y="-876" style="fill-rule:evenodd;clip-rule:evenodd;fill:none;" width="281" height="32"/>
<text transform="matrix(1 0 0 1 1027.2979 -862.2891)" style="font-family:'Roboto-Bold'; font-size:18px;">oscar@webxsp.com</text>
<circle class="st8" cx="14" cy="-1022" r="3"/>
<circle class="st8" cx="14" cy="-992" r="3"/>
<circle class="st8" cx="14" cy="-961" r="3"/>
<circle class="st8" cx="14" cy="-928" r="3"/>
<circle class="st8" cx="14" cy="-898" r="3"/>
<text transform="matrix(1 0 0 1 21 -815)"><tspan x="0" y="0" style="font-family:'Roboto-Bold'; font-size:15px;">Introducción a la programación </tspan><tspan x="214" y="0" style="font-family:'Roboto-BoldItalic'; font-size:15px;">frontend</tspan></text>
<text transform="matrix(1 0 0 1 21 -781)"><tspan x="0" y="0" style="font-family:'Roboto-Bold'; font-size:15px;">Programación </tspan><tspan x="98.6" y="0" style="font-family:'Roboto-BoldItalic'; font-size:15px;">frontend</tspan></text>
<text transform="matrix(1 0 0 1 21 -747)"><tspan x="0" y="0" style="font-family:'Roboto-Bold'; font-size:15px;">Programación </tspan><tspan x="98.6" y="0" style="font-family:'Roboto-BoldItalic'; font-size:15px;">backend</tspan></text>
<text transform="matrix(1 0 0 1 21 -713)"><tspan x="0" y="0" style="font-family:'Roboto-Bold'; font-size:15px;">Conocimientos técnicos </tspan><tspan x="166.1" y="0" style="font-family:'Roboto-BoldItalic'; font-size:15px;">web</tspan></text>
<text transform="matrix(1 0 0 1 -1 -641)"><tspan x="0" y="0" class="st2" style="font-family:'Roboto-Bold'; font-size:18px;">1. Introducción a la programación </tspan><tspan x="276.8" y="0" class="st2" style="font-family:'Roboto-BoldItalic'; font-size:18px;">frontend</tspan></text>
<rect x="462" y="-460" class="st9" width="488" height="217"/>
<rect x="487" y="-401" style="fill-rule:evenodd;clip-rule:evenodd;fill:none;" width="440" height="158"/>
<text transform="matrix(0.9485 0 0 1 487 -389.8965)"><tspan x="0" y="0" style="font-family:'AppleGaramond'; font-size:16px;">4.1. Básicos de HTTP; FTP y SMTP</tspan><tspan x="0" y="31" style="font-family:'AppleGaramond'; font-size:16px;">4.2. Información del servidor</tspan><tspan x="0" y="62" style="font-family:'AppleGaramond'; font-size:16px;">4.3. Dominio</tspan><tspan x="0" y="93" style="font-family:'AppleGaramond'; font-size:16px;">4.4. Manejo de niveles en certificados de seguridad (SSL)</tspan><tspan x="0" y="124" style="font-family:'AppleGaramond'; font-size:16px;">4.5. Manteniendo el estado</tspan></text>
<text transform="matrix(1 0 0 1 487 -424)"><tspan x="0" y="0" style="font-family:'Roboto-Bold'; font-size:18px;">4. Introducción a la programación </tspan><tspan x="276.8" y="0" style="font-family:'Roboto-BoldItalic'; font-size:18px;">frontend</tspan></text>
<rect x="-26" y="-460" class="st10" width="488" height="217"/>
<rect x="-1" y="-401" style="fill-rule:evenodd;clip-rule:evenodd;fill:none;" width="440" height="158"/>
<text transform="matrix(0.9485 0 0 1 -1 -389.8965)"><tspan x="0" y="0" style="font-family:'AppleGaramond'; font-size:16px;">3.1. Introducción al PHP</tspan><tspan x="0" y="31" style="font-family:'AppleGaramond'; font-size:16px;">3.2. Elementos básicos del lenguaje</tspan><tspan x="0" y="62" style="font-family:'AppleGaramond'; font-size:16px;">3.3. Incrustando código PHP en un HTML</tspan><tspan x="0" y="93" style="font-family:'AppleGaramond'; font-size:16px;">3.4. Frameworks de implementación de PHP</tspan><tspan x="0" y="124" style="font-family:'AppleGaramond'; font-size:16px;">3.5. Manejo de gestores de contenido CMS</tspan></text>
<text transform="matrix(1 0 0 1 -1 -424)"><tspan x="0" y="0" style="font-family:'Roboto-Bold'; font-size:18px;">3. Programación </tspan><tspan x="138.3" y="0" style="font-family:'Roboto-BoldItalic'; font-size:18px;">backend</tspan></text>
<rect x="462" y="-676" class="st3" width="488" height="216"/>
<rect x="487" y="-617" style="fill-rule:evenodd;clip-rule:evenodd;fill:none;" width="437" height="99"/>
<text transform="matrix(0.9485 0 0 1 487 -605.8965)"><tspan x="0" y="0" style="font-family:'AppleGaramond'; font-size:16px;">2.1. Tipos de datos en los lenguajes de programación </tspan><tspan x="0" y="31" style="font-family:'AppleGaramond'; font-size:16px;">2.2. Operaciones básicas de la programación</tspan><tspan x="0" y="62" style="font-family:'AppleGaramond'; font-size:16px;">2.3. Javascript: Frameworks de animación</tspan></text>
<text transform="matrix(1 0 0 1 487 -640)"><tspan x="0" y="0" style="font-family:'Roboto-Bold'; font-size:18px;">2. Programación </tspan><tspan x="138.3" y="0" style="font-family:'Roboto-BoldItalic'; font-size:18px;">frontend</tspan></text>
<line class="st11" x1="-1" y1="-860" x2="916" y2="-860"/>
<polygon class="st12" points="12,-819.3 -0.7,-826.7 -0.7,-812 "/>
<polygon class="st12" points="241.4,41 170.3,0 170.3,82 "/>
<polygon class="st12" points="12,-786.3 -0.7,-793.7 -0.7,-779 "/>
<polygon class="st12" points="12,-752.3 -0.7,-759.7 -0.7,-745 "/>
<polygon class="st12" points="12,-718.3 -0.7,-725.7 -0.7,-711 "/>
<g>
	<g id="post-linkedin">
		<path class="st0" d="M84-1236H68c-1.1,0-2,0.9-2,2v16c0,1.1,0.9,2,2,2h16c1.1,0,2-0.9,2-2v-16C86-1235.1,85.1-1236,84-1236z
			 M72-1219h-3v-9h3V-1219z M70.5-1229.7c-1,0-1.8-0.8-1.8-1.8s0.8-1.8,1.8-1.8s1.8,0.8,1.8,1.8S71.5-1229.7,70.5-1229.7z M83-1219
			h-3v-5.3c0-0.8-0.7-1.5-1.5-1.5s-1.5,0.7-1.5,1.5v5.3h-3v-9h3v1.2c0.5-0.8,1.6-1.4,2.5-1.4c1.9,0,3.5,1.6,3.5,3.5V-1219z"/>
	</g>
</g>
<text transform="matrix(1 0 0 1 -2.0098 -1274)" class="st2" style="font-family:'Roboto-Bold'; font-size:18px;">DGC. Oscar Tello</text>
<rect x="2183" y="-1364" class="st0" width="1024" height="110"/>
<rect x="2183" y="65" class="st0" width="1024" height="39"/>
<g>
	<path class="st1" d="M2222.3-1341.9c0,1.7-0.3,3.2-0.9,4.5c-0.6,1.2-1.4,2.2-2.5,3c-1.1,0.8-2.3,1.3-3.7,1.7
		c-1.4,0.4-2.9,0.5-4.5,0.5v6h-8.1v-25.3h8.1c1.6,0,3.1,0.2,4.5,0.5c1.4,0.4,2.6,0.9,3.7,1.7c1.1,0.8,1.9,1.8,2.5,3
		C2222-1345.2,2222.3-1343.7,2222.3-1341.9z M2218.6-1341.9c0-1.1-0.2-2.1-0.6-3c-0.4-0.8-0.9-1.5-1.7-2.1c-0.7-0.5-1.6-0.9-2.5-1.2
		c-1-0.3-2-0.4-3.2-0.4h-4.3v19.3h1v-6h3.3c1.1,0,2.2-0.1,3.2-0.4c1-0.3,1.8-0.7,2.5-1.2c0.7-0.5,1.3-1.2,1.7-2.1
		C2218.4-1339.8,2218.6-1340.8,2218.6-1341.9z M2217.5-1341.9c0,1.1-0.2,2-0.6,2.7c-0.4,0.7-0.9,1.3-1.5,1.7
		c-0.6,0.4-1.4,0.7-2.2,0.9c-0.8,0.2-1.7,0.3-2.6,0.3h-3.3v-11.4h3.3c0.9,0,1.8,0.1,2.6,0.3s1.6,0.5,2.2,0.9c0.6,0.4,1.1,1,1.5,1.7
		C2217.3-1343.9,2217.5-1343,2217.5-1341.9z M2210.6-1339.1h0.3c1.1,0,1.8-0.2,2.3-0.7c0.5-0.5,0.7-1.2,0.7-2.1s-0.2-1.6-0.7-2.1
		c-0.5-0.5-1.2-0.7-2.3-0.7h-0.3V-1339.1z"/>
	<path class="st1" d="M2224.2-1351.6h8.7c1.6,0,3.1,0.2,4.5,0.6c1.4,0.4,2.6,1.1,3.6,1.9c1,0.8,1.8,1.9,2.4,3.1
		c0.6,1.2,0.9,2.6,0.9,4.2c0,1.3-0.2,2.3-0.5,3.2c-0.4,0.9-0.7,1.6-1.2,2.2c-0.5,0.7-1.1,1.2-1.7,1.7l4.8,8.4h-9.5l-3.8-6.4v6.4
		h-8.1V-1351.6z M2232.1-1335c1,0,2-0.1,2.9-0.3l3.6,6.1h1.2l-3.8-6.4c1.4-0.5,2.5-1.2,3.3-2.2c0.8-1,1.2-2.3,1.2-3.9
		c0-1.1-0.2-2.1-0.6-2.9c-0.4-0.8-1-1.5-1.8-2.1c-0.7-0.6-1.6-1-2.6-1.3c-1-0.3-2.1-0.4-3.3-0.4h-4.1v19.3h1v-5.8H2232.1z
		 M2229-1336v-11.7h3.1c2.3,0,4.1,0.5,5.4,1.5c1.3,1,2,2.5,2,4.3c0,1.9-0.7,3.3-2,4.3c-1.3,1-3.1,1.5-5.4,1.5H2229z M2232.3-1339.1
		h0.4c1,0,1.8-0.2,2.5-0.6c0.7-0.4,1-1.2,1-2.2s-0.3-1.7-1-2.2c-0.7-0.4-1.5-0.6-2.5-0.6h-0.4V-1339.1z"/>
	<path class="st1" d="M2245.7-1338.9c0-1.8,0.3-3.5,1-5.2c0.7-1.6,1.6-3,2.8-4.2c1.2-1.2,2.6-2.2,4.2-2.9c1.6-0.7,3.3-1,5.2-1
		c1.8,0,3.5,0.3,5.2,1c1.6,0.7,3,1.6,4.2,2.9c1.2,1.2,2.2,2.6,2.9,4.2c0.7,1.6,1,3.3,1,5.2c0,1.8-0.3,3.5-1,5.2
		c-0.7,1.6-1.6,3-2.9,4.2c-1.2,1.2-2.6,2.2-4.2,2.9c-1.6,0.7-3.3,1-5.2,1c-1.8,0-3.5-0.3-5.2-1c-1.6-0.7-3-1.6-4.2-2.9
		c-1.2-1.2-2.2-2.6-2.8-4.2C2246.1-1335.3,2245.7-1337.1,2245.7-1338.9z M2249.3-1338.9c0,1.3,0.3,2.6,0.8,3.8
		c0.5,1.2,1.2,2.2,2.1,3.1c0.9,0.9,1.9,1.6,3.1,2.1c1.2,0.5,2.4,0.8,3.8,0.8c1.3,0,2.6-0.3,3.8-0.8c1.2-0.5,2.2-1.2,3.1-2.1
		c0.9-0.9,1.6-1.9,2.1-3.1c0.5-1.2,0.8-2.4,0.8-3.8s-0.3-2.6-0.8-3.8c-0.5-1.2-1.2-2.2-2.1-3.1c-0.9-0.9-1.9-1.6-3.1-2.1
		c-1.2-0.5-2.4-0.8-3.8-0.8c-1.3,0-2.6,0.3-3.8,0.8c-1.2,0.5-2.2,1.2-3.1,2.1c-0.9,0.9-1.6,1.9-2.1,3.1
		C2249.6-1341.5,2249.3-1340.2,2249.3-1338.9z M2259-1330.1c-1.2,0-2.4-0.2-3.4-0.7c-1.1-0.5-2-1.1-2.8-1.9
		c-0.8-0.8-1.4-1.7-1.9-2.8c-0.5-1.1-0.7-2.2-0.7-3.4c0-1.2,0.2-2.3,0.7-3.4c0.5-1.1,1.1-2,1.9-2.8c0.8-0.8,1.7-1.4,2.8-1.9
		c1.1-0.5,2.2-0.7,3.4-0.7s2.3,0.2,3.4,0.7c1.1,0.5,2,1.1,2.8,1.9c0.8,0.8,1.4,1.7,1.9,2.8c0.5,1.1,0.7,2.2,0.7,3.4
		c0,1.2-0.2,2.4-0.7,3.4c-0.5,1.1-1.1,2-1.9,2.8c-0.8,0.8-1.7,1.4-2.8,1.9C2261.4-1330.4,2260.3-1330.1,2259-1330.1z M2253.7-1338.9
		c0,0.7,0.1,1.4,0.4,2.1c0.3,0.6,0.7,1.2,1.1,1.7c0.5,0.5,1,0.9,1.7,1.1c0.6,0.3,1.3,0.4,2.1,0.4c0.7,0,1.4-0.1,2.1-0.4
		c0.6-0.3,1.2-0.7,1.7-1.1c0.5-0.5,0.9-1,1.1-1.7c0.3-0.6,0.4-1.3,0.4-2.1s-0.1-1.4-0.4-2.1c-0.3-0.6-0.7-1.2-1.1-1.7
		c-0.5-0.5-1-0.9-1.7-1.1c-0.6-0.3-1.3-0.4-2.1-0.4c-0.7,0-1.4,0.1-2.1,0.4c-0.6,0.3-1.2,0.7-1.7,1.1c-0.5,0.5-0.9,1-1.1,1.7
		C2253.9-1340.3,2253.7-1339.6,2253.7-1338.9z"/>
	<path class="st1" d="M2290.6-1342.9c-0.5-0.4-1-0.7-1.7-0.9c-0.7-0.2-1.4-0.3-2-0.3c-0.7,0-1.4,0.1-2,0.4c-0.6,0.3-1.1,0.6-1.6,1.1
		c-0.4,0.5-0.8,1-1,1.7c-0.3,0.7-0.4,1.4-0.4,2.1c0,0.8,0.1,1.5,0.4,2.1c0.3,0.7,0.7,1.2,1.1,1.7c0.5,0.5,1,0.8,1.7,1.1
		s1.3,0.4,2.1,0.4c0.9,0,1.6-0.2,2.4-0.6c0.7-0.4,1.3-0.9,1.8-1.5h-2.3v-5.3h9.8v8.4c-0.6,1-1.3,2-2.1,2.8c-0.8,0.8-1.7,1.6-2.7,2.2
		c-1,0.6-2.1,1.1-3.2,1.4c-1.2,0.3-2.4,0.5-3.6,0.5c-1.8,0-3.5-0.3-5.2-1c-1.6-0.7-3-1.6-4.2-2.8c-1.2-1.2-2.2-2.6-2.8-4.2
		c-0.7-1.6-1-3.4-1-5.2c0-1.8,0.3-3.5,1-5.2c0.7-1.6,1.6-3,2.7-4.2c1.2-1.2,2.5-2.2,4.1-2.9c1.6-0.7,3.3-1,5.1-1
		c1.4,0,2.6,0.1,3.7,0.4c1,0.3,1.9,0.6,2.6,1c0.8,0.4,1.5,0.8,2.1,1.3L2290.6-1342.9z M2291-1347.9c-0.3-0.2-0.7-0.3-1.1-0.4
		c-0.4-0.1-0.8-0.2-1.3-0.3c-0.5-0.1-1-0.1-1.6-0.1c-1.3,0-2.6,0.2-3.8,0.7c-1.2,0.5-2.2,1.1-3,2c-0.9,0.8-1.5,1.9-2,3.1
		c-0.5,1.2-0.7,2.5-0.7,4c0,1.4,0.3,2.8,0.8,4c0.5,1.2,1.2,2.2,2.1,3.1c0.9,0.8,1.9,1.5,3.1,2c1.2,0.5,2.4,0.7,3.8,0.7
		c1.7,0,3.3-0.4,4.8-1.2c1.4-0.8,2.6-1.9,3.5-3.3v-5h-4v0.9h3v3.8c-0.8,1.2-1.8,2.1-3.1,2.8c-1.3,0.7-2.6,1-4.2,1
		c-1.2,0-2.4-0.2-3.4-0.6c-1.1-0.4-2-1-2.8-1.8c-0.8-0.8-1.4-1.7-1.9-2.8c-0.5-1.1-0.7-2.3-0.7-3.6s0.2-2.5,0.7-3.6
		c0.4-1.1,1.1-2,1.8-2.8c0.8-0.8,1.7-1.4,2.7-1.8c1-0.4,2.2-0.6,3.4-0.6c0.5,0,0.9,0,1.3,0.1c0.4,0.1,0.8,0.2,1.1,0.2
		c0.4,0.1,0.7,0.2,1,0.3L2291-1347.9z"/>
	<path class="st1" d="M2300.9-1351.6h8.7c1.6,0,3.1,0.2,4.5,0.6c1.4,0.4,2.6,1.1,3.6,1.9c1,0.8,1.8,1.9,2.4,3.1
		c0.6,1.2,0.9,2.6,0.9,4.2c0,1.3-0.2,2.3-0.5,3.2c-0.4,0.9-0.7,1.6-1.2,2.2c-0.5,0.7-1.1,1.2-1.7,1.7l4.8,8.4h-9.5l-3.8-6.4v6.4
		h-8.1V-1351.6z M2308.8-1335c1,0,2-0.1,2.9-0.3l3.6,6.1h1.2l-3.8-6.4c1.4-0.5,2.5-1.2,3.3-2.2c0.8-1,1.2-2.3,1.2-3.9
		c0-1.1-0.2-2.1-0.6-2.9c-0.4-0.8-1-1.5-1.8-2.1c-0.7-0.6-1.6-1-2.6-1.3c-1-0.3-2.1-0.4-3.3-0.4h-4.1v19.3h1v-5.8H2308.8z
		 M2305.7-1336v-11.7h3.1c2.3,0,4.1,0.5,5.4,1.5c1.3,1,2,2.5,2,4.3c0,1.9-0.7,3.3-2,4.3c-1.3,1-3.1,1.5-5.4,1.5H2305.7z
		 M2309-1339.1h0.4c1,0,1.8-0.2,2.5-0.6c0.7-0.4,1-1.2,1-2.2s-0.3-1.7-1-2.2c-0.7-0.4-1.5-0.6-2.5-0.6h-0.4V-1339.1z"/>
	<path class="st1" d="M2330.6-1351.6h6.1l9.6,25.3h-8l-0.8-2.3h-7.7l-0.8,2.3h-8L2330.6-1351.6z M2326.6-1329.3l0.7-1.9h12.5
		l0.7,1.9h1.1l-7.3-19.3h-1.4l-7.3,19.3H2326.6z M2333.6-1347.6l5.9,15.5h-11.9L2333.6-1347.6z M2335.3-1334.1l-1.7-4.4l-1.7,4.4
		H2335.3z"/>
	<path class="st1" d="M2346.9-1351.6h6.7l6.6,9.7l6.6-9.7h6.7v25.3h-8.1v-9.1l-5.2,7.6l-5.2-7.6v9.1h-8.1V-1351.6z M2351.7-1329.3
		v-17.4l8.5,12.4l8.5-12.4v17.4h1v-19.3h-1l-8.5,12.5l-8.5-12.5h-1v19.3H2351.7z"/>
	<path class="st1" d="M2383.6-1351.6h6.1l9.6,25.3h-8l-0.8-2.3h-7.7l-0.8,2.3h-8L2383.6-1351.6z M2379.7-1329.3l0.7-1.9h12.5
		l0.7,1.9h1.1l-7.3-19.3h-1.4l-7.3,19.3H2379.7z M2386.6-1347.6l5.9,15.5h-11.9L2386.6-1347.6z M2388.4-1334.1l-1.7-4.4l-1.7,4.4
		H2388.4z"/>
	<path class="st1" d="M2399.3-1338.9c0-2,0.4-3.9,1.1-5.5c0.7-1.6,1.7-3,2.9-4.2c1.2-1.2,2.6-2.1,4.3-2.7c1.6-0.6,3.3-0.9,5.2-0.9
		c1.4,0,2.7,0.1,3.9,0.4c1.1,0.3,2.1,0.6,2.9,1c0.9,0.4,1.7,0.8,2.4,1.3l-4,7c-0.4-0.3-0.8-0.6-1.3-0.9c-0.4-0.2-0.9-0.4-1.5-0.6
		c-0.6-0.2-1.3-0.3-2-0.3c-0.8,0-1.5,0.1-2.2,0.4c-0.7,0.3-1.2,0.7-1.7,1.1c-0.5,0.5-0.9,1-1.2,1.7c-0.3,0.6-0.4,1.3-0.4,2.1
		s0.1,1.4,0.4,2.1c0.3,0.6,0.7,1.2,1.2,1.7c0.5,0.5,1.1,0.9,1.8,1.1c0.7,0.3,1.4,0.4,2.2,0.4c0.8,0,1.5-0.1,2.2-0.3
		c0.6-0.2,1.2-0.4,1.6-0.7c0.5-0.3,0.9-0.6,1.3-1l4,7c-0.7,0.6-1.5,1.1-2.4,1.5c-0.8,0.4-1.8,0.7-2.9,1c-1.1,0.3-2.4,0.5-3.9,0.5
		c-2,0-3.8-0.3-5.5-1c-1.7-0.6-3.1-1.6-4.3-2.7c-1.2-1.2-2.2-2.6-2.9-4.2C2399.6-1335.1,2399.3-1336.9,2399.3-1338.9z
		 M2404.1-1338.9c0-1.2,0.2-2.4,0.6-3.4c0.4-1.1,1-2,1.8-2.8c0.8-0.8,1.7-1.4,2.8-1.9s2.3-0.7,3.6-0.7c0.7,0,1.2,0,1.8,0.1
		c0.5,0.1,1,0.2,1.3,0.3c0.4,0.1,0.8,0.3,1.1,0.5l0.5-0.9c-0.4-0.2-0.8-0.3-1.3-0.5c-0.4-0.1-0.9-0.2-1.5-0.3
		c-0.6-0.1-1.2-0.2-1.9-0.2c-1.3,0-2.5,0.2-3.7,0.7c-1.2,0.5-2.2,1.1-3.1,2c-0.9,0.8-1.6,1.9-2.2,3.1c-0.5,1.2-0.8,2.5-0.8,4
		c0,1.5,0.3,2.8,0.8,4c0.5,1.2,1.2,2.2,2.1,3.1c0.9,0.8,2,1.5,3.2,2c1.2,0.5,2.5,0.7,3.9,0.7c0.8,0,1.4-0.1,2.1-0.2
		c0.6-0.1,1.1-0.3,1.6-0.4c0.5-0.2,0.9-0.4,1.3-0.6l-0.5-0.9c-0.3,0.2-0.7,0.4-1.1,0.6c-0.4,0.2-0.8,0.3-1.4,0.4
		c-0.5,0.1-1.2,0.2-1.9,0.2c-1.4,0-2.6-0.2-3.8-0.7c-1.1-0.5-2.1-1.1-2.8-1.9c-0.8-0.8-1.4-1.7-1.8-2.8S2404.1-1337.7,2404.1-1338.9
		z"/>
	<path class="st1" d="M2423.2-1351.6h8.6v25.3h-8.6V-1351.6z M2428-1329.3v-19.3h-1v19.3H2428z"/>
	<path class="st1" d="M2433.9-1338.9c0-1.8,0.3-3.5,1-5.2c0.7-1.6,1.6-3,2.8-4.2c1.2-1.2,2.6-2.2,4.2-2.9c1.6-0.7,3.3-1,5.2-1
		c1.8,0,3.5,0.3,5.2,1c1.6,0.7,3,1.6,4.2,2.9c1.2,1.2,2.2,2.6,2.9,4.2c0.7,1.6,1,3.3,1,5.2c0,1.8-0.3,3.5-1,5.2
		c-0.7,1.6-1.6,3-2.9,4.2c-1.2,1.2-2.6,2.2-4.2,2.9c-1.6,0.7-3.3,1-5.2,1c-1.8,0-3.5-0.3-5.2-1c-1.6-0.7-3-1.6-4.2-2.9
		c-1.2-1.2-2.2-2.6-2.8-4.2C2434.2-1335.3,2433.9-1337.1,2433.9-1338.9z M2437.5-1338.9c0,1.3,0.3,2.6,0.8,3.8
		c0.5,1.2,1.2,2.2,2.1,3.1c0.9,0.9,1.9,1.6,3.1,2.1c1.2,0.5,2.4,0.8,3.8,0.8c1.3,0,2.6-0.3,3.8-0.8c1.2-0.5,2.2-1.2,3.1-2.1
		c0.9-0.9,1.6-1.9,2.1-3.1c0.5-1.2,0.8-2.4,0.8-3.8s-0.3-2.6-0.8-3.8c-0.5-1.2-1.2-2.2-2.1-3.1c-0.9-0.9-1.9-1.6-3.1-2.1
		c-1.2-0.5-2.4-0.8-3.8-0.8c-1.3,0-2.6,0.3-3.8,0.8c-1.2,0.5-2.2,1.2-3.1,2.1c-0.9,0.9-1.6,1.9-2.1,3.1
		C2437.7-1341.5,2437.5-1340.2,2437.5-1338.9z M2447.2-1330.1c-1.2,0-2.4-0.2-3.4-0.7c-1.1-0.5-2-1.1-2.8-1.9
		c-0.8-0.8-1.4-1.7-1.9-2.8c-0.5-1.1-0.7-2.2-0.7-3.4c0-1.2,0.2-2.3,0.7-3.4c0.5-1.1,1.1-2,1.9-2.8c0.8-0.8,1.7-1.4,2.8-1.9
		c1.1-0.5,2.2-0.7,3.4-0.7s2.3,0.2,3.4,0.7c1.1,0.5,2,1.1,2.8,1.9c0.8,0.8,1.4,1.7,1.9,2.8c0.5,1.1,0.7,2.2,0.7,3.4
		c0,1.2-0.2,2.4-0.7,3.4c-0.5,1.1-1.1,2-1.9,2.8c-0.8,0.8-1.7,1.4-2.8,1.9C2449.5-1330.4,2448.4-1330.1,2447.2-1330.1z
		 M2441.9-1338.9c0,0.7,0.1,1.4,0.4,2.1c0.3,0.6,0.7,1.2,1.1,1.7c0.5,0.5,1,0.9,1.7,1.1c0.6,0.3,1.3,0.4,2.1,0.4
		c0.7,0,1.4-0.1,2.1-0.4c0.6-0.3,1.2-0.7,1.7-1.1c0.5-0.5,0.9-1,1.1-1.7c0.3-0.6,0.4-1.3,0.4-2.1s-0.1-1.4-0.4-2.1
		c-0.3-0.6-0.7-1.2-1.1-1.7c-0.5-0.5-1-0.9-1.7-1.1c-0.6-0.3-1.3-0.4-2.1-0.4c-0.7,0-1.4,0.1-2.1,0.4c-0.6,0.3-1.2,0.7-1.7,1.1
		c-0.5,0.5-0.9,1-1.1,1.7C2442-1340.3,2441.9-1339.6,2441.9-1338.9z M2448.9-1353.1h-4.3l3.2-5.9h5L2448.9-1353.1z M2447.2-1354.6
		h0.8l1.9-2.9h-1.1L2447.2-1354.6z"/>
	<path class="st1" d="M2462.6-1351.6h6.6l7,9.8v-9.8h7.9v25.3h-6.7l-7-9.7v9.7h-7.9V-1351.6z M2467.1-1329.3v-17.6l12.5,17.6h1
		v-19.3h-1v17.6l-12.5-17.6h-1v19.3H2467.1z"/>
	<path class="st2" d="M2492.3-1351.6h8.6l2.9,8.9l2.9-8.9h5.5l2.9,8.9l2.9-8.9h8.6l-8.4,25.3h-6.3l-2.5-7.7l-2.5,7.7h-6.3
		L2492.3-1351.6z M2504.5-1329.3l5.1-15.9l5.1,15.9h1l6.3-19.3h-1l-5.8,17.5l-5.5-17.5l-5.5,17.5l-5.8-17.5h-1l6.3,19.3H2504.5z"/>
	<path class="st2" d="M2527.3-1351.6h14.9v6.7h-6.8v2.8h6.7v6.3h-6.7v2.9h7.1v6.6h-15.2V-1351.6z M2539.7-1329.3v-0.9h-7.6v-8.3h7.2
		v-0.9h-7.2v-8.2h7.6v-0.9h-8.6v19.3H2539.7z"/>
	<path class="st2" d="M2544.8-1351.6h9.9c1.3,0,2.4,0.1,3.5,0.4c1.1,0.3,2,0.7,2.7,1.3c0.7,0.6,1.3,1.3,1.7,2.1s0.6,1.8,0.6,3
		c0,0.8-0.1,1.5-0.3,2.1c-0.2,0.6-0.4,1-0.6,1.4c-0.3,0.5-0.6,0.8-1,1.1c0.6,0.4,1.1,0.8,1.5,1.4c0.4,0.5,0.7,1.1,1,1.8
		c0.3,0.7,0.5,1.6,0.5,2.7c0,1.2-0.2,2.3-0.6,3.3c-0.4,1-1,1.8-1.8,2.5c-0.8,0.7-1.8,1.2-2.9,1.6c-1.2,0.4-2.4,0.6-3.9,0.6h-10.3
		V-1351.6z M2554.1-1329.3c2.2,0,3.9-0.5,4.9-1.4c1.1-1,1.6-2.2,1.6-3.8c0-1-0.2-1.9-0.7-2.5c-0.4-0.6-0.9-1.1-1.4-1.5
		c-0.6-0.4-1.3-0.7-2.1-0.8c0.6-0.2,1.2-0.5,1.6-0.8c0.4-0.3,0.8-0.8,1.2-1.3c0.3-0.6,0.5-1.3,0.5-2.2c0-1.6-0.5-2.8-1.5-3.6
		c-1-0.8-2.4-1.2-4.1-1.2h-5.5v19.3H2554.1z M2549.6-1339.8v-7.8h4.5c1.6,0,2.8,0.4,3.6,1.1c0.7,0.7,1.1,1.7,1.1,2.8
		c0,1.2-0.4,2.1-1.1,2.8c-0.7,0.7-1.9,1.1-3.6,1.1H2549.6z M2549.6-1330.2v-8.7h4.4c0.8,0,1.5,0.1,2.2,0.2c0.7,0.2,1.3,0.4,1.8,0.8
		c0.5,0.3,0.9,0.8,1.2,1.3c0.3,0.6,0.4,1.2,0.4,2c0,1.5-0.5,2.7-1.5,3.3c-1,0.7-2.4,1-4,1H2549.6z M2555.4-1343.9
		c0-1.2-0.6-1.7-1.9-1.7h-0.9v3.5h0.9C2554.8-1342.1,2555.4-1342.7,2555.4-1343.9z M2553.5-1332.2c1.9,0,2.9-0.7,2.9-2.2
		s-1-2.2-2.9-2.2h-0.9v4.4H2553.5z"/>
</g>
<text transform="matrix(1 0 0 1 2201.1211 -1221.3892)" class="st0" style="font-family:'Roboto-Condensed'; font-size:16px;">Sígueme: </text>
<rect x="2184" y="-1175" class="st3" width="511" height="34"/>
<rect x="2184" y="-1141" class="st4" width="1022" height="464"/>
<rect x="2184" y="-677" class="st5" width="511" height="217"/>
<text transform="matrix(1 0 0 1 2197 -1151)" style="font-family:'Roboto-BoldCondensed'; font-size:18px;">DESCRIPCIÓN DEL CURSO</text>
<rect x="2233.1" y="-1028" style="fill-rule:evenodd;clip-rule:evenodd;fill:none;" width="892.9" height="156"/>
<text transform="matrix(0.9485 0 0 1 2233.0723 -1016.8965)"><tspan x="0" y="0" style="font-family:'AppleGaramond'; font-size:16px;">Conoce la diversidad de frameworks y herramientas en línea utilizadas en los procesos de diseño web.</tspan><tspan x="0" y="31" style="font-family:'AppleGaramond'; font-size:16px;">Comprende la diferencia entre maquetación y programación backend y frontend.</tspan><tspan x="0" y="62" style="font-family:'AppleGaramond'; font-size:16px;">Aplica los principales lenguajes de maquetación y programación: HTML; CSS; Javascript y PHP; así como los protocolos de informática para su publicación en línea.</tspan><tspan x="0" y="93" style="font-family:'AppleGaramond'; font-size:16px;">Analiza y evalúa las necesidades de cada uno de los proyectos para aplicar lo comprendido en la asignatura.</tspan><tspan x="0" y="124" style="font-family:'AppleGaramond'; font-size:16px;">Crea sitios funcionales capaces de resolver requerimientos propios del ambiente web.</tspan></text>
<rect x="2209" y="-618" style="fill-rule:evenodd;clip-rule:evenodd;fill:none;" width="458" height="158"/>
<text transform="matrix(0.9485 0 0 1 2209 -606.8965)"><tspan x="0" y="0" class="st2" style="font-family:'AppleGaramond'; font-size:16px;">1.1. HTML no es un lenguaje de programación </tspan><tspan x="0" y="31" class="st2" style="font-family:'AppleGaramond'; font-size:16px;">1.2. CSS: Sintaxis y estructura</tspan><tspan x="0" y="62" class="st2" style="font-family:'AppleGaramond'; font-size:16px;">1.3. Integración de HTML y CSS</tspan><tspan x="0" y="93" class="st2" style="font-family:'AppleGaramond'; font-size:16px;">1.4. Frameworks de maquetación</tspan><tspan x="0" y="124" class="st2" style="font-family:'AppleGaramond'; font-size:16px;">1.5. Comparativa y uso de frameworks</tspan></text>
<rect x="2209" y="-1113" style="fill-rule:evenodd;clip-rule:evenodd;fill:none;" width="335" height="20"/>
<text transform="matrix(1 0 0 1 2209 -1096.2422)" style="font-family:'Roboto-Black'; font-size:22px;">Planeación de la asignatura</text>
<rect x="2209" y="-1082" style="fill-rule:evenodd;clip-rule:evenodd;fill:none;" width="506" height="43"/>
<text transform="matrix(1 0 0 1 2209 -1068.2891)" style="font-family:'Roboto-Bold'; font-size:18px;">Resultados de aprendizaje de la asignatura del alumno:</text>
<g>
	<rect x="2184.5" y="-194.5" class="st6" width="1021" height="135.5"/>
	<path class="st1" d="M3205-194v134.5H2185V-194H3205 M3206-195H2184v136.5h1022V-195L3206-195z"/>
</g>
<rect x="2184" y="-243" class="st3" width="1022" height="48"/>
<rect x="2554.5" y="-130" style="fill-rule:evenodd;clip-rule:evenodd;fill:none;" width="281" height="65"/>
<text transform="matrix(0.9485 0 0 1 2612.9561 -118.8965)"><tspan x="0" y="0" style="font-family:'AppleGaramond'; font-size:16px;">Miércoles: 19:00 a 22:00 horas</tspan><tspan x="9.1" y="31" style="font-family:'AppleGaramond'; font-size:16px;">Jueves: 11:30 a 13:00 horas</tspan></text>
<g>
	<rect x="2568.5" y="-225" style="fill:none;" width="253" height="20"/>
	<text transform="matrix(1 0 0 1 2650.8657 -211.2891)" style="font-family:'Roboto-Bold'; font-size:18px;">HORARIOS</text>
</g>
<rect x="2554.5" y="-184" style="fill-rule:evenodd;clip-rule:evenodd;fill:none;" width="281" height="43"/>
<text transform="matrix(1 0 0 1 2575.3721 -170.2891)"><tspan x="0" y="0" style="font-family:'Roboto-Bold'; font-size:18px;">Inicio de clases: 10 de agosto</tspan><tspan x="-0.1" y="21.6" style="font-family:'Roboto-Bold'; font-size:18px;">Fin de clases: 12de diciembre</tspan></text>
<g>
	<rect x="2184" y="0.5" class="st6" width="1022" height="64.5"/>
	<path class="st7" d="M3205.5,1v63.5h-1021V1H3205.5 M3206.5,0h-1023v65.5h1023V0L3206.5,0z"/>
</g>
<rect x="2183.5" y="-48" class="st5" width="1023" height="48"/>
<g>
	<rect x="2568.5" y="-30" style="fill:none;" width="253" height="20"/>
	<text transform="matrix(1 0 0 1 2648.7607 -16.2891)" class="st2" style="font-family:'Roboto-Bold'; font-size:18px;">CONTACTO</text>
</g>
<rect x="2554.5" y="22" style="fill-rule:evenodd;clip-rule:evenodd;fill:none;" width="281" height="32"/>
<text transform="matrix(1 0 0 1 2613.7979 35.7109)" style="font-family:'Roboto-Bold'; font-size:18px;">oscar@webxsp.com</text>
<circle class="st8" cx="2224" cy="-1022" r="3"/>
<circle class="st8" cx="2224" cy="-992" r="3"/>
<circle class="st8" cx="2224" cy="-961" r="3"/>
<circle class="st8" cx="2224" cy="-928" r="3"/>
<circle class="st8" cx="2224" cy="-898" r="3"/>
<text transform="matrix(1 0 0 1 2231 -815)"><tspan x="0" y="0" style="font-family:'Roboto-Bold'; font-size:15px;">Introducción a la programación </tspan><tspan x="214" y="0" style="font-family:'Roboto-BoldItalic'; font-size:15px;">frontend</tspan></text>
<text transform="matrix(1 0 0 1 2231 -781)"><tspan x="0" y="0" style="font-family:'Roboto-Bold'; font-size:15px;">Programación </tspan><tspan x="98.6" y="0" style="font-family:'Roboto-BoldItalic'; font-size:15px;">frontend</tspan></text>
<text transform="matrix(1 0 0 1 2231 -747)"><tspan x="0" y="0" style="font-family:'Roboto-Bold'; font-size:15px;">Programación </tspan><tspan x="98.6" y="0" style="font-family:'Roboto-BoldItalic'; font-size:15px;">backend</tspan></text>
<text transform="matrix(1 0 0 1 2231 -713)"><tspan x="0" y="0" style="font-family:'Roboto-Bold'; font-size:15px;">Conocimientos técnicos </tspan><tspan x="166.1" y="0" style="font-family:'Roboto-BoldItalic'; font-size:15px;">web</tspan></text>
<text transform="matrix(1 0 0 1 2209 -641)"><tspan x="0" y="0" class="st2" style="font-family:'Roboto-Bold'; font-size:18px;">1. Introducción a la programación </tspan><tspan x="276.8" y="0" class="st2" style="font-family:'Roboto-BoldItalic'; font-size:18px;">frontend</tspan></text>
<rect x="2695" y="-460" class="st9" width="511" height="217"/>
<rect x="2720" y="-401" style="fill-rule:evenodd;clip-rule:evenodd;fill:none;" width="458" height="158"/>
<text transform="matrix(0.9485 0 0 1 2720 -389.8965)"><tspan x="0" y="0" style="font-family:'AppleGaramond'; font-size:16px;">4.1. Básicos de HTTP; FTP y SMTP</tspan><tspan x="0" y="31" style="font-family:'AppleGaramond'; font-size:16px;">4.2. Información del servidor</tspan><tspan x="0" y="62" style="font-family:'AppleGaramond'; font-size:16px;">4.3. Dominio</tspan><tspan x="0" y="93" style="font-family:'AppleGaramond'; font-size:16px;">4.4. Manejo de niveles en certificados de seguridad (SSL)</tspan><tspan x="0" y="124" style="font-family:'AppleGaramond'; font-size:16px;">4.5. Manteniendo el estado</tspan></text>
<text transform="matrix(1 0 0 1 2720 -424)"><tspan x="0" y="0" style="font-family:'Roboto-Bold'; font-size:18px;">4. Introducción a la programación </tspan><tspan x="276.8" y="0" style="font-family:'Roboto-BoldItalic'; font-size:18px;">frontend</tspan></text>
<rect x="2184" y="-460" class="st10" width="511" height="217"/>
<rect x="2209" y="-401" style="fill-rule:evenodd;clip-rule:evenodd;fill:none;" width="458" height="158"/>
<text transform="matrix(0.9485 0 0 1 2209 -389.8965)"><tspan x="0" y="0" style="font-family:'AppleGaramond'; font-size:16px;">3.1. Introducción al PHP</tspan><tspan x="0" y="31" style="font-family:'AppleGaramond'; font-size:16px;">3.2. Elementos básicos del lenguaje</tspan><tspan x="0" y="62" style="font-family:'AppleGaramond'; font-size:16px;">3.3. Incrustando código PHP en un HTML</tspan><tspan x="0" y="93" style="font-family:'AppleGaramond'; font-size:16px;">3.4. Frameworks de implementación de PHP</tspan><tspan x="0" y="124" style="font-family:'AppleGaramond'; font-size:16px;">3.5. Manejo de gestores de contenido CMS</tspan></text>
<text transform="matrix(1 0 0 1 2209 -424)"><tspan x="0" y="0" style="font-family:'Roboto-Bold'; font-size:18px;">3. Programación </tspan><tspan x="138.3" y="0" style="font-family:'Roboto-BoldItalic'; font-size:18px;">backend</tspan></text>
<rect x="2695" y="-676" class="st3" width="511" height="216"/>
<rect x="2720" y="-617" style="fill-rule:evenodd;clip-rule:evenodd;fill:none;" width="458" height="99"/>
<text transform="matrix(0.9485 0 0 1 2720 -605.8965)"><tspan x="0" y="0" style="font-family:'AppleGaramond'; font-size:16px;">2.1. Tipos de datos en los lenguajes de programación </tspan><tspan x="0" y="31" style="font-family:'AppleGaramond'; font-size:16px;">2.2. Operaciones básicas de la programación</tspan><tspan x="0" y="62" style="font-family:'AppleGaramond'; font-size:16px;">2.3. Javascript: Frameworks de animación</tspan></text>
<text transform="matrix(1 0 0 1 2720 -640)"><tspan x="0" y="0" style="font-family:'Roboto-Bold'; font-size:18px;">2. Programación </tspan><tspan x="138.3" y="0" style="font-family:'Roboto-BoldItalic'; font-size:18px;">frontend</tspan></text>
<line class="st11" x1="2209" y1="-860" x2="3126" y2="-860"/>
<polygon class="st12" points="2222,-819.3 2209.3,-826.7 2209.3,-812 "/>
<polygon class="st12" points="2222,-786.3 2209.3,-793.7 2209.3,-779 "/>
<polygon class="st12" points="2222,-752.3 2209.3,-759.7 2209.3,-745 "/>
<polygon class="st12" points="2222,-718.3 2209.3,-725.7 2209.3,-711 "/>
<g>
	<g id="post-linkedin_1_">
		<path class="st0" d="M2285-1236h-16c-1.1,0-2,0.9-2,2v16c0,1.1,0.9,2,2,2h16c1.1,0,2-0.9,2-2v-16
			C2287-1235.1,2286.1-1236,2285-1236z M2273-1219h-3v-9h3V-1219z M2271.5-1229.7c-1,0-1.8-0.8-1.8-1.8s0.8-1.8,1.8-1.8
			s1.8,0.8,1.8,1.8S2272.5-1229.7,2271.5-1229.7z M2284-1219h-3v-5.3c0-0.8-0.7-1.5-1.5-1.5s-1.5,0.7-1.5,1.5v5.3h-3v-9h3v1.2
			c0.5-0.8,1.6-1.4,2.5-1.4c1.9,0,3.5,1.6,3.5,3.5V-1219z"/>
	</g>
</g>
<text transform="matrix(1 0 0 1 2199.9902 -1274)" class="st2" style="font-family:'Roboto-Bold'; font-size:18px;">DGC. Oscar Tello</text>
<rect x="4672" y="-1364" class="st0" width="378" height="98"/>
<rect x="4672" y="589" class="st0" width="378" height="19"/>
<g>
	<path class="st1" d="M4707.9-1338c0,1.4-0.3,2.7-0.8,3.7c-0.5,1-1.2,1.8-2.1,2.5c-0.9,0.6-1.9,1.1-3.1,1.4
		c-1.2,0.3-2.4,0.4-3.8,0.4v5h-6.7v-21h6.7c1.3,0,2.6,0.1,3.8,0.4c1.2,0.3,2.2,0.8,3.1,1.4c0.9,0.6,1.6,1.5,2.1,2.5
		C4707.6-1340.7,4707.9-1339.4,4707.9-1338z M4704.8-1338c0-0.9-0.2-1.8-0.5-2.5c-0.3-0.7-0.8-1.3-1.4-1.7c-0.6-0.4-1.3-0.8-2.1-1
		c-0.8-0.2-1.7-0.3-2.6-0.3h-3.6v16h0.8v-5h2.7c0.9,0,1.8-0.1,2.6-0.3c0.8-0.2,1.5-0.6,2.1-1c0.6-0.4,1-1,1.4-1.7
		C4704.6-1336.2,4704.8-1337,4704.8-1338z M4703.9-1338c0,0.9-0.2,1.7-0.5,2.3c-0.3,0.6-0.7,1.1-1.3,1.4c-0.5,0.4-1.1,0.6-1.8,0.8
		c-0.7,0.2-1.4,0.2-2.2,0.2h-2.7v-9.4h2.7c0.8,0,1.5,0.1,2.2,0.2c0.7,0.2,1.3,0.4,1.8,0.8c0.5,0.4,0.9,0.8,1.3,1.4
		C4703.8-1339.6,4703.9-1338.9,4703.9-1338z M4698.2-1335.7h0.3c0.9,0,1.5-0.2,1.9-0.6c0.4-0.4,0.6-1,0.6-1.7s-0.2-1.3-0.6-1.7
		c-0.4-0.4-1-0.6-1.9-0.6h-0.3V-1335.7z"/>
	<path class="st1" d="M4709.4-1346h7.2c1.3,0,2.6,0.2,3.7,0.5c1.1,0.4,2.1,0.9,3,1.6c0.8,0.7,1.5,1.5,2,2.6c0.5,1,0.7,2.2,0.7,3.5
		c0,1.1-0.1,1.9-0.4,2.7s-0.6,1.3-1,1.8c-0.4,0.5-0.9,1-1.4,1.4l3.9,6.9h-7.9l-3.1-5.3v5.3h-6.7V-1346z M4716-1332.3
		c0.8,0,1.6-0.1,2.4-0.3l3,5h1l-3.1-5.3c1.1-0.4,2-1,2.7-1.8c0.7-0.8,1-1.9,1-3.2c0-0.9-0.2-1.7-0.5-2.4c-0.4-0.7-0.8-1.3-1.5-1.7
		c-0.6-0.5-1.3-0.8-2.2-1.1c-0.8-0.2-1.8-0.4-2.7-0.4h-3.4v16h0.8v-4.8H4716z M4713.4-1333v-9.7h2.6c1.9,0,3.4,0.4,4.5,1.3
		c1.1,0.8,1.6,2,1.6,3.6c0,1.6-0.5,2.7-1.6,3.6c-1.1,0.8-2.6,1.2-4.5,1.2H4713.4z M4716.1-1335.7h0.3c0.8,0,1.5-0.2,2-0.5
		c0.6-0.4,0.8-1,0.8-1.8s-0.3-1.4-0.8-1.8c-0.6-0.4-1.2-0.5-2-0.5h-0.3V-1335.7z"/>
	<path class="st1" d="M4727.3-1335.5c0-1.5,0.3-2.9,0.9-4.3c0.6-1.3,1.4-2.5,2.4-3.5c1-1,2.2-1.8,3.5-2.4c1.3-0.6,2.8-0.9,4.3-0.9
		c1.5,0,2.9,0.3,4.3,0.9c1.3,0.6,2.5,1.4,3.5,2.4c1,1,1.8,2.2,2.4,3.5c0.6,1.3,0.9,2.8,0.9,4.3c0,1.5-0.3,2.9-0.9,4.3
		c-0.6,1.3-1.4,2.5-2.4,3.5c-1,1-2.2,1.8-3.5,2.4c-1.3,0.6-2.8,0.9-4.3,0.9c-1.5,0-2.9-0.3-4.3-0.9c-1.3-0.6-2.5-1.4-3.5-2.4
		c-1-1-1.8-2.2-2.4-3.5C4727.6-1332.5,4727.3-1334,4727.3-1335.5z M4730.3-1335.5c0,1.1,0.2,2.2,0.6,3.1c0.4,1,1,1.8,1.7,2.6
		c0.7,0.7,1.6,1.3,2.6,1.7c1,0.4,2,0.6,3.1,0.6c1.1,0,2.2-0.2,3.1-0.6c1-0.4,1.8-1,2.6-1.7c0.7-0.7,1.3-1.6,1.7-2.6
		c0.4-1,0.6-2,0.6-3.1c0-1.1-0.2-2.2-0.6-3.1c-0.4-1-1-1.8-1.7-2.6c-0.7-0.7-1.6-1.3-2.6-1.7c-1-0.4-2-0.6-3.1-0.6
		c-1.1,0-2.2,0.2-3.1,0.6c-1,0.4-1.8,1-2.6,1.7c-0.7,0.7-1.3,1.6-1.7,2.6C4730.5-1337.6,4730.3-1336.6,4730.3-1335.5z
		 M4738.4-1328.2c-1,0-1.9-0.2-2.8-0.6c-0.9-0.4-1.6-0.9-2.3-1.6c-0.7-0.7-1.2-1.4-1.6-2.3c-0.4-0.9-0.6-1.8-0.6-2.8
		c0-1,0.2-1.9,0.6-2.8c0.4-0.9,0.9-1.6,1.6-2.3c0.7-0.7,1.4-1.2,2.3-1.6c0.9-0.4,1.8-0.6,2.8-0.6s1.9,0.2,2.8,0.6s1.6,0.9,2.3,1.6
		c0.7,0.7,1.2,1.4,1.6,2.3c0.4,0.9,0.6,1.8,0.6,2.8c0,1-0.2,1.9-0.6,2.8c-0.4,0.9-0.9,1.6-1.6,2.3c-0.7,0.7-1.4,1.2-2.3,1.6
		C4740.3-1328.4,4739.4-1328.2,4738.4-1328.2z M4733.9-1335.5c0,0.6,0.1,1.2,0.3,1.7c0.2,0.5,0.5,1,0.9,1.4c0.4,0.4,0.9,0.7,1.4,0.9
		c0.5,0.2,1.1,0.3,1.7,0.3c0.6,0,1.2-0.1,1.7-0.3c0.5-0.2,1-0.5,1.4-0.9c0.4-0.4,0.7-0.9,0.9-1.4c0.2-0.5,0.3-1.1,0.3-1.7
		s-0.1-1.2-0.3-1.7c-0.2-0.5-0.5-1-0.9-1.4c-0.4-0.4-0.9-0.7-1.4-0.9c-0.5-0.2-1.1-0.3-1.7-0.3c-0.6,0-1.2,0.1-1.7,0.3
		c-0.5,0.2-1,0.5-1.4,0.9c-0.4,0.4-0.7,0.9-0.9,1.4C4734.1-1336.6,4733.9-1336.1,4733.9-1335.5z"/>
	<path class="st1" d="M4764.5-1338.8c-0.4-0.3-0.9-0.6-1.4-0.8c-0.6-0.2-1.1-0.3-1.7-0.3c-0.6,0-1.2,0.1-1.7,0.3
		c-0.5,0.2-0.9,0.5-1.3,0.9c-0.4,0.4-0.7,0.9-0.9,1.4c-0.2,0.5-0.3,1.1-0.3,1.8c0,0.6,0.1,1.2,0.3,1.8c0.2,0.5,0.5,1,0.9,1.4
		c0.4,0.4,0.9,0.7,1.4,0.9c0.5,0.2,1.1,0.3,1.7,0.3c0.7,0,1.4-0.2,2-0.5s1.1-0.7,1.5-1.2h-1.9v-4.4h8.1v7c-0.5,0.9-1.1,1.6-1.7,2.3
		c-0.7,0.7-1.4,1.3-2.3,1.8c-0.8,0.5-1.7,0.9-2.7,1.2c-1,0.3-2,0.4-3,0.4c-1.5,0-2.9-0.3-4.3-0.9c-1.3-0.6-2.5-1.3-3.5-2.3
		c-1-1-1.8-2.2-2.4-3.5c-0.6-1.3-0.9-2.8-0.9-4.3c0-1.5,0.3-2.9,0.8-4.3c0.5-1.3,1.3-2.5,2.3-3.5c1-1,2.1-1.8,3.4-2.4
		c1.3-0.6,2.7-0.9,4.2-0.9c1.2,0,2.2,0.1,3.1,0.3c0.9,0.2,1.6,0.5,2.2,0.8c0.7,0.3,1.3,0.7,1.7,1.1L4764.5-1338.8z M4764.8-1342.9
		c-0.3-0.1-0.6-0.2-0.9-0.3c-0.3-0.1-0.6-0.2-1-0.2c-0.4-0.1-0.8-0.1-1.3-0.1c-1.1,0-2.2,0.2-3.1,0.6c-1,0.4-1.8,1-2.5,1.7
		c-0.7,0.7-1.3,1.5-1.7,2.5c-0.4,1-0.6,2.1-0.6,3.3c0,1.2,0.2,2.3,0.6,3.3c0.4,1,1,1.8,1.7,2.5c0.7,0.7,1.6,1.3,2.6,1.7
		c1,0.4,2,0.6,3.1,0.6c1.4,0,2.8-0.3,3.9-1c1.2-0.7,2.1-1.6,2.9-2.7v-4.1h-3.3v0.8h2.5v3.1c-0.7,1-1.5,1.7-2.5,2.3
		c-1,0.6-2.2,0.9-3.4,0.9c-1,0-1.9-0.2-2.8-0.5c-0.9-0.3-1.6-0.8-2.3-1.5c-0.7-0.6-1.2-1.4-1.6-2.3c-0.4-0.9-0.6-1.9-0.6-2.9
		s0.2-2.1,0.6-2.9c0.4-0.9,0.9-1.7,1.5-2.3c0.6-0.6,1.4-1.1,2.3-1.5c0.9-0.3,1.8-0.5,2.8-0.5c0.4,0,0.7,0,1.1,0.1
		c0.3,0.1,0.6,0.1,0.9,0.2c0.3,0.1,0.6,0.2,0.8,0.3L4764.8-1342.9z"/>
	<path class="st1" d="M4773.1-1346h7.2c1.3,0,2.6,0.2,3.7,0.5c1.1,0.4,2.1,0.9,3,1.6c0.8,0.7,1.5,1.5,2,2.6c0.5,1,0.7,2.2,0.7,3.5
		c0,1.1-0.1,1.9-0.4,2.7c-0.3,0.7-0.6,1.3-1,1.8c-0.4,0.5-0.9,1-1.4,1.4l3.9,6.9h-7.9l-3.1-5.3v5.3h-6.7V-1346z M4779.6-1332.3
		c0.8,0,1.6-0.1,2.4-0.3l3,5h1l-3.1-5.3c1.1-0.4,2-1,2.7-1.8c0.7-0.8,1-1.9,1-3.2c0-0.9-0.2-1.7-0.5-2.4c-0.4-0.7-0.8-1.3-1.5-1.7
		c-0.6-0.5-1.3-0.8-2.2-1.1c-0.8-0.2-1.8-0.4-2.7-0.4h-3.4v16h0.8v-4.8H4779.6z M4777-1333v-9.7h2.6c1.9,0,3.4,0.4,4.5,1.3
		c1.1,0.8,1.6,2,1.6,3.6c0,1.6-0.5,2.7-1.6,3.6c-1.1,0.8-2.6,1.2-4.5,1.2H4777z M4779.8-1335.7h0.3c0.8,0,1.5-0.2,2-0.5
		c0.6-0.4,0.8-1,0.8-1.8s-0.3-1.4-0.8-1.8c-0.6-0.4-1.2-0.5-2-0.5h-0.3V-1335.7z"/>
	<path class="st1" d="M4797.7-1346h5l8,21h-6.6l-0.7-1.9h-6.4l-0.7,1.9h-6.6L4797.7-1346z M4794.4-1327.5l0.6-1.6h10.4l0.6,1.6h0.9
		l-6.1-16h-1.2l-6.1,16H4794.4z M4800.2-1342.7l4.9,12.9h-9.8L4800.2-1342.7z M4801.6-1331.5l-1.4-3.7l-1.4,3.7H4801.6z"/>
	<path class="st1" d="M4811.1-1346h5.5l5.5,8.1l5.4-8.1h5.5v21h-6.7v-7.6l-4.3,6.3l-4.3-6.3v7.6h-6.7V-1346z M4815.1-1327.5v-14.5
		l7.1,10.3l7-10.3v14.5h0.8v-16h-0.8l-7,10.4l-7.1-10.4h-0.8v16H4815.1z"/>
	<path class="st1" d="M4841.6-1346h5l8,21h-6.6l-0.7-1.9h-6.4l-0.7,1.9h-6.6L4841.6-1346z M4838.3-1327.5l0.6-1.6h10.4l0.6,1.6h0.9
		l-6.1-16h-1.2l-6.1,16H4838.3z M4844.1-1342.7l4.9,12.9h-9.8L4844.1-1342.7z M4845.5-1331.5l-1.4-3.7l-1.4,3.7H4845.5z"/>
	<path class="st1" d="M4854.6-1335.5c0-1.7,0.3-3.2,0.9-4.6c0.6-1.4,1.4-2.5,2.4-3.5c1-1,2.2-1.7,3.5-2.2c1.3-0.5,2.8-0.8,4.3-0.8
		c1.2,0,2.3,0.1,3.2,0.3c0.9,0.2,1.7,0.5,2.4,0.8c0.8,0.3,1.4,0.7,2,1.1l-3.3,5.8c-0.3-0.3-0.7-0.5-1.1-0.7
		c-0.4-0.2-0.8-0.3-1.3-0.5c-0.5-0.2-1.1-0.2-1.7-0.2c-0.7,0-1.2,0.1-1.8,0.3c-0.5,0.2-1,0.5-1.4,0.9c-0.4,0.4-0.7,0.9-1,1.4
		c-0.2,0.5-0.3,1.1-0.3,1.7s0.1,1.2,0.4,1.7c0.2,0.5,0.6,1,1,1.4c0.4,0.4,0.9,0.7,1.5,0.9c0.6,0.2,1.2,0.3,1.9,0.3
		c0.7,0,1.3-0.1,1.8-0.3c0.5-0.2,1-0.4,1.3-0.6c0.4-0.2,0.8-0.5,1.1-0.8l3.3,5.8c-0.6,0.5-1.2,0.9-2,1.2c-0.7,0.3-1.5,0.6-2.4,0.8
		c-0.9,0.3-2,0.4-3.2,0.4c-1.6,0-3.1-0.3-4.5-0.8c-1.4-0.5-2.6-1.3-3.6-2.3c-1-1-1.8-2.1-2.4-3.5
		C4854.9-1332.3,4854.6-1333.8,4854.6-1335.5z M4858.6-1335.5c0-1,0.2-2,0.5-2.8c0.3-0.9,0.8-1.6,1.5-2.3c0.6-0.7,1.4-1.2,2.3-1.5
		s1.9-0.6,3-0.6c0.5,0,1,0,1.5,0.1c0.4,0.1,0.8,0.2,1.1,0.3c0.4,0.1,0.7,0.2,0.9,0.4l0.4-0.8c-0.3-0.1-0.7-0.3-1.1-0.4
		c-0.4-0.1-0.8-0.2-1.2-0.3c-0.5-0.1-1-0.1-1.6-0.1c-1.1,0-2.1,0.2-3.1,0.6c-1,0.4-1.8,0.9-2.6,1.6c-0.7,0.7-1.3,1.6-1.8,2.6
		c-0.5,1-0.7,2.1-0.7,3.3c0,1.2,0.2,2.4,0.6,3.3c0.4,1,1,1.8,1.8,2.5c0.8,0.7,1.6,1.2,2.6,1.6c1,0.4,2.1,0.6,3.2,0.6
		c0.6,0,1.2-0.1,1.7-0.2c0.5-0.1,0.9-0.2,1.3-0.3c0.4-0.1,0.8-0.3,1.1-0.5l-0.4-0.8c-0.3,0.2-0.6,0.3-0.9,0.5
		c-0.3,0.1-0.7,0.2-1.1,0.3c-0.4,0.1-1,0.1-1.5,0.1c-1.2,0-2.2-0.2-3.1-0.6c-0.9-0.4-1.7-0.9-2.3-1.5c-0.6-0.7-1.1-1.4-1.5-2.3
		C4858.7-1333.5,4858.6-1334.5,4858.6-1335.5z"/>
	<path class="st1" d="M4874.4-1346h7.1v21h-7.1V-1346z M4878.4-1327.5v-16h-0.8v16H4878.4z"/>
	<path class="st1" d="M4883.3-1335.5c0-1.5,0.3-2.9,0.9-4.3c0.6-1.3,1.4-2.5,2.4-3.5c1-1,2.2-1.8,3.5-2.4c1.3-0.6,2.8-0.9,4.3-0.9
		c1.5,0,2.9,0.3,4.3,0.9c1.3,0.6,2.5,1.4,3.5,2.4c1,1,1.8,2.2,2.4,3.5s0.9,2.8,0.9,4.3c0,1.5-0.3,2.9-0.9,4.3
		c-0.6,1.3-1.4,2.5-2.4,3.5c-1,1-2.2,1.8-3.5,2.4c-1.3,0.6-2.8,0.9-4.3,0.9c-1.5,0-2.9-0.3-4.3-0.9c-1.3-0.6-2.5-1.4-3.5-2.4
		c-1-1-1.8-2.2-2.4-3.5C4883.5-1332.5,4883.3-1334,4883.3-1335.5z M4886.2-1335.5c0,1.1,0.2,2.2,0.6,3.1c0.4,1,1,1.8,1.7,2.6
		c0.7,0.7,1.6,1.3,2.6,1.7c1,0.4,2,0.6,3.1,0.6c1.1,0,2.2-0.2,3.1-0.6c1-0.4,1.8-1,2.6-1.7c0.7-0.7,1.3-1.6,1.7-2.6
		c0.4-1,0.6-2,0.6-3.1c0-1.1-0.2-2.2-0.6-3.1c-0.4-1-1-1.8-1.7-2.6c-0.7-0.7-1.6-1.3-2.6-1.7c-1-0.4-2-0.6-3.1-0.6
		c-1.1,0-2.2,0.2-3.1,0.6c-1,0.4-1.8,1-2.6,1.7c-0.7,0.7-1.3,1.6-1.7,2.6C4886.4-1337.6,4886.2-1336.6,4886.2-1335.5z
		 M4894.3-1328.2c-1,0-1.9-0.2-2.8-0.6c-0.9-0.4-1.6-0.9-2.3-1.6c-0.7-0.7-1.2-1.4-1.6-2.3c-0.4-0.9-0.6-1.8-0.6-2.8
		c0-1,0.2-1.9,0.6-2.8c0.4-0.9,0.9-1.6,1.6-2.3c0.7-0.7,1.4-1.2,2.3-1.6c0.9-0.4,1.8-0.6,2.8-0.6c1,0,1.9,0.2,2.8,0.6
		s1.6,0.9,2.3,1.6c0.7,0.7,1.2,1.4,1.6,2.3c0.4,0.9,0.6,1.8,0.6,2.8c0,1-0.2,1.9-0.6,2.8c-0.4,0.9-0.9,1.6-1.6,2.3
		c-0.7,0.7-1.4,1.2-2.3,1.6C4896.2-1328.4,4895.3-1328.2,4894.3-1328.2z M4889.9-1335.5c0,0.6,0.1,1.2,0.3,1.7
		c0.2,0.5,0.5,1,0.9,1.4c0.4,0.4,0.9,0.7,1.4,0.9c0.5,0.2,1.1,0.3,1.7,0.3c0.6,0,1.2-0.1,1.7-0.3c0.5-0.2,1-0.5,1.4-0.9
		c0.4-0.4,0.7-0.9,0.9-1.4c0.2-0.5,0.3-1.1,0.3-1.7s-0.1-1.2-0.3-1.7c-0.2-0.5-0.5-1-0.9-1.4c-0.4-0.4-0.9-0.7-1.4-0.9
		c-0.5-0.2-1.1-0.3-1.7-0.3c-0.6,0-1.2,0.1-1.7,0.3c-0.5,0.2-1,0.5-1.4,0.9c-0.4,0.4-0.7,0.9-0.9,1.4
		C4890-1336.6,4889.9-1336.1,4889.9-1335.5z M4895.7-1347.2h-3.5l2.6-4.9h4.2L4895.7-1347.2z M4894.3-1348.5h0.7l1.5-2.4h-0.9
		L4894.3-1348.5z"/>
	<path class="st1" d="M4907-1346h5.5l5.8,8.1v-8.1h6.6v21h-5.5l-5.8-8.1v8.1h-6.6V-1346z M4910.8-1327.5v-14.6l10.4,14.6h0.8v-16
		h-0.8v14.6l-10.4-14.6h-0.8v16H4910.8z"/>
	<path class="st2" d="M4931.7-1346h7.1l2.4,7.3l2.4-7.3h4.6l2.4,7.3l2.4-7.3h7.1l-6.9,21h-5.2l-2.1-6.4l-2.1,6.4h-5.2L4931.7-1346z
		 M4941.8-1327.5l4.2-13.2l4.2,13.2h0.8l5.3-16h-0.9l-4.8,14.5l-4.6-14.5l-4.6,14.5l-4.8-14.5h-0.9l5.3,16H4941.8z"/>
	<path class="st2" d="M4960.7-1346h12.4v5.5h-5.7v2.3h5.6v5.2h-5.6v2.4h5.9v5.5h-12.6V-1346z M4971-1327.5v-0.8h-6.3v-6.9h6v-0.8h-6
		v-6.8h6.3v-0.8h-7.1v16H4971z"/>
	<path class="st2" d="M4975.2-1346h8.2c1,0,2,0.1,2.9,0.4c0.9,0.2,1.6,0.6,2.2,1.1c0.6,0.5,1.1,1.1,1.4,1.8c0.3,0.7,0.5,1.5,0.5,2.5
		c0,0.7-0.1,1.2-0.3,1.7c-0.2,0.5-0.3,0.9-0.5,1.2c-0.2,0.4-0.5,0.7-0.8,0.9c0.5,0.3,0.9,0.7,1.3,1.1c0.3,0.4,0.6,0.9,0.9,1.5
		c0.3,0.6,0.4,1.4,0.4,2.2c0,1-0.2,1.9-0.5,2.7c-0.4,0.8-0.9,1.5-1.5,2.1c-0.7,0.6-1.5,1-2.4,1.3c-1,0.3-2,0.5-3.2,0.5h-8.6V-1346z
		 M4982.9-1327.5c1.8,0,3.2-0.4,4.1-1.2c0.9-0.8,1.3-1.9,1.3-3.2c0-0.9-0.2-1.5-0.6-2.1c-0.4-0.5-0.8-0.9-1.2-1.2
		c-0.5-0.3-1.1-0.6-1.7-0.7c0.5-0.1,1-0.4,1.4-0.7c0.4-0.3,0.7-0.6,1-1.1c0.3-0.5,0.4-1.1,0.4-1.8c0-1.3-0.4-2.3-1.3-3
		c-0.8-0.7-2-1-3.4-1h-4.5v16H4982.9z M4979.1-1336.2v-6.5h3.7c1.4,0,2.3,0.3,2.9,0.9c0.6,0.6,0.9,1.4,0.9,2.3c0,1-0.3,1.7-0.9,2.3
		c-0.6,0.6-1.6,0.9-2.9,0.9H4979.1z M4979.1-1328.3v-7.2h3.7c0.7,0,1.3,0.1,1.8,0.2c0.6,0.1,1,0.3,1.5,0.6c0.4,0.3,0.8,0.7,1,1.1
		c0.2,0.5,0.4,1,0.4,1.6c0,1.3-0.4,2.2-1.3,2.8c-0.9,0.6-2,0.9-3.4,0.9H4979.1z M4984-1339.6c0-1-0.5-1.4-1.6-1.4h-0.8v2.9h0.8
		C4983.5-1338.1,4984-1338.6,4984-1339.6z M4982.4-1329.9c1.6,0,2.4-0.6,2.4-1.8s-0.8-1.8-2.4-1.8h-0.8v3.7H4982.4z"/>
</g>
<rect x="4672" y="-1219" class="st3" width="378" height="34"/>
<rect x="4672" y="-1185" class="st4" width="378" height="658"/>
<rect x="4672" y="-527" class="st5" width="378" height="217"/>
<text transform="matrix(1 0 0 1 4685 -1195)" style="font-family:'Roboto-BoldCondensed'; font-size:18px;">DESCRIPCIÓN DEL CURSO</text>
<rect x="4704.1" y="-1062" style="fill-rule:evenodd;clip-rule:evenodd;fill:none;" width="328.9" height="349"/>
<text transform="matrix(0.9485 0 0 1 4704.0723 -1050.8965)"><tspan x="0" y="0" style="font-family:'AppleGaramond'; font-size:16px;">Conoce la diversidad de frameworks y herramientas en línea </tspan><tspan x="0" y="31" style="font-family:'AppleGaramond'; font-size:16px;">utilizadas en los procesos de diseño web.</tspan><tspan x="0" y="62" style="font-family:'AppleGaramond'; font-size:16px;">Comprende la diferencia entre maquetación y programación </tspan><tspan x="0" y="93" style="font-family:'AppleGaramond'; font-size:16px;">backend y frontend.</tspan><tspan x="0" y="124" style="font-family:'AppleGaramond'; font-size:16px;">Aplica los principales lenguajes de maquetación y </tspan><tspan x="0" y="155" style="font-family:'AppleGaramond'; font-size:16px;">programación: HTML; CSS; Javascript y PHP; así como los </tspan><tspan x="0" y="186" style="font-family:'AppleGaramond'; font-size:16px;">protocolos de informática para su publicación en línea.</tspan><tspan x="0" y="217" style="font-family:'AppleGaramond'; font-size:16px;">Analiza y evalúa las necesidades de cada uno de los </tspan><tspan x="0" y="248" style="font-family:'AppleGaramond'; font-size:16px;">proyectos para aplicar lo comprendido en la asignatura.</tspan><tspan x="0" y="279" style="font-family:'AppleGaramond'; font-size:16px;">Crea sitios funcionales capaces de resolver requerimientos </tspan><tspan x="0" y="310" style="font-family:'AppleGaramond'; font-size:16px;">propios del ambiente web.</tspan></text>
<rect x="4687" y="-468" style="fill-rule:evenodd;clip-rule:evenodd;fill:none;" width="346" height="158"/>
<text transform="matrix(0.9485 0 0 1 4687 -456.8965)"><tspan x="0" y="0" class="st2" style="font-family:'AppleGaramond'; font-size:16px;">1.1. HTML no es un lenguaje de programación </tspan><tspan x="0" y="31" class="st2" style="font-family:'AppleGaramond'; font-size:16px;">1.2. CSS: Sintaxis y estructura</tspan><tspan x="0" y="62" class="st2" style="font-family:'AppleGaramond'; font-size:16px;">1.3. Integración de HTML y CSS</tspan><tspan x="0" y="93" class="st2" style="font-family:'AppleGaramond'; font-size:16px;">1.4. Frameworks de maquetación</tspan><tspan x="0" y="124" class="st2" style="font-family:'AppleGaramond'; font-size:16px;">1.5. Comparativa y uso de frameworks</tspan></text>
<rect x="4685" y="-1157" style="fill-rule:evenodd;clip-rule:evenodd;fill:none;" width="335" height="20"/>
<text transform="matrix(1 0 0 1 4685 -1140.2422)" style="font-family:'Roboto-Black'; font-size:22px;">Planeación de la asignatura</text>
<rect x="4685" y="-1126" style="fill-rule:evenodd;clip-rule:evenodd;fill:none;" width="348" height="43"/>
<text transform="matrix(1 0 0 1 4685 -1112.2891)"><tspan x="0" y="0" style="font-family:'Roboto-Bold'; font-size:18px;">Resultados de aprendizaje de la asignatura </tspan><tspan x="0" y="21.6" style="font-family:'Roboto-Bold'; font-size:18px;">del alumno:</tspan></text>
<g>
	<rect x="4672.9" y="329.5" class="st6" width="376.3" height="135.5"/>
	<path class="st1" d="M5048.6,330v134.5h-375.3V330H5048.6 M5049.6,329h-377.3v136.5h377.3V329L5049.6,329z"/>
</g>
<rect x="4672.4" y="281" class="st3" width="377.3" height="48"/>
<rect x="4720.5" y="394" style="fill-rule:evenodd;clip-rule:evenodd;fill:none;" width="281" height="65"/>
<text transform="matrix(0.9485 0 0 1 4778.9561 405.1035)"><tspan x="0" y="0" style="font-family:'AppleGaramond'; font-size:16px;">Miércoles: 19:00 a 22:00 horas</tspan><tspan x="9.1" y="31" style="font-family:'AppleGaramond'; font-size:16px;">Jueves: 11:30 a 13:00 horas</tspan></text>
<g>
	<rect x="4734.5" y="299" style="fill:none;" width="253" height="20"/>
	<text transform="matrix(1 0 0 1 4816.8657 312.7109)" style="font-family:'Roboto-Bold'; font-size:18px;">HORARIOS</text>
</g>
<rect x="4720.5" y="340" style="fill-rule:evenodd;clip-rule:evenodd;fill:none;" width="281" height="43"/>
<text transform="matrix(1 0 0 1 4741.3721 353.7109)"><tspan x="0" y="0" style="font-family:'Roboto-Bold'; font-size:18px;">Inicio de clases: 10 de agosto</tspan><tspan x="-0.1" y="21.6" style="font-family:'Roboto-Bold'; font-size:18px;">Fin de clases: 12de diciembre</tspan></text>
<g>
	<rect x="4672.7" y="524.5" class="st6" width="376.6" height="64.5"/>
	<path class="st7" d="M5048.8,525v63.5h-375.6V525H5048.8 M5049.8,524h-377.6v65.5h377.6V524L5049.8,524z"/>
</g>
<rect x="4672.2" y="476" class="st5" width="377.6" height="48"/>
<g>
	<rect x="4734.5" y="494" style="fill:none;" width="253" height="20"/>
	<text transform="matrix(1 0 0 1 4814.7607 507.7109)" class="st2" style="font-family:'Roboto-Bold'; font-size:18px;">CONTACTO</text>
</g>
<rect x="4720.5" y="546" style="fill-rule:evenodd;clip-rule:evenodd;fill:none;" width="281" height="32"/>
<text transform="matrix(1 0 0 1 4779.7979 559.7109)" style="font-family:'Roboto-Bold'; font-size:18px;">oscar@webxsp.com</text>
<circle class="st8" cx="4694" cy="-1056" r="3"/>
<circle class="st8" cx="4694" cy="-839" r="3"/>
<circle class="st8" cx="4694" cy="-994" r="3"/>
<circle class="st8" cx="4694" cy="-777" r="3"/>
<circle class="st8" cx="4694" cy="-932" r="3"/>
<text transform="matrix(1 0 0 1 4719 -666)"><tspan x="0" y="0" style="font-family:'Roboto-Bold'; font-size:15px;">Introducción a la programación </tspan><tspan x="214" y="0" style="font-family:'Roboto-BoldItalic'; font-size:15px;">frontend</tspan></text>
<text transform="matrix(1 0 0 1 4719 -632)"><tspan x="0" y="0" style="font-family:'Roboto-Bold'; font-size:15px;">Programación </tspan><tspan x="98.6" y="0" style="font-family:'Roboto-BoldItalic'; font-size:15px;">frontend</tspan></text>
<text transform="matrix(1 0 0 1 4719 -598)"><tspan x="0" y="0" style="font-family:'Roboto-Bold'; font-size:15px;">Programación </tspan><tspan x="98.6" y="0" style="font-family:'Roboto-BoldItalic'; font-size:15px;">backend</tspan></text>
<text transform="matrix(1 0 0 1 4719 -564)"><tspan x="0" y="0" style="font-family:'Roboto-Bold'; font-size:15px;">Conocimientos técnicos </tspan><tspan x="166.1" y="0" style="font-family:'Roboto-BoldItalic'; font-size:15px;">web</tspan></text>
<text transform="matrix(1 0 0 1 4687 -491)"><tspan x="0" y="0" class="st2" style="font-family:'Roboto-Bold'; font-size:18px;">1. Introducción a la programación </tspan><tspan x="276.8" y="0" class="st2" style="font-family:'Roboto-BoldItalic'; font-size:18px;">frontend</tspan></text>
<rect x="4672" y="63" class="st9" width="378" height="217"/>
<rect x="4687" y="122" style="fill-rule:evenodd;clip-rule:evenodd;fill:none;" width="346" height="158"/>
<text transform="matrix(0.9485 0 0 1 4687 133.1035)"><tspan x="0" y="0" style="font-family:'AppleGaramond'; font-size:16px;">4.1. Básicos de HTTP; FTP y SMTP</tspan><tspan x="0" y="31" style="font-family:'AppleGaramond'; font-size:16px;">4.2. Información del servidor</tspan><tspan x="0" y="62" style="font-family:'AppleGaramond'; font-size:16px;">4.3. Dominio</tspan><tspan x="0" y="93" style="font-family:'AppleGaramond'; font-size:16px;">4.4. Manejo de niveles en certificados de seguridad (SSL)</tspan><tspan x="0" y="124" style="font-family:'AppleGaramond'; font-size:16px;">4.5. Manteniendo el estado</tspan></text>
<text transform="matrix(1 0 0 1 4687 99)"><tspan x="0" y="0" style="font-family:'Roboto-Bold'; font-size:18px;">4. Introducción a la programación </tspan><tspan x="276.8" y="0" style="font-family:'Roboto-BoldItalic'; font-size:18px;">frontend</tspan></text>
<rect x="4672" y="-310" class="st10" width="378" height="217"/>
<rect x="4687" y="-251" style="fill-rule:evenodd;clip-rule:evenodd;fill:none;" width="346" height="158"/>
<text transform="matrix(0.9485 0 0 1 4687 -239.8965)"><tspan x="0" y="0" style="font-family:'AppleGaramond'; font-size:16px;">3.1. Introducción al PHP</tspan><tspan x="0" y="31" style="font-family:'AppleGaramond'; font-size:16px;">3.2. Elementos básicos del lenguaje</tspan><tspan x="0" y="62" style="font-family:'AppleGaramond'; font-size:16px;">3.3. Incrustando código PHP en un HTML</tspan><tspan x="0" y="93" style="font-family:'AppleGaramond'; font-size:16px;">3.4. Frameworks de implementación de PHP</tspan><tspan x="0" y="124" style="font-family:'AppleGaramond'; font-size:16px;">3.5. Manejo de gestores de contenido CMS</tspan></text>
<text transform="matrix(1 0 0 1 4687 -274)"><tspan x="0" y="0" style="font-family:'Roboto-Bold'; font-size:18px;">3. Programación </tspan><tspan x="138.3" y="0" style="font-family:'Roboto-BoldItalic'; font-size:18px;">backend</tspan></text>
<rect x="4672" y="-93" class="st3" width="378" height="156"/>
<rect x="4687" y="-34" style="fill-rule:evenodd;clip-rule:evenodd;fill:none;" width="346" height="99"/>
<text transform="matrix(0.9485 0 0 1 4687 -22.8965)"><tspan x="0" y="0" style="font-family:'AppleGaramond'; font-size:16px;">2.1. Tipos de datos en los lenguajes de programación </tspan><tspan x="0" y="31" style="font-family:'AppleGaramond'; font-size:16px;">2.2. Operaciones básicas de la programación</tspan><tspan x="0" y="62" style="font-family:'AppleGaramond'; font-size:16px;">2.3. Javascript: Frameworks de animación</tspan></text>
<text transform="matrix(1 0 0 1 4687 -57)"><tspan x="0" y="0" style="font-family:'Roboto-Bold'; font-size:18px;">2. Programación </tspan><tspan x="138.3" y="0" style="font-family:'Roboto-BoldItalic'; font-size:18px;">frontend</tspan></text>
<line class="st11" x1="4694" y1="-711" x2="5033" y2="-711"/>
<polygon class="st12" points="4710,-670.3 4697.3,-677.7 4697.3,-663 "/>
<polygon class="st12" points="4710,-637.3 4697.3,-644.7 4697.3,-630 "/>
<polygon class="st12" points="4710,-603.3 4697.3,-610.7 4697.3,-596 "/>
<polygon class="st12" points="4710,-569.3 4697.3,-576.7 4697.3,-562 "/>
<text transform="matrix(1 0 0 1 4689.9902 -1291)" class="st2" style="font-family:'Roboto-Bold'; font-size:18px;">DGC. Oscar Tello</text>
<g>
	<g id="post-linkedin_2_">
		<path class="st0" d="M73.8,0H8.2C3.7,0,0,3.7,0,8.2v65.6C0,78.3,3.7,82,8.2,82h65.6c4.5,0,8.2-3.7,8.2-8.2V8.2
			C82,3.7,78.3,0,73.8,0z M24.6,69.7H12.3V32.8h12.3V69.7z M18.5,25.8c-4.1,0-7.4-3.3-7.4-7.4s3.3-7.4,7.4-7.4s7.4,3.3,7.4,7.4
			S22.5,25.8,18.5,25.8z M69.7,69.7H57.4V48c0-3.3-2.9-6.2-6.2-6.2s-6.2,2.9-6.2,6.2v21.7H32.8V32.8h12.3v4.9
			c2.1-3.3,6.6-5.7,10.2-5.7c7.8,0,14.3,6.6,14.3,14.4V69.7z"/>
	</g>
</g>
<g>
	<text transform="matrix(0.9485 0 0 1 590.543 -217.9443)" class="st2" style="font-family:'AppleGaramond-Bold'; font-size:18px;">2020</text>
</g>
<g>
	<text transform="matrix(0.9485 0 0 1 2678.543 91.0557)" class="st2" style="font-family:'AppleGaramond-Bold'; font-size:18px;">2020</text>
</g>
</svg>
