<?xml version="1.0" encoding="utf-8"?>
<!-- Generator: Adobe Illustrator 21.0.0, SVG Export Plug-In . SVG Version: 6.00 Build 0)  -->
<svg version="1.1" id="Capa_1" xmlns="http://www.w3.org/2000/svg" xmlns:xlink="http://www.w3.org/1999/xlink" x="0px" y="0px"
	 viewBox="0 0 361.9 33.4" style="enable-background:new 0 0 361.9 33.4;" xml:space="preserve">
<style type="text/css">
	.st0{fill:#FCD733;}
	.st1{fill:#FFFFFF;}
</style>
<g>
	<path class="st0" d="M19.7,17c0,1.7-0.3,3.2-0.9,4.5c-0.6,1.2-1.4,2.2-2.5,3c-1.1,0.8-2.3,1.3-3.7,1.7c-1.4,0.4-2.9,0.5-4.5,0.5v6
		H0V7.4h8.1c1.6,0,3.1,0.2,4.5,0.5c1.4,0.4,2.6,0.9,3.7,1.7c1.1,0.8,1.9,1.8,2.5,3C19.4,13.8,19.7,15.3,19.7,17z M16,17
		c0-1.1-0.2-2.1-0.6-3c-0.4-0.8-0.9-1.5-1.7-2.1c-0.7-0.5-1.6-0.9-2.5-1.2c-1-0.3-2-0.4-3.2-0.4H3.8v19.3h1v-6h3.3
		c1.1,0,2.2-0.1,3.2-0.4c1-0.3,1.8-0.7,2.5-1.2c0.7-0.5,1.3-1.2,1.7-2.1C15.8,19.2,16,18.2,16,17z M15,17c0,1.1-0.2,2-0.6,2.7
		c-0.4,0.7-0.9,1.3-1.5,1.7c-0.6,0.4-1.4,0.7-2.2,0.9c-0.8,0.2-1.7,0.3-2.6,0.3H4.8V11.3h3.3c0.9,0,1.8,0.1,2.6,0.3s1.6,0.5,2.2,0.9
		c0.6,0.4,1.1,1,1.5,1.7C14.8,15,15,15.9,15,17z M8.1,19.8h0.3c1.1,0,1.8-0.2,2.3-0.7c0.5-0.5,0.7-1.2,0.7-2.1s-0.2-1.6-0.7-2.1
		c-0.5-0.5-1.2-0.7-2.3-0.7H8.1V19.8z"/>
	<path class="st0" d="M21.6,7.4h8.7c1.6,0,3.1,0.2,4.5,0.6c1.4,0.4,2.6,1.1,3.6,1.9c1,0.8,1.8,1.9,2.4,3.1c0.6,1.2,0.9,2.6,0.9,4.2
		c0,1.3-0.2,2.3-0.5,3.2c-0.4,0.9-0.7,1.6-1.2,2.2c-0.5,0.7-1.1,1.2-1.7,1.7l4.8,8.4h-9.5l-3.8-6.4v6.4h-8.1V7.4z M29.5,23.9
		c1,0,2-0.1,2.9-0.3l3.6,6.1h1.2l-3.8-6.4c1.4-0.5,2.5-1.2,3.3-2.2c0.8-1,1.2-2.3,1.2-3.9c0-1.1-0.2-2.1-0.6-2.9
		c-0.4-0.8-1-1.5-1.8-2.1c-0.7-0.6-1.6-1-2.6-1.3c-1-0.3-2.1-0.4-3.3-0.4h-4.1v19.3h1v-5.8H29.5z M26.4,23V11.3h3.1
		c2.3,0,4.1,0.5,5.4,1.5c1.3,1,2,2.5,2,4.3c0,1.9-0.7,3.3-2,4.3c-1.3,1-3.1,1.5-5.4,1.5H26.4z M29.7,19.8h0.4c1,0,1.8-0.2,2.5-0.6
		c0.7-0.4,1-1.2,1-2.2s-0.3-1.7-1-2.2c-0.7-0.4-1.5-0.6-2.5-0.6h-0.4V19.8z"/>
	<path class="st0" d="M43.2,20.1c0-1.8,0.3-3.5,1-5.2c0.7-1.6,1.6-3,2.8-4.2c1.2-1.2,2.6-2.2,4.2-2.9c1.6-0.7,3.3-1,5.2-1
		c1.8,0,3.5,0.3,5.2,1c1.6,0.7,3,1.6,4.2,2.9c1.2,1.2,2.2,2.6,2.9,4.2c0.7,1.6,1,3.3,1,5.2c0,1.8-0.3,3.5-1,5.2
		c-0.7,1.6-1.6,3-2.9,4.2c-1.2,1.2-2.6,2.2-4.2,2.9c-1.6,0.7-3.3,1-5.2,1c-1.8,0-3.5-0.3-5.2-1c-1.6-0.7-3-1.6-4.2-2.9
		c-1.2-1.2-2.2-2.6-2.8-4.2C43.6,23.6,43.2,21.9,43.2,20.1z M46.8,20.1c0,1.3,0.3,2.6,0.8,3.8c0.5,1.2,1.2,2.2,2.1,3.1
		c0.9,0.9,1.9,1.6,3.1,2.1c1.2,0.5,2.4,0.8,3.8,0.8c1.3,0,2.6-0.3,3.8-0.8c1.2-0.5,2.2-1.2,3.1-2.1c0.9-0.9,1.6-1.9,2.1-3.1
		c0.5-1.2,0.8-2.4,0.8-3.8s-0.3-2.6-0.8-3.8c-0.5-1.2-1.2-2.2-2.1-3.1c-0.9-0.9-1.9-1.6-3.1-2.1c-1.2-0.5-2.4-0.8-3.8-0.8
		c-1.3,0-2.6,0.3-3.8,0.8c-1.2,0.5-2.2,1.2-3.1,2.1c-0.9,0.9-1.6,1.9-2.1,3.1C47,17.5,46.8,18.7,46.8,20.1z M56.5,28.8
		c-1.2,0-2.4-0.2-3.4-0.7c-1.1-0.5-2-1.1-2.8-1.9c-0.8-0.8-1.4-1.7-1.9-2.8c-0.5-1.1-0.7-2.2-0.7-3.4c0-1.2,0.2-2.3,0.7-3.4
		c0.5-1.1,1.1-2,1.9-2.8c0.8-0.8,1.7-1.4,2.8-1.9c1.1-0.5,2.2-0.7,3.4-0.7s2.3,0.2,3.4,0.7c1.1,0.5,2,1.1,2.8,1.9
		c0.8,0.8,1.4,1.7,1.9,2.8c0.5,1.1,0.7,2.2,0.7,3.4c0,1.2-0.2,2.4-0.7,3.4c-0.5,1.1-1.1,2-1.9,2.8c-0.8,0.8-1.7,1.4-2.8,1.9
		C58.9,28.6,57.7,28.8,56.5,28.8z M51.2,20.1c0,0.7,0.1,1.4,0.4,2.1c0.3,0.6,0.7,1.2,1.1,1.7c0.5,0.5,1,0.9,1.7,1.1
		c0.6,0.3,1.3,0.4,2.1,0.4c0.7,0,1.4-0.1,2.1-0.4c0.6-0.3,1.2-0.7,1.7-1.1c0.5-0.5,0.9-1,1.1-1.7c0.3-0.6,0.4-1.3,0.4-2.1
		s-0.1-1.4-0.4-2.1c-0.3-0.6-0.7-1.2-1.1-1.7c-0.5-0.5-1-0.9-1.7-1.1c-0.6-0.3-1.3-0.4-2.1-0.4c-0.7,0-1.4,0.1-2.1,0.4
		c-0.6,0.3-1.2,0.7-1.7,1.1c-0.5,0.5-0.9,1-1.1,1.7C51.3,18.6,51.2,19.3,51.2,20.1z"/>
	<path class="st0" d="M88,16c-0.5-0.4-1-0.7-1.7-0.9c-0.7-0.2-1.4-0.3-2-0.3c-0.7,0-1.4,0.1-2,0.4c-0.6,0.3-1.1,0.6-1.6,1.1
		c-0.4,0.5-0.8,1-1,1.7c-0.3,0.7-0.4,1.4-0.4,2.1c0,0.8,0.1,1.5,0.4,2.1c0.3,0.7,0.7,1.2,1.1,1.7c0.5,0.5,1,0.8,1.7,1.1
		s1.3,0.4,2.1,0.4c0.9,0,1.6-0.2,2.4-0.6c0.7-0.4,1.3-0.9,1.8-1.5h-2.3V18h9.8v8.4c-0.6,1-1.3,2-2.1,2.8c-0.8,0.8-1.7,1.6-2.7,2.2
		c-1,0.6-2.1,1.1-3.2,1.4c-1.2,0.3-2.4,0.5-3.6,0.5c-1.8,0-3.5-0.3-5.2-1c-1.6-0.7-3-1.6-4.2-2.8c-1.2-1.2-2.2-2.6-2.8-4.2
		c-0.7-1.6-1-3.4-1-5.2c0-1.8,0.3-3.5,1-5.2c0.7-1.6,1.6-3,2.7-4.2c1.2-1.2,2.5-2.2,4.1-2.9c1.6-0.7,3.3-1,5.1-1
		c1.4,0,2.6,0.1,3.7,0.4c1,0.3,1.9,0.6,2.6,1c0.8,0.4,1.5,0.8,2.1,1.3L88,16z M88.4,11.1c-0.3-0.2-0.7-0.3-1.1-0.4
		c-0.4-0.1-0.8-0.2-1.3-0.3c-0.5-0.1-1-0.1-1.6-0.1c-1.3,0-2.6,0.2-3.8,0.7c-1.2,0.5-2.2,1.1-3,2c-0.9,0.8-1.5,1.9-2,3.1
		c-0.5,1.2-0.7,2.5-0.7,4c0,1.4,0.3,2.8,0.8,4c0.5,1.2,1.2,2.2,2.1,3.1c0.9,0.8,1.9,1.5,3.1,2c1.2,0.5,2.4,0.7,3.8,0.7
		c1.7,0,3.3-0.4,4.8-1.2c1.4-0.8,2.6-1.9,3.5-3.3v-5h-4v0.9h3V25c-0.8,1.2-1.8,2.1-3.1,2.8c-1.3,0.7-2.6,1-4.2,1
		c-1.2,0-2.4-0.2-3.4-0.6c-1.1-0.4-2-1-2.8-1.8c-0.8-0.8-1.4-1.7-1.9-2.8c-0.5-1.1-0.7-2.3-0.7-3.6s0.2-2.5,0.7-3.6
		c0.4-1.1,1.1-2,1.8-2.8c0.8-0.8,1.7-1.4,2.7-1.8c1-0.4,2.2-0.6,3.4-0.6c0.5,0,0.9,0,1.3,0.1c0.4,0.1,0.8,0.2,1.1,0.2
		c0.4,0.1,0.7,0.2,1,0.3L88.4,11.1z"/>
	<path class="st0" d="M98.4,7.4h8.7c1.6,0,3.1,0.2,4.5,0.6c1.4,0.4,2.6,1.1,3.6,1.9c1,0.8,1.8,1.9,2.4,3.1c0.6,1.2,0.9,2.6,0.9,4.2
		c0,1.3-0.2,2.3-0.5,3.2c-0.4,0.9-0.7,1.6-1.2,2.2c-0.5,0.7-1.1,1.2-1.7,1.7l4.8,8.4h-9.5l-3.8-6.4v6.4h-8.1V7.4z M106.3,23.9
		c1,0,2-0.1,2.9-0.3l3.6,6.1h1.2l-3.8-6.4c1.4-0.5,2.5-1.2,3.3-2.2c0.8-1,1.2-2.3,1.2-3.9c0-1.1-0.2-2.1-0.6-2.9
		c-0.4-0.8-1-1.5-1.8-2.1c-0.7-0.6-1.6-1-2.6-1.3c-1-0.3-2.1-0.4-3.3-0.4h-4.1v19.3h1v-5.8H106.3z M103.2,23V11.3h3.1
		c2.3,0,4.1,0.5,5.4,1.5c1.3,1,2,2.5,2,4.3c0,1.9-0.7,3.3-2,4.3c-1.3,1-3.1,1.5-5.4,1.5H103.2z M106.5,19.8h0.4c1,0,1.8-0.2,2.5-0.6
		c0.7-0.4,1-1.2,1-2.2s-0.3-1.7-1-2.2c-0.7-0.4-1.5-0.6-2.5-0.6h-0.4V19.8z"/>
	<path class="st0" d="M128.1,7.4h6.1l9.6,25.3h-8l-0.8-2.3h-7.7l-0.8,2.3h-8L128.1,7.4z M124.1,29.7l0.7-1.9h12.5l0.7,1.9h1.1
		l-7.3-19.3h-1.4L123,29.7H124.1z M131.1,11.3l5.9,15.5h-11.9L131.1,11.3z M132.8,24.9l-1.7-4.4l-1.7,4.4H132.8z"/>
	<path class="st0" d="M144.3,7.4h6.7l6.6,9.7l6.6-9.7h6.7v25.3h-8.1v-9.1l-5.2,7.6l-5.2-7.6v9.1h-8.1V7.4z M149.1,29.7V12.2
		l8.5,12.4l8.5-12.4v17.4h1V10.4h-1l-8.5,12.5l-8.5-12.5h-1v19.3H149.1z"/>
	<path class="st0" d="M181.1,7.4h6.1l9.6,25.3h-8l-0.8-2.3h-7.7l-0.8,2.3h-8L181.1,7.4z M177.1,29.7l0.7-1.9h12.5l0.7,1.9h1.1
		l-7.3-19.3h-1.4l-7.3,19.3H177.1z M184.1,11.3l5.9,15.5h-11.9L184.1,11.3z M185.8,24.9l-1.7-4.4l-1.7,4.4H185.8z"/>
	<path class="st0" d="M196.8,20.1c0-2,0.4-3.9,1.1-5.5c0.7-1.6,1.7-3,2.9-4.2c1.2-1.2,2.6-2.1,4.3-2.7c1.6-0.6,3.3-0.9,5.2-0.9
		c1.4,0,2.7,0.1,3.9,0.4c1.1,0.3,2.1,0.6,2.9,1c0.9,0.4,1.7,0.8,2.4,1.3l-4,7c-0.4-0.3-0.8-0.6-1.3-0.9c-0.4-0.2-0.9-0.4-1.5-0.6
		c-0.6-0.2-1.3-0.3-2-0.3c-0.8,0-1.5,0.1-2.2,0.4c-0.7,0.3-1.2,0.7-1.7,1.1c-0.5,0.5-0.9,1-1.2,1.7c-0.3,0.6-0.4,1.3-0.4,2.1
		s0.1,1.4,0.4,2.1c0.3,0.6,0.7,1.2,1.2,1.7c0.5,0.5,1.1,0.9,1.8,1.1c0.7,0.3,1.4,0.4,2.2,0.4c0.8,0,1.5-0.1,2.2-0.3
		c0.6-0.2,1.2-0.4,1.6-0.7c0.5-0.3,0.9-0.6,1.3-1l4,7c-0.7,0.6-1.5,1.1-2.4,1.5c-0.8,0.4-1.8,0.7-2.9,1c-1.1,0.3-2.4,0.5-3.9,0.5
		c-2,0-3.8-0.3-5.5-1c-1.7-0.6-3.1-1.6-4.3-2.7c-1.2-1.2-2.2-2.6-2.9-4.2C197.1,23.8,196.8,22,196.8,20.1z M201.5,20.1
		c0-1.2,0.2-2.4,0.6-3.4c0.4-1.1,1-2,1.8-2.8c0.8-0.8,1.7-1.4,2.8-1.9s2.3-0.7,3.6-0.7c0.7,0,1.2,0,1.8,0.1c0.5,0.1,1,0.2,1.3,0.3
		c0.4,0.1,0.8,0.3,1.1,0.5l0.5-0.9c-0.4-0.2-0.8-0.3-1.3-0.5c-0.4-0.1-0.9-0.2-1.5-0.3c-0.6-0.1-1.2-0.2-1.9-0.2
		c-1.3,0-2.5,0.2-3.7,0.7c-1.2,0.5-2.2,1.1-3.1,2c-0.9,0.8-1.6,1.9-2.2,3.1c-0.5,1.2-0.8,2.5-0.8,4c0,1.5,0.3,2.8,0.8,4
		c0.5,1.2,1.2,2.2,2.1,3.1c0.9,0.8,2,1.5,3.2,2c1.2,0.5,2.5,0.7,3.9,0.7c0.8,0,1.4-0.1,2.1-0.2c0.6-0.1,1.1-0.3,1.6-0.4
		c0.5-0.2,0.9-0.4,1.3-0.6l-0.5-0.9c-0.3,0.2-0.7,0.4-1.1,0.6c-0.4,0.2-0.8,0.3-1.4,0.4c-0.5,0.1-1.2,0.2-1.9,0.2
		c-1.4,0-2.6-0.2-3.8-0.7c-1.1-0.5-2.1-1.1-2.8-1.9c-0.8-0.8-1.4-1.7-1.8-2.8S201.5,21.3,201.5,20.1z"/>
	<path class="st0" d="M220.7,7.4h8.6v25.3h-8.6V7.4z M225.5,29.7V10.4h-1v19.3H225.5z"/>
	<path class="st0" d="M231.3,20.1c0-1.8,0.3-3.5,1-5.2c0.7-1.6,1.6-3,2.8-4.2c1.2-1.2,2.6-2.2,4.2-2.9c1.6-0.7,3.3-1,5.2-1
		c1.8,0,3.5,0.3,5.2,1c1.6,0.7,3,1.6,4.2,2.9c1.2,1.2,2.2,2.6,2.9,4.2c0.7,1.6,1,3.3,1,5.2c0,1.8-0.3,3.5-1,5.2
		c-0.7,1.6-1.6,3-2.9,4.2c-1.2,1.2-2.6,2.2-4.2,2.9c-1.6,0.7-3.3,1-5.2,1c-1.8,0-3.5-0.3-5.2-1c-1.6-0.7-3-1.6-4.2-2.9
		c-1.2-1.2-2.2-2.6-2.8-4.2C231.7,23.6,231.3,21.9,231.3,20.1z M234.9,20.1c0,1.3,0.3,2.6,0.8,3.8c0.5,1.2,1.2,2.2,2.1,3.1
		c0.9,0.9,1.9,1.6,3.1,2.1c1.2,0.5,2.4,0.8,3.8,0.8c1.3,0,2.6-0.3,3.8-0.8c1.2-0.5,2.2-1.2,3.1-2.1c0.9-0.9,1.6-1.9,2.1-3.1
		c0.5-1.2,0.8-2.4,0.8-3.8s-0.3-2.6-0.8-3.8c-0.5-1.2-1.2-2.2-2.1-3.1c-0.9-0.9-1.9-1.6-3.1-2.1c-1.2-0.5-2.4-0.8-3.8-0.8
		c-1.3,0-2.6,0.3-3.8,0.8c-1.2,0.5-2.2,1.2-3.1,2.1c-0.9,0.9-1.6,1.9-2.1,3.1C235.2,17.5,234.9,18.7,234.9,20.1z M244.6,28.8
		c-1.2,0-2.4-0.2-3.4-0.7c-1.1-0.5-2-1.1-2.8-1.9c-0.8-0.8-1.4-1.7-1.9-2.8c-0.5-1.1-0.7-2.2-0.7-3.4c0-1.2,0.2-2.3,0.7-3.4
		c0.5-1.1,1.1-2,1.9-2.8c0.8-0.8,1.7-1.4,2.8-1.9c1.1-0.5,2.2-0.7,3.4-0.7s2.3,0.2,3.4,0.7c1.1,0.5,2,1.1,2.8,1.9
		c0.8,0.8,1.4,1.7,1.9,2.8c0.5,1.1,0.7,2.2,0.7,3.4c0,1.2-0.2,2.4-0.7,3.4c-0.5,1.1-1.1,2-1.9,2.8c-0.8,0.8-1.7,1.4-2.8,1.9
		C247,28.6,245.9,28.8,244.6,28.8z M239.3,20.1c0,0.7,0.1,1.4,0.4,2.1c0.3,0.6,0.7,1.2,1.1,1.7c0.5,0.5,1,0.9,1.7,1.1
		c0.6,0.3,1.3,0.4,2.1,0.4c0.7,0,1.4-0.1,2.1-0.4c0.6-0.3,1.2-0.7,1.7-1.1c0.5-0.5,0.9-1,1.1-1.7c0.3-0.6,0.4-1.3,0.4-2.1
		s-0.1-1.4-0.4-2.1c-0.3-0.6-0.7-1.2-1.1-1.7c-0.5-0.5-1-0.9-1.7-1.1c-0.6-0.3-1.3-0.4-2.1-0.4c-0.7,0-1.4,0.1-2.1,0.4
		c-0.6,0.3-1.2,0.7-1.7,1.1c-0.5,0.5-0.9,1-1.1,1.7C239.5,18.6,239.3,19.3,239.3,20.1z M246.4,5.9h-4.3l3.2-5.9h5L246.4,5.9z
		 M244.7,4.4h0.8l1.9-2.9h-1.1L244.7,4.4z"/>
	<path class="st0" d="M260,7.4h6.6l7,9.8V7.4h7.9v25.3h-6.7l-7-9.7v9.7H260V7.4z M264.6,29.7V12.1l12.5,17.6h1V10.4h-1V28
		l-12.5-17.6h-1v19.3H264.6z"/>
	<path class="st1" d="M289.8,7.4h8.6l2.9,8.9l2.9-8.9h5.5l2.9,8.9l2.9-8.9h8.6l-8.4,25.3h-6.3L307,25l-2.5,7.7h-6.3L289.8,7.4z
		 M301.9,29.7l5.1-15.9l5.1,15.9h1l6.3-19.3h-1l-5.8,17.5L307,10.4l-5.5,17.5l-5.8-17.5h-1l6.3,19.3H301.9z"/>
	<path class="st1" d="M324.8,7.4h14.9V14h-6.8v2.8h6.7v6.3h-6.7v2.9h7.1v6.6h-15.2V7.4z M337.2,29.7v-0.9h-7.6v-8.3h7.2v-0.9h-7.2
		v-8.2h7.6v-0.9h-8.6v19.3H337.2z"/>
	<path class="st1" d="M342.3,7.4h9.9c1.3,0,2.4,0.1,3.5,0.4c1.1,0.3,2,0.7,2.7,1.3c0.7,0.6,1.3,1.3,1.7,2.1s0.6,1.8,0.6,3
		c0,0.8-0.1,1.5-0.3,2.1c-0.2,0.6-0.4,1-0.6,1.4c-0.3,0.5-0.6,0.8-1,1.1c0.6,0.4,1.1,0.8,1.5,1.4c0.4,0.5,0.7,1.1,1,1.8
		c0.3,0.7,0.5,1.6,0.5,2.7c0,1.2-0.2,2.3-0.6,3.3c-0.4,1-1,1.8-1.8,2.5c-0.8,0.7-1.8,1.2-2.9,1.6c-1.2,0.4-2.4,0.6-3.9,0.6h-10.3
		V7.4z M351.5,29.7c2.2,0,3.9-0.5,4.9-1.4c1.1-1,1.6-2.2,1.6-3.8c0-1-0.2-1.9-0.7-2.5c-0.4-0.6-0.9-1.1-1.4-1.5
		c-0.6-0.4-1.3-0.7-2.1-0.8c0.6-0.2,1.2-0.5,1.6-0.8c0.4-0.3,0.8-0.8,1.2-1.3c0.3-0.6,0.5-1.3,0.5-2.2c0-1.6-0.5-2.8-1.5-3.6
		c-1-0.8-2.4-1.2-4.1-1.2h-5.5v19.3H351.5z M347,19.2v-7.8h4.5c1.6,0,2.8,0.4,3.6,1.1c0.7,0.7,1.1,1.7,1.1,2.8
		c0,1.2-0.4,2.1-1.1,2.8c-0.7,0.7-1.9,1.1-3.6,1.1H347z M347,28.8v-8.7h4.4c0.8,0,1.5,0.1,2.2,0.2c0.7,0.2,1.3,0.4,1.8,0.8
		c0.5,0.3,0.9,0.8,1.2,1.3c0.3,0.6,0.4,1.2,0.4,2c0,1.5-0.5,2.7-1.5,3.3c-1,0.7-2.4,1-4,1H347z M352.9,15.1c0-1.2-0.6-1.7-1.9-1.7
		h-0.9v3.5h0.9C352.3,16.8,352.9,16.3,352.9,15.1z M351,26.8c1.9,0,2.9-0.7,2.9-2.2s-1-2.2-2.9-2.2h-0.9v4.4H351z"/>
</g>
</svg>
